<svg width="783" height="83" viewBox="0 0 783 83" fill="none" xmlns="http://www.w3.org/2000/svg">
<path d="M32.0048 18.6552L35.2498 60.1704C35.2986 60.7938 35.7205 61.3254 36.3167 61.5144L53.3924 66.9282C53.6944 67.0239 54.0186 67.0239 54.3206 66.9282L71.3963 61.5144C71.9925 61.3254 72.4144 60.7938 72.4631 60.1704L75.7082 18.6552C75.778 17.7626 75.0726 17 74.1774 17H33.5357C32.6405 17 31.9351 17.7626 32.0048 18.6552ZM67.3864 31.536H46.2375L46.8757 37.4216H66.9264L65.6148 54.2009L53.8566 57.9287L42.0983 54.2009L41.4131 45.4347H47.5847V49.7346L54.0215 51.4622L60.4198 49.7346L60.9161 42.8818H41.2135L39.9054 26.1466H67.8076L67.3864 31.536Z" fill="#FC490B"/>
<path d="M121.152 57.2599C121.152 57.4667 120.915 57.6321 120.615 57.6321C120.274 57.6631 120.036 57.4977 120.036 57.2599C120.036 57.0531 120.274 56.8877 120.573 56.8877C120.884 56.8567 121.152 57.0221 121.152 57.2599ZM117.937 56.7947C117.865 57.0014 118.071 57.2392 118.381 57.3013C118.65 57.4047 118.96 57.3013 119.023 57.0945C119.085 56.8877 118.888 56.6499 118.578 56.5569C118.309 56.4845 118.009 56.5879 117.937 56.7947ZM122.507 56.6189C122.207 56.6913 122 56.8877 122.031 57.1255C122.062 57.3323 122.331 57.4667 122.641 57.3943C122.941 57.322 123.148 57.1255 123.117 56.9187C123.086 56.7223 122.807 56.5879 122.507 56.6189ZM129.31 17C114.97 17 104 27.8869 104 42.2271C104 53.693 111.217 63.5047 121.525 66.9579C122.848 67.1957 123.313 66.3789 123.313 65.7069C123.313 65.0658 123.282 61.5299 123.282 59.3587C123.282 59.3587 116.045 60.9096 114.525 56.2777C114.525 56.2777 113.346 53.2691 111.651 52.4937C111.651 52.4937 109.283 50.8704 111.816 50.9015C111.816 50.9015 114.391 51.1082 115.807 53.5689C118.071 57.5598 121.866 56.4121 123.344 55.7298C123.582 54.0755 124.254 52.9279 124.998 52.2455C119.219 51.6045 113.388 50.7671 113.388 40.821C113.388 37.9778 114.174 36.551 115.828 34.7313C115.559 34.0593 114.68 31.2884 116.097 27.7112C118.257 27.0391 123.23 30.5027 123.23 30.5027C125.298 29.9237 127.521 29.6239 129.723 29.6239C131.926 29.6239 134.148 29.9237 136.216 30.5027C136.216 30.5027 141.189 27.0288 143.35 27.7112C144.767 31.2988 143.888 34.0593 143.619 34.7313C145.273 36.5613 146.286 37.9881 146.286 40.821C146.286 50.7981 140.197 51.5942 134.417 52.2455C135.368 53.0623 136.175 54.6131 136.175 57.0428C136.175 60.527 136.144 64.8384 136.144 65.6862C136.144 66.3582 136.619 67.175 137.932 66.9372C148.271 63.5047 155.281 53.693 155.281 42.2271C155.281 27.8869 143.65 17 129.31 17ZM114.049 52.6591C113.915 52.7625 113.946 53.0003 114.122 53.1967C114.287 53.3621 114.525 53.4345 114.659 53.3001C114.794 53.1967 114.763 52.9589 114.587 52.7625C114.422 52.5971 114.184 52.5247 114.049 52.6591ZM112.933 51.8216C112.86 51.956 112.964 52.1215 113.171 52.2249C113.336 52.3282 113.543 52.2972 113.615 52.1525C113.688 52.0181 113.584 51.8526 113.377 51.7493C113.171 51.6872 113.005 51.7182 112.933 51.8216ZM116.283 55.5023C116.117 55.6367 116.179 55.9469 116.417 56.1433C116.655 56.3811 116.955 56.4121 117.089 56.2467C117.224 56.1123 117.162 55.8021 116.955 55.6057C116.727 55.3679 116.417 55.3369 116.283 55.5023ZM115.104 53.9825C114.939 54.0859 114.939 54.3547 115.104 54.5925C115.269 54.8303 115.549 54.9337 115.683 54.8303C115.848 54.6959 115.848 54.427 115.683 54.1893C115.538 53.9515 115.269 53.8481 115.104 53.9825Z" fill="black"/>
<path d="M207.275 17L184 25.3L187.55 56.075L207.275 67L227 56.075L230.55 25.3L207.275 17Z" fill="#DD0031"/>
<path d="M207.275 17V22.55V22.525V67L227 56.075L230.55 25.3L207.275 17Z" fill="#C3002F"/>
<path d="M207.275 22.525L192.725 55.15H198.15L201.075 47.85H213.425L216.35 55.15H221.775L207.275 22.525ZM211.525 43.35H203.025L207.275 33.125L211.525 43.35Z" fill="white"/>
<path d="M308.058 39.7731L286.227 17.9431C284.97 16.6856 282.931 16.6856 281.673 17.9431L277.14 22.4768L282.89 28.2271C284.227 27.7759 285.759 28.0788 286.824 29.1439C287.895 30.2156 288.196 31.7613 287.733 33.1026L293.275 38.6444C294.617 38.1821 296.163 38.4809 297.234 39.5537C298.731 41.0497 298.731 43.4748 297.234 44.9721C295.737 46.4693 293.312 46.4693 291.814 44.9721C290.689 43.8455 290.41 42.1916 290.981 40.8048L285.811 35.6359V49.2379C286.176 49.4186 286.52 49.6592 286.824 49.9623C288.321 51.4585 288.321 53.8834 286.824 55.3819C285.328 56.8777 282.901 56.8777 281.406 55.3819C279.91 53.8834 279.91 51.4585 281.406 49.9623C281.776 49.5929 282.204 49.3134 282.661 49.1263V35.3984C282.204 35.2114 281.777 34.9342 281.406 34.5622C280.273 33.4293 280 31.7656 280.581 30.3735L274.912 24.7038L259.943 39.6719C258.686 40.9305 258.686 42.9696 259.943 44.2271L281.775 66.057C283.032 67.3143 285.07 67.3143 286.329 66.057L308.058 44.3282C309.315 43.0705 309.315 41.0304 308.058 39.7731" fill="#F03C2E"/>
<path d="M338 17H388V67H338V17Z" fill="#F7DF1E"/>
<path d="M351.147 58.7836L354.973 56.468C355.711 57.7768 356.383 58.8842 357.994 58.8842C359.538 58.8842 360.511 58.2803 360.511 55.9311V39.9549H365.21V55.9975C365.21 60.8641 362.357 63.0793 358.195 63.0793C354.436 63.0793 352.254 61.1326 351.147 58.7832L351.147 58.7836ZM367.762 58.2801L371.588 56.0651C372.595 57.7098 373.904 58.918 376.22 58.918C378.167 58.918 379.408 57.9446 379.408 56.602C379.408 54.991 378.133 54.4203 375.985 53.4809L374.81 52.977C371.42 51.5342 369.172 49.7217 369.172 45.8955C369.172 42.3713 371.856 39.6862 376.052 39.6862C379.039 39.6862 381.187 40.7268 382.731 43.4453L379.072 45.7949C378.267 44.3518 377.394 43.7813 376.052 43.7813C374.676 43.7813 373.803 44.6539 373.803 45.7949C373.803 47.2045 374.676 47.7754 376.689 48.6481L377.864 49.1514C381.858 50.8633 384.107 52.6084 384.107 56.535C384.107 60.7643 380.784 63.0799 376.32 63.0799C371.957 63.0799 369.138 60.999 367.762 58.2803" fill="black"/>
<path d="M456.547 67H425.766C424.503 66.9949 423.294 66.4911 422.402 65.5985C421.509 64.7059 421.005 63.4967 421 62.2344V21.7656C421.005 20.5033 421.509 19.2941 422.402 18.4015C423.294 17.5089 424.503 17.0051 425.766 17H456.547C457.809 17.0051 459.018 17.5089 459.911 18.4015C460.804 19.2941 461.307 20.5033 461.313 21.7656V62.2344C461.307 63.4967 460.804 64.7059 459.911 65.5985C459.018 66.4911 457.809 66.9949 456.547 67V67Z" fill="#6762A6"/>
<path d="M446.273 60.1151V40.2616C446.273 40.2616 447.562 35.5057 430.355 42.2147C430.336 42.3905 430.336 23.8358 430.336 23.8358L435.941 23.8065V35.5253C435.941 35.5253 451.664 29.3241 451.664 40.2128V59.9979H446.244L446.273 60.1151ZM449.477 30.955H443.617C445.766 28.3182 447.719 23.826 447.719 23.826H453.871C453.871 23.826 452.816 26.7557 449.574 30.955H449.477ZM430.434 60.076V48.7772L436.098 54.4413L430.434 60.1053V60.076Z" fill="white"/>
<path fill-rule="evenodd" clip-rule="evenodd" d="M675.089 33.3148C675.747 35.2181 676.221 37.1611 676.376 39.175C676.57 41.6735 676.481 44.1543 675.955 46.6118C675.94 46.6794 675.91 46.743 675.887 46.8086C675.722 46.809 675.554 46.7885 675.392 46.8135C674.028 47.0279 672.664 47.25 671.301 47.471C669.891 47.6993 668.48 47.9186 667.073 48.1625C666.575 48.2486 665.958 48.1457 665.757 48.8352C665.751 48.8541 665.693 48.8573 665.66 48.868L665.728 44.7479L665.659 34.8065L666.316 34.6938C667.39 34.5179 668.464 34.3396 669.539 34.1687C670.821 33.965 672.105 33.767 673.389 33.5681C673.955 33.48 674.522 33.3993 675.089 33.3148V33.3148Z" fill="#439934"/>
<path fill-rule="evenodd" clip-rule="evenodd" d="M664.304 60.8787C663.611 60.2831 662.894 59.7137 662.23 59.0873C658.657 55.717 656.043 51.7502 654.756 46.9676C654.402 45.6514 654.165 44.3138 654.089 42.9537C654.036 42.0019 653.959 41.0414 654.026 40.0945C654.205 37.576 654.569 35.0816 655.308 32.6557L655.349 32.5991C655.42 32.6946 655.524 32.7791 655.56 32.8869C656.281 35.0103 656.997 37.1353 657.709 39.2615C659.946 45.9432 662.181 52.6266 664.422 59.3066C664.466 59.437 664.579 59.544 664.661 59.6616L664.304 60.8787V60.8787Z" fill="#45A538"/>
<path fill-rule="evenodd" clip-rule="evenodd" d="M675.089 33.3148C674.522 33.3993 673.954 33.48 673.388 33.5673C672.105 33.7661 670.821 33.9641 669.538 34.1679C668.463 34.3388 667.389 34.5171 666.315 34.693L665.659 34.8057L665.654 34.3773C665.632 34.0252 665.595 33.6735 665.591 33.3214C665.562 31.0758 665.545 28.8303 665.517 26.5847C665.5 25.1791 665.474 23.7739 665.445 22.3687C665.427 21.4956 665.409 20.6221 665.369 19.7502C665.348 19.2816 665.273 18.8155 665.242 18.347C665.225 18.0777 665.248 17.8063 665.254 17.5358C665.589 18.1847 665.916 18.8385 666.26 19.4825C666.804 20.5007 667.671 21.2509 668.451 22.0695C671.535 25.3046 673.724 29.066 675.089 33.3148V33.3148Z" fill="#46A037"/>
<path fill-rule="evenodd" clip-rule="evenodd" d="M665.66 48.8676C665.693 48.8569 665.751 48.8536 665.756 48.8348C665.957 48.1453 666.574 48.2482 667.073 48.1621C668.48 47.9186 669.891 47.6989 671.3 47.4705C672.664 47.2496 674.027 47.0274 675.392 46.813C675.553 46.7876 675.722 46.8085 675.887 46.8081C675.632 47.7181 675.431 48.6478 675.108 49.5329C674.74 50.5367 674.296 51.5165 673.824 52.4769C673.118 53.9094 672.244 55.2529 671.22 56.4789C670.433 57.425 669.557 58.2994 668.678 59.1631C668.192 59.6407 667.619 60.0297 667.086 60.4589L666.948 60.3646L666.451 59.9391L665.936 58.8106C665.584 57.4941 665.392 56.1401 665.364 54.7778L665.374 54.5478L665.444 53.5533C665.467 53.2139 665.498 52.8749 665.513 52.5347C665.566 51.3123 665.611 50.0899 665.66 48.8676V48.8676Z" fill="#409433"/>
<path fill-rule="evenodd" clip-rule="evenodd" d="M665.66 48.8677C665.611 50.0901 665.566 51.3124 665.513 52.5352C665.499 52.8755 665.468 53.2145 665.445 53.5539L665.131 53.6724C664.435 51.6219 663.738 49.5932 663.056 47.5592C661.929 44.1942 660.815 40.8238 659.689 37.458C658.78 34.7412 657.865 32.0266 656.943 29.3141C656.9 29.187 656.776 29.0878 656.69 28.9755L658.697 25.2854C658.766 25.4051 658.857 25.517 658.9 25.6457C659.83 28.393 660.755 31.142 661.675 33.8925C662.87 37.4711 664.058 41.0526 665.252 44.6316C665.3 44.7746 665.379 44.9066 665.454 45.0669L665.728 44.7472L665.66 48.8677V48.8677Z" fill="#4FAA41"/>
<path fill-rule="evenodd" clip-rule="evenodd" d="M656.69 28.9758C656.776 29.0881 656.9 29.1873 656.943 29.3144C657.865 32.0269 658.78 34.7415 659.69 37.4583C660.815 40.8242 661.929 44.1945 663.056 47.5595C663.738 49.5932 664.434 51.6223 665.131 53.6727L665.445 53.5542L665.375 54.5487L665.311 54.7778C665.202 55.8666 665.11 56.9578 664.978 58.0441C664.911 58.5884 664.769 59.123 664.661 59.662C664.58 59.5444 664.466 59.4374 664.422 59.307C662.181 52.6266 659.947 45.9436 657.709 39.2619C656.998 37.1356 656.281 35.0107 655.561 32.8873C655.524 32.7795 655.421 32.695 655.349 32.5995L656.69 28.9758V28.9758Z" fill="#4AA73C"/>
<path fill-rule="evenodd" clip-rule="evenodd" d="M665.728 44.7475L665.453 45.0673C665.378 44.907 665.299 44.7746 665.252 44.6319C664.058 41.0529 662.869 37.4715 661.674 33.8929C660.754 31.1423 659.829 28.3934 658.9 25.6461C658.857 25.5174 658.766 25.4051 658.696 25.2858L661.178 22.0208C661.257 22.1253 661.368 22.2183 661.409 22.336C662.098 24.3532 662.781 26.3729 663.46 28.3938C664.094 30.281 664.719 32.1712 665.36 34.056C665.403 34.1823 665.553 34.2716 665.653 34.3782L665.658 34.8066C665.681 38.1195 665.705 41.4337 665.728 44.7475V44.7475Z" fill="#57AE47"/>
<path fill-rule="evenodd" clip-rule="evenodd" d="M665.654 34.3773C665.554 34.2707 665.404 34.1814 665.361 34.0551C664.72 32.1703 664.095 30.2802 663.461 28.3929C662.782 26.372 662.099 24.3527 661.41 22.3351C661.369 22.2175 661.258 22.1244 661.179 22.0199C661.987 21.2296 662.769 20.4109 663.608 19.6571C664.355 18.9873 664.955 18.2691 664.982 17.2107C664.984 17.1668 665.006 17.123 665.042 17L665.254 17.5354C665.249 17.8063 665.225 18.0773 665.243 18.3466C665.273 18.8151 665.349 19.2812 665.37 19.7497C665.409 20.6216 665.428 21.4952 665.446 22.3683C665.474 23.7735 665.5 25.1787 665.518 26.5843C665.545 28.8299 665.563 31.0754 665.591 33.321C665.595 33.6739 665.632 34.0252 665.654 34.3773V34.3773Z" fill="#60B24F"/>
<path fill-rule="evenodd" clip-rule="evenodd" d="M664.66 59.6616C664.768 59.1226 664.91 58.5876 664.977 58.0437C665.11 56.9578 665.202 55.8662 665.311 54.7774L665.338 54.7733L665.365 54.7778C665.393 56.1402 665.584 57.4942 665.936 58.8106C665.864 58.9057 665.762 58.9906 665.724 59.098C665.426 59.9383 665.145 60.7852 664.845 61.6255C664.804 61.7403 664.69 61.8297 664.61 61.9305L664.304 60.8787L664.66 59.6616V59.6616Z" fill="#A9AA88"/>
<path fill-rule="evenodd" clip-rule="evenodd" d="M664.61 61.9309C664.691 61.8301 664.805 61.7407 664.846 61.626C665.145 60.7856 665.427 59.9391 665.724 59.0984C665.762 58.991 665.864 58.9061 665.937 58.811L666.451 59.94C666.349 60.0842 666.209 60.2142 666.153 60.3749L665.167 63.2685C665.127 63.3845 664.988 63.4665 664.895 63.5645L664.61 61.9309V61.9309Z" fill="#B6B598"/>
<path fill-rule="evenodd" clip-rule="evenodd" d="M664.895 63.564C664.988 63.4664 665.126 63.384 665.167 63.268L666.152 60.3744C666.209 60.2141 666.349 60.0837 666.451 59.9395L666.949 60.3645C666.708 60.6023 666.575 60.8769 666.655 61.2241L666.504 61.7193C666.435 61.8042 666.335 61.878 666.301 61.9751C665.957 62.9602 665.629 63.9505 665.283 64.9356C665.239 65.0606 665.117 65.1586 665.031 65.2684C664.986 64.6999 664.941 64.1325 664.895 63.564V63.564Z" fill="#C2C1A7"/>
<path fill-rule="evenodd" clip-rule="evenodd" d="M665.031 65.2684C665.117 65.1582 665.239 65.0602 665.283 64.9356C665.629 63.951 665.958 62.9606 666.302 61.9751C666.336 61.8784 666.435 61.8042 666.504 61.7194L666.296 63.9924C666.24 64.0567 666.159 64.1129 666.132 64.1879C665.897 64.8495 665.674 65.516 665.438 66.1776C665.389 66.3142 665.296 66.4347 665.223 66.5622C665.158 66.4773 665.042 66.3953 665.037 66.3068C665.016 65.962 665.03 65.6148 665.031 65.2684V65.2684Z" fill="#CECDB7"/>
<path fill-rule="evenodd" clip-rule="evenodd" d="M665.223 66.5622C665.295 66.4343 665.389 66.3138 665.438 66.1777C665.675 65.5165 665.896 64.85 666.132 64.188C666.159 64.1129 666.24 64.0572 666.295 63.9924L666.3 65.4845L665.801 66.7651L665.223 66.5622V66.5622Z" fill="#DBDAC7"/>
<path fill-rule="evenodd" clip-rule="evenodd" d="M665.801 66.7656L666.3 65.485L666.403 67L665.801 66.7656V66.7656Z" fill="#EBE9DC"/>
<path fill-rule="evenodd" clip-rule="evenodd" d="M666.655 61.2246C666.575 60.8774 666.708 60.6023 666.949 60.365L667.087 60.4593L666.655 61.2246V61.2246Z" fill="#CECDB7"/>
<path fill-rule="evenodd" clip-rule="evenodd" d="M665.365 54.7783L665.338 54.7738L665.311 54.7779L665.374 54.5487L665.365 54.7783V54.7783Z" fill="#4FAA41"/>
<path d="M727.165 66.9994C726.495 66.9994 725.83 66.8241 725.244 66.4851L719.126 62.8653C718.213 62.3541 718.659 62.1734 718.959 62.0681C720.179 61.6451 720.425 61.5478 721.726 60.8102C721.862 60.7341 722.041 60.7627 722.181 60.8449L726.88 63.6352C727.051 63.7295 727.291 63.7295 727.449 63.6352L745.77 53.0599C745.942 52.9625 746.051 52.7659 746.051 52.5639V31.4192C746.051 31.2123 745.942 31.0188 745.767 30.9141L727.452 20.3474C727.282 20.2488 727.058 20.2488 726.886 20.3474L708.576 30.9173C708.398 31.0188 708.286 31.2184 708.286 31.4192V52.5639C708.286 52.7659 708.398 52.9577 708.574 53.0538L713.594 55.9536C716.317 57.315 717.986 55.7114 717.986 54.1006V33.2239C717.986 32.9288 718.222 32.6958 718.517 32.6958H720.841C721.131 32.6958 721.371 32.9288 721.371 33.2239V54.1006C721.371 57.735 719.392 59.8194 715.946 59.8194C714.887 59.8194 714.053 59.8194 711.726 58.6723L706.921 55.9062C705.734 55.2204 705 53.9375 705 52.564V31.4193C705 30.0452 705.734 28.763 706.921 28.0795L725.244 17.492C726.403 16.836 727.944 16.836 729.094 17.492L747.416 28.0795C748.603 28.7659 749.34 30.0452 749.34 31.4193V52.564C749.34 53.9375 748.603 55.2156 747.416 55.9062L729.109 66.4857C728.524 66.8247 727.86 67 727.181 67" fill="#83CD29"/>
<path d="M732.821 52.4313C724.802 52.4313 723.122 48.7511 723.122 45.6638C723.122 45.3704 723.359 45.1361 723.652 45.1361H726.022C726.286 45.1361 726.506 45.326 726.548 45.5847C726.905 47.9965 727.972 49.2136 732.821 49.2136C736.68 49.2136 738.323 48.3404 738.323 46.2924C738.323 45.1118 737.857 44.2355 731.859 43.6483C726.846 43.1522 723.745 42.0447 723.745 38.034C723.745 34.3369 726.861 32.1321 732.085 32.1321C737.956 32.1321 740.86 34.1696 741.227 38.5403C741.241 38.6913 741.188 38.8356 741.089 38.9482C740.987 39.0534 740.847 39.1174 740.701 39.1174H738.322C738.076 39.1174 737.857 38.9421 737.808 38.7034C737.237 36.1657 735.849 35.3545 732.085 35.3545C727.871 35.3545 727.382 36.823 727.382 37.9228C727.382 39.2554 727.96 39.6437 733.649 40.3965C739.28 41.1409 741.955 42.1948 741.955 46.1525C741.955 50.1448 738.626 52.4313 732.821 52.4313" fill="#83CD29"/>
<path d="M615.206 33.2059C614.623 33.0053 614.019 32.8154 613.397 32.6359C613.499 32.2186 613.593 31.8068 613.676 31.402C615.046 24.7546 614.15 19.3994 611.093 17.6363C608.161 15.9457 603.367 17.7084 598.524 21.9225C598.059 22.3277 597.592 22.7568 597.125 23.2064C596.814 22.9089 596.503 22.6214 596.194 22.3465C591.119 17.8404 586.032 15.9416 582.978 17.7098C580.049 19.4053 579.181 24.4397 580.414 30.7395C580.533 31.348 580.672 31.9693 580.829 32.6011C580.11 32.8055 579.415 33.0234 578.75 33.2552C572.8 35.3295 569 38.5805 569 41.9527C569 45.4354 573.079 48.9287 579.276 51.0469C579.765 51.214 580.273 51.3721 580.796 51.5221C580.626 52.2055 580.478 52.8751 580.354 53.5282C579.179 59.7186 580.097 64.634 583.018 66.3189C586.035 68.0588 591.099 66.2703 596.03 61.9602C596.42 61.6195 596.811 61.2582 597.202 60.8795C597.71 61.3685 598.217 61.8314 598.722 62.2655C603.498 66.3755 608.215 68.0351 611.133 66.3456C614.148 64.6006 615.127 59.3203 613.855 52.8959C613.758 52.4052 613.645 51.904 613.518 51.3938C613.874 51.2887 614.223 51.1801 614.563 51.0673C621.006 48.9327 625.198 45.482 625.198 41.9527C625.198 38.5683 621.275 35.2954 615.206 33.2059ZM613.808 48.7885C613.501 48.8902 613.186 48.9886 612.865 49.0839C612.153 46.8323 611.193 44.438 610.019 41.9644C611.14 39.5496 612.063 37.186 612.754 34.949C613.329 35.1153 613.887 35.2908 614.424 35.4759C619.625 37.2662 622.797 39.9131 622.797 41.9527C622.797 44.1251 619.371 46.9453 613.808 48.7885ZM611.5 53.3621C612.063 56.2029 612.143 58.7713 611.771 60.7791C611.436 62.5833 610.763 63.7862 609.93 64.2679C608.159 65.293 604.372 63.9605 600.287 60.4456C599.819 60.0427 599.348 59.6125 598.874 59.1571C600.458 57.4253 602.04 55.412 603.585 53.176C606.302 52.9349 608.869 52.5408 611.196 52.0027C611.311 52.4651 611.413 52.9187 611.5 53.3621ZM588.159 64.0908C586.429 64.7018 585.051 64.7194 584.218 64.239C582.445 63.2166 581.708 59.27 582.713 53.9759C582.828 53.3696 582.965 52.7468 583.123 52.1102C585.425 52.6193 587.973 52.9856 590.697 53.2064C592.252 55.3943 593.88 57.4055 595.521 59.1664C595.162 59.5125 594.805 59.842 594.45 60.1525C592.27 62.0584 590.085 63.4106 588.159 64.0908ZM580.053 48.7752C577.312 47.8386 575.049 46.6213 573.498 45.293C572.104 44.0993 571.401 42.9143 571.401 41.9527C571.401 39.9063 574.451 37.2962 579.54 35.5222C580.157 35.3069 580.803 35.104 581.474 34.9135C582.177 37.201 583.1 39.5926 584.213 42.0111C583.085 44.4654 582.15 46.8952 581.44 49.2095C580.962 49.0721 580.498 48.9274 580.053 48.7752ZM582.77 30.2784C581.714 24.8809 582.415 20.8093 584.18 19.7876C586.06 18.6991 590.218 20.251 594.6 24.1417C594.88 24.3904 595.161 24.6507 595.443 24.92C593.81 26.6732 592.197 28.6692 590.655 30.8443C588.012 31.0893 585.482 31.4828 583.156 32.0098C583.01 31.4215 582.881 30.8435 582.77 30.2784ZM607.011 36.2642C606.455 35.3037 605.884 34.3659 605.302 33.4537C607.095 33.6804 608.813 33.9813 610.427 34.3495C609.942 35.9018 609.338 37.5248 608.628 39.1886C608.118 38.2208 607.579 37.245 607.011 36.2642ZM597.126 26.6357C598.233 27.8354 599.342 29.1748 600.433 30.628C599.334 30.5761 598.221 30.5491 597.099 30.5491C595.988 30.5491 594.883 30.5755 593.791 30.6265C594.882 29.1868 596.001 27.8492 597.126 26.6357ZM587.177 36.2808C586.621 37.244 586.092 38.2145 585.59 39.1868C584.891 37.5288 584.293 35.8984 583.805 34.3241C585.408 33.9653 587.118 33.6719 588.9 33.4495C588.309 34.3701 587.734 35.3148 587.177 36.2806V36.2808ZM588.951 50.6271C587.11 50.4217 585.375 50.1434 583.772 49.7945C584.268 48.1921 584.879 46.5269 585.593 44.8332C586.096 45.8048 586.627 46.7757 587.186 47.741H587.186C587.756 48.7244 588.346 49.6877 588.951 50.6271ZM597.192 57.4389C596.054 56.2112 594.919 54.8532 593.811 53.3924C594.887 53.4346 595.984 53.4562 597.099 53.4562C598.244 53.4562 599.377 53.4304 600.491 53.3808C599.397 54.8679 598.292 56.228 597.192 57.4389ZM608.651 44.7468C609.402 46.4589 610.035 48.1154 610.538 49.6905C608.908 50.0622 607.149 50.3616 605.296 50.584C605.879 49.6596 606.455 48.7057 607.021 47.7245C607.593 46.7317 608.137 45.7375 608.651 44.7468ZM604.941 46.5251C604.063 48.0483 603.161 49.5023 602.245 50.8748C600.578 50.9941 598.855 51.0555 597.099 51.0555C595.35 51.0555 593.649 51.0012 592.011 50.8948C591.058 49.5043 590.137 48.046 589.264 46.5382H589.264C588.394 45.0345 587.592 43.5181 586.866 42.0103C587.592 40.4989 588.391 38.9808 589.257 37.4799L589.257 37.4802C590.124 35.9752 591.038 34.5239 591.982 33.1421C593.653 33.0158 595.367 32.9499 597.099 32.9499H597.099C598.839 32.9499 600.555 33.0163 602.226 33.1437C603.155 34.5154 604.062 35.962 604.933 37.4672C605.814 38.9892 606.624 40.4972 607.356 41.9762C606.626 43.4805 605.818 45.0037 604.941 46.5251ZM609.894 19.7161C611.776 20.8014 612.507 25.1781 611.325 30.9174C611.25 31.2836 611.165 31.6567 611.072 32.0347C608.741 31.4967 606.209 31.0964 603.558 30.8477C602.014 28.6487 600.414 26.6496 598.808 24.9189C599.24 24.5034 599.671 24.1073 600.1 23.7335C604.249 20.1229 608.127 18.6973 609.894 19.7161ZM597.099 36.9344C599.87 36.9344 602.117 39.1811 602.117 41.9527C602.117 44.7241 599.87 46.9709 597.099 46.9709C594.327 46.9709 592.081 44.7241 592.081 41.9527C592.081 39.1811 594.327 36.9344 597.099 36.9344Z" fill="#00D8FF"/>
<path d="M539.985 17H490.015C490.007 17 490 17.0066 490 17.0146V66.9854C490 66.9934 490.007 67 490.015 67H539.985C539.993 67 540 66.9934 540 66.9854V17.0146C540 17.0066 539.993 17 539.985 17Z" fill="#CC6699"/>
<path d="M515.195 25.5938C505.82 28.8165 499.766 35.3594 500.352 39.2657C500.938 43.1719 506.797 46.2969 509.434 48.3477C506.016 50.1055 501.719 52.7422 501.816 56.1602C502.012 60.8477 507.09 59.3829 509.238 58.0157C511.387 56.6485 513.535 52.8399 512.168 48.836C515.195 48.0547 517.832 49.0313 518.613 49.6172C521.641 51.7657 520.078 54.2071 519.004 54.5977C517.93 54.9883 518.613 55.1837 519.297 54.9883C519.98 54.793 521.445 53.8165 521.445 52.1563C521.445 47.9571 516.953 46.004 511.387 47.4688C508.164 44.0508 503.77 42.4883 503.965 38.7774C504.063 37.4102 504.551 33.8946 513.242 29.5001C521.934 25.1055 528.086 26.8633 527.305 30.8672C526.133 36.9219 515.586 41.0235 511.875 37.5079C511.68 37.1172 510.996 36.8243 511.387 37.8985C513.34 42.7813 529.16 40.5352 529.844 30.1837C530.039 24.7149 522.129 23.2501 515.195 25.5938ZM506.797 56.8438C504.355 57.6251 504.453 56.0626 504.551 55.4766C504.844 53.8165 506.211 51.7657 510.313 49.7149C511.484 53.4258 508.848 56.2579 506.797 56.8438Z" fill="white"/>
</svg>
