<svg width="254" height="19" viewBox="0 0 254 19" fill="none" xmlns="http://www.w3.org/2000/svg">
<path d="M4.87729 1.706C4.02529 2.03 3.36529 2.534 2.89729 3.218C2.42929 3.89 2.19529 4.718 2.19529 5.702C2.19529 6.146 2.23729 6.458 2.32129 6.638C2.40529 6.806 2.44729 6.902 2.44729 6.926C1.79929 6.926 1.31329 6.794 0.989292 6.53C0.677292 6.254 0.521292 5.804 0.521292 5.18C0.521292 4.412 0.833292 3.668 1.45729 2.948C2.09329 2.216 2.90329 1.628 3.88729 1.184C4.87129 0.727999 5.85529 0.499999 6.83929 0.499999C7.00729 0.499999 7.24729 0.511999 7.55929 0.536L7.72129 11.606L11.5013 0.589999H13.7873L13.9493 11.606L17.7293 0.589999H18.9893L13.9853 14H11.3933L11.1773 4.838L7.75729 14H5.16529L4.87729 1.706ZM20.3017 14.108C19.4137 14.108 18.7237 13.88 18.2317 13.424C17.7397 12.956 17.4937 12.23 17.4937 11.246C17.4937 10.418 17.6557 9.506 17.9797 8.51C18.3037 7.514 18.8317 6.656 19.5637 5.936C20.2957 5.204 21.2257 4.838 22.3537 4.838C23.6737 4.838 24.3337 5.414 24.3337 6.566C24.3337 7.238 24.1417 7.856 23.7577 8.42C23.3737 8.984 22.8637 9.44 22.2277 9.788C21.5917 10.124 20.9137 10.316 20.1937 10.364C20.1697 10.724 20.1577 10.964 20.1577 11.084C20.1577 11.672 20.2597 12.074 20.4637 12.29C20.6677 12.494 20.9977 12.596 21.4537 12.596C22.1017 12.596 22.6537 12.446 23.1097 12.146C23.5777 11.846 24.0877 11.39 24.6397 10.778H25.2517C23.9197 12.998 22.2697 14.108 20.3017 14.108ZM20.3377 9.5C20.7817 9.476 21.2017 9.32 21.5977 9.032C22.0057 8.744 22.3297 8.378 22.5697 7.934C22.8217 7.49 22.9477 7.022 22.9477 6.53C22.9477 6.038 22.7977 5.792 22.4977 5.792C22.0657 5.792 21.6397 6.17 21.2197 6.926C20.8117 7.682 20.5177 8.54 20.3377 9.5ZM26.4179 14.108C25.8419 14.108 25.3739 13.928 25.0139 13.568C24.6659 13.208 24.4919 12.668 24.4919 11.948C24.4919 11.648 24.5399 11.258 24.6359 10.778L26.5619 1.76L29.2259 1.4L27.1559 11.12C27.1079 11.3 27.0839 11.492 27.0839 11.696C27.0839 11.936 27.1379 12.11 27.2459 12.218C27.3659 12.314 27.5579 12.362 27.8219 12.362C28.1699 12.362 28.4939 12.218 28.7939 11.93C29.0939 11.63 29.3099 11.246 29.4419 10.778H30.1979C29.7539 12.074 29.1839 12.956 28.4879 13.424C27.7919 13.88 27.1019 14.108 26.4179 14.108ZM32.0088 14.108C31.1208 14.108 30.4308 13.88 29.9388 13.424C29.4468 12.956 29.2008 12.23 29.2008 11.246C29.2008 10.418 29.3628 9.506 29.6868 8.51C30.0228 7.514 30.5508 6.656 31.2708 5.936C32.0028 5.204 32.9268 4.838 34.0428 4.838C34.7628 4.838 35.2728 4.994 35.5728 5.306C35.8848 5.618 36.0408 6.014 36.0408 6.494C36.0408 6.914 35.9508 7.238 35.7708 7.466C35.5908 7.694 35.3628 7.808 35.0868 7.808C34.8828 7.808 34.6728 7.736 34.4568 7.592C34.6008 7.196 34.6728 6.842 34.6728 6.53C34.6728 6.302 34.6308 6.122 34.5468 5.99C34.4628 5.858 34.3368 5.792 34.1688 5.792C33.8088 5.792 33.4488 6.086 33.0888 6.674C32.7288 7.262 32.4348 7.976 32.2068 8.816C31.9788 9.656 31.8648 10.412 31.8648 11.084C31.8648 11.672 31.9668 12.074 32.1708 12.29C32.3748 12.494 32.7048 12.596 33.1608 12.596C33.8088 12.596 34.3608 12.446 34.8168 12.146C35.2848 11.846 35.7948 11.39 36.3468 10.778H36.9588C35.6268 12.998 33.9768 14.108 32.0088 14.108ZM38.971 14.072C38.083 14.072 37.381 13.844 36.865 13.388C36.349 12.932 36.091 12.212 36.091 11.228C36.091 10.412 36.259 9.506 36.595 8.51C36.931 7.514 37.471 6.656 38.215 5.936C38.959 5.204 39.895 4.838 41.023 4.838C42.559 4.838 43.327 5.798 43.327 7.718V7.736C43.363 7.748 43.429 7.754 43.525 7.754C43.921 7.754 44.377 7.652 44.893 7.448C45.409 7.232 45.877 6.974 46.297 6.674L46.459 7.16C46.111 7.532 45.655 7.85 45.091 8.114C44.539 8.366 43.933 8.546 43.273 8.654C43.177 9.746 42.931 10.7 42.535 11.516C42.139 12.332 41.629 12.962 41.005 13.406C40.381 13.85 39.703 14.072 38.971 14.072ZM39.691 12.452C39.979 12.452 40.267 12.29 40.555 11.966C40.843 11.63 41.095 11.18 41.311 10.616C41.527 10.04 41.683 9.404 41.779 8.708C41.455 8.636 41.293 8.384 41.293 7.952C41.293 7.46 41.479 7.136 41.851 6.98C41.827 6.584 41.767 6.314 41.671 6.17C41.575 6.014 41.407 5.936 41.167 5.936C40.771 5.936 40.387 6.224 40.015 6.8C39.643 7.376 39.343 8.066 39.115 8.87C38.887 9.674 38.773 10.382 38.773 10.994C38.773 11.57 38.839 11.96 38.971 12.164C39.103 12.356 39.343 12.452 39.691 12.452ZM55.1971 14.108C54.4651 14.108 53.9251 13.916 53.5771 13.532C53.2411 13.136 53.0731 12.65 53.0731 12.074C53.0731 11.822 53.1031 11.54 53.1631 11.228C53.2231 10.904 53.2831 10.592 53.3431 10.292C53.4151 9.992 53.4631 9.8 53.4871 9.716C53.5831 9.296 53.6731 8.882 53.7571 8.474C53.8411 8.066 53.8831 7.736 53.8831 7.484C53.8831 6.872 53.6671 6.566 53.2351 6.566C52.9231 6.566 52.6471 6.722 52.4071 7.034C52.1671 7.334 51.9751 7.73 51.8311 8.222L50.6071 14H48.0151L49.3291 7.79C49.3651 7.646 49.3831 7.496 49.3831 7.34C49.3831 6.812 49.2031 6.548 48.8431 6.548C48.5071 6.548 48.2131 6.704 47.9611 7.016C47.7211 7.316 47.5291 7.718 47.3851 8.222L46.1611 14H43.5691L45.4771 5H48.0691L47.8711 5.936C48.4831 5.252 49.2151 4.91 50.0671 4.91C51.1231 4.91 51.7411 5.426 51.9211 6.458C52.5811 5.438 53.4151 4.928 54.4231 4.928C55.0351 4.928 55.5211 5.096 55.8811 5.432C56.2411 5.768 56.4211 6.278 56.4211 6.962C56.4211 7.31 56.3791 7.7 56.2951 8.132C56.2111 8.552 56.0911 9.068 55.9351 9.68C55.8391 10.052 55.7491 10.418 55.6651 10.778C55.5931 11.126 55.5571 11.402 55.5571 11.606C55.5571 11.846 55.6111 12.032 55.7191 12.164C55.8271 12.296 56.0131 12.362 56.2771 12.362C56.6371 12.362 56.9251 12.236 57.1411 11.984C57.3571 11.72 57.5731 11.318 57.7891 10.778H58.5451C58.1011 12.098 57.5851 12.986 56.9971 13.442C56.4211 13.886 55.8211 14.108 55.1971 14.108ZM60.3263 14.108C59.4503 14.108 58.7663 13.88 58.2743 13.424C57.7823 12.956 57.5363 12.23 57.5363 11.246C57.5363 10.418 57.6983 9.506 58.0223 8.51C58.3463 7.514 58.8743 6.656 59.6063 5.936C60.3383 5.204 61.2683 4.838 62.3963 4.838C63.7163 4.838 64.3763 5.414 64.3763 6.566C64.3763 7.238 64.1843 7.856 63.8003 8.42C63.4163 8.984 62.9063 9.44 62.2703 9.788C61.6343 10.124 60.9563 10.316 60.2363 10.364C60.2123 10.628 60.2003 10.808 60.2003 10.904C60.2003 11.9 60.5723 12.398 61.3163 12.398C61.6523 12.398 62.0123 12.308 62.3963 12.128C62.7803 11.948 63.1283 11.72 63.4403 11.444C63.1163 13.22 62.0783 14.108 60.3263 14.108ZM60.3623 9.5C60.8183 9.488 61.2443 9.338 61.6403 9.05C62.0483 8.762 62.3723 8.396 62.6123 7.952C62.8643 7.496 62.9903 7.022 62.9903 6.53C62.9903 6.038 62.8403 5.792 62.5403 5.792C62.1203 5.792 61.7003 6.176 61.2803 6.944C60.8723 7.7 60.5663 8.552 60.3623 9.5ZM70.0644 14.108C69.4884 14.108 69.0204 13.928 68.6604 13.568C68.3124 13.208 68.1384 12.668 68.1384 11.948C68.1384 11.648 68.1864 11.258 68.2824 10.778L69.3624 5.72H68.7684L68.9124 5H69.5064L70.0464 2.516L72.7104 2.156L72.0984 5H73.1784L73.0344 5.72H71.9544L70.8024 11.12C70.7544 11.3 70.7304 11.492 70.7304 11.696C70.7304 11.936 70.7844 12.11 70.8924 12.218C71.0124 12.314 71.2044 12.362 71.4684 12.362C71.8164 12.362 72.1404 12.218 72.4404 11.93C72.7404 11.63 72.9564 11.246 73.0884 10.778H73.8444C73.4004 12.074 72.8304 12.956 72.1344 13.424C71.4384 13.88 70.7484 14.108 70.0644 14.108ZM75.7093 14.072C74.8213 14.072 74.1193 13.844 73.6033 13.388C73.0873 12.932 72.8293 12.212 72.8293 11.228C72.8293 10.4 72.9913 9.494 73.3153 8.51C73.6393 7.514 74.1673 6.656 74.8993 5.936C75.6313 5.204 76.5673 4.838 77.7073 4.838C79.1233 4.838 79.8853 5.648 79.9933 7.268C80.2573 7.208 80.4913 7.064 80.6953 6.836C80.8993 6.596 81.0913 6.326 81.2713 6.026H81.8473C81.5233 6.674 81.2353 7.184 80.9833 7.556C80.7313 7.916 80.4013 8.21 79.9933 8.438C79.9213 9.566 79.6873 10.556 79.2913 11.408C78.9073 12.26 78.4033 12.92 77.7793 13.388C77.1553 13.844 76.4653 14.072 75.7093 14.072ZM76.4293 12.452C76.8733 12.452 77.2873 12.092 77.6713 11.372C78.0553 10.652 78.3193 9.764 78.4633 8.708C78.1753 8.6 78.0313 8.33 78.0313 7.898C78.0313 7.43 78.1993 7.118 78.5353 6.962C78.5113 6.578 78.4453 6.314 78.3373 6.17C78.2413 6.014 78.0793 5.936 77.8513 5.936C77.4553 5.936 77.0773 6.224 76.7173 6.8C76.3573 7.364 76.0633 8.054 75.8353 8.87C75.6193 9.674 75.5113 10.382 75.5113 10.994C75.5113 11.57 75.5773 11.96 75.7093 12.164C75.8413 12.356 76.0813 12.452 76.4293 12.452ZM89.1931 14.324C88.1011 14.324 87.2731 14.024 86.7091 13.424C86.1571 12.824 85.8811 12.068 85.8811 11.156C85.8811 10.508 86.0131 9.86 86.2771 9.212C86.5531 8.552 86.9431 7.976 87.4471 7.484C87.9511 6.992 88.5391 6.662 89.2111 6.494C88.8391 6.23 88.5631 5.912 88.3831 5.54C88.2031 5.156 88.1131 4.754 88.1131 4.334C88.1131 3.71 88.2811 3.098 88.6171 2.498C88.9651 1.898 89.4391 1.412 90.0391 1.04C90.6511 0.655999 91.3231 0.463999 92.0551 0.463999C92.8111 0.463999 93.4291 0.661999 93.9091 1.058C94.3891 1.454 94.6291 2.006 94.6291 2.714C94.6291 3.242 94.4971 3.686 94.2331 4.046C93.9691 4.406 93.6571 4.586 93.2971 4.586C92.9731 4.586 92.6911 4.424 92.4511 4.1C92.6671 4.028 92.8531 3.83 93.0091 3.506C93.1651 3.182 93.2431 2.858 93.2431 2.534C93.2431 2.186 93.1471 1.934 92.9551 1.778C92.7631 1.61 92.5291 1.526 92.2531 1.526C91.9051 1.526 91.5871 1.652 91.2991 1.904C91.0231 2.144 90.8071 2.462 90.6511 2.858C90.4951 3.242 90.4171 3.644 90.4171 4.064C90.4171 4.64 90.5671 5.15 90.8671 5.594C91.1671 6.026 91.6231 6.32 92.2351 6.476C91.6231 6.608 91.0711 6.908 90.5791 7.376C90.0871 7.844 89.7031 8.39 89.4271 9.014C89.1511 9.626 89.0131 10.214 89.0131 10.778C89.0131 11.318 89.1511 11.756 89.4271 12.092C89.7151 12.428 90.1471 12.596 90.7231 12.596C91.3231 12.596 91.9471 12.434 92.5951 12.11C93.2551 11.774 93.7411 11.324 94.0531 10.76L94.4671 10.94C93.9991 11.972 93.2791 12.794 92.3071 13.406C91.3351 14.018 90.2971 14.324 89.1931 14.324ZM95.7988 14.108C95.2228 14.108 94.7548 13.928 94.3948 13.568C94.0468 13.208 93.8728 12.668 93.8728 11.948C93.8728 11.648 93.9208 11.258 94.0168 10.778L95.9428 1.76L98.6068 1.4L96.5368 11.12C96.4888 11.3 96.4648 11.492 96.4648 11.696C96.4648 11.936 96.5188 12.11 96.6268 12.218C96.7468 12.314 96.9388 12.362 97.2028 12.362C97.5508 12.362 97.8748 12.218 98.1748 11.93C98.4748 11.63 98.6908 11.246 98.8228 10.778H99.5788C99.1348 12.074 98.5648 12.956 97.8688 13.424C97.1728 13.88 96.4828 14.108 95.7988 14.108ZM104.864 0.499999H106.754L104.576 3.902H103.226L104.864 0.499999ZM100.976 14.108C100.292 14.108 99.7216 13.874 99.2656 13.406C98.8096 12.938 98.5816 12.206 98.5816 11.21C98.5816 10.322 98.7556 9.392 99.1036 8.42C99.4636 7.436 99.9916 6.608 100.688 5.936C101.396 5.252 102.236 4.91 103.208 4.91C103.7 4.91 104.066 4.994 104.306 5.162C104.546 5.33 104.666 5.552 104.666 5.828V5.954L104.864 5H107.456L106.16 11.12C106.112 11.3 106.088 11.492 106.088 11.696C106.088 12.212 106.334 12.47 106.826 12.47C107.162 12.47 107.45 12.314 107.69 12.002C107.942 11.69 108.14 11.282 108.284 10.778H109.04C108.596 12.074 108.044 12.956 107.384 13.424C106.736 13.88 106.082 14.108 105.422 14.108C104.918 14.108 104.51 13.97 104.198 13.694C103.898 13.406 103.718 12.992 103.658 12.452C103.31 12.944 102.92 13.346 102.488 13.658C102.068 13.958 101.564 14.108 100.976 14.108ZM102.146 12.362C102.446 12.362 102.74 12.224 103.028 11.948C103.328 11.66 103.532 11.27 103.64 10.778L104.504 6.71C104.504 6.554 104.444 6.404 104.324 6.26C104.204 6.104 104.018 6.026 103.766 6.026C103.286 6.026 102.854 6.308 102.47 6.872C102.086 7.424 101.786 8.096 101.57 8.888C101.354 9.668 101.246 10.358 101.246 10.958C101.246 11.558 101.33 11.942 101.498 12.11C101.678 12.278 101.894 12.362 102.146 12.362ZM110.45 14.108C109.766 14.108 109.196 13.874 108.74 13.406C108.284 12.938 108.056 12.206 108.056 11.21C108.056 10.322 108.23 9.392 108.578 8.42C108.938 7.436 109.466 6.608 110.162 5.936C110.87 5.252 111.71 4.91 112.682 4.91C113.174 4.91 113.54 4.994 113.78 5.162C114.02 5.33 114.14 5.552 114.14 5.828V5.9L115.022 1.76L117.686 1.4L115.616 11.12C115.568 11.3 115.544 11.492 115.544 11.696C115.544 11.936 115.598 12.11 115.706 12.218C115.826 12.314 116.018 12.362 116.282 12.362C116.618 12.362 116.906 12.218 117.146 11.93C117.398 11.642 117.596 11.258 117.74 10.778H118.496C117.764 12.926 116.558 14 114.878 14C114.386 14 113.984 13.868 113.672 13.604C113.372 13.34 113.186 12.956 113.114 12.452C112.802 12.932 112.424 13.328 111.98 13.64C111.548 13.952 111.038 14.108 110.45 14.108ZM111.62 12.362C111.908 12.362 112.196 12.23 112.484 11.966C112.784 11.702 112.988 11.336 113.096 10.868V10.778L113.978 6.656C113.87 6.236 113.624 6.026 113.24 6.026C112.76 6.026 112.328 6.308 111.944 6.872C111.56 7.424 111.26 8.096 111.044 8.888C110.828 9.668 110.72 10.358 110.72 10.958C110.72 11.558 110.804 11.942 110.972 12.11C111.152 12.278 111.368 12.362 111.62 12.362ZM120.753 4.028C120.357 4.028 120.021 3.89 119.745 3.614C119.469 3.338 119.331 3.002 119.331 2.606C119.331 2.21 119.469 1.874 119.745 1.598C120.021 1.31 120.357 1.166 120.753 1.166C121.149 1.166 121.485 1.31 121.761 1.598C122.049 1.874 122.193 2.21 122.193 2.606C122.193 3.002 122.049 3.338 121.761 3.614C121.485 3.89 121.149 4.028 120.753 4.028ZM119.529 14.108C118.953 14.108 118.485 13.928 118.125 13.568C117.777 13.208 117.603 12.668 117.603 11.948C117.603 11.648 117.651 11.258 117.747 10.778L118.971 5H121.563L120.267 11.12C120.219 11.3 120.195 11.492 120.195 11.696C120.195 11.936 120.249 12.11 120.357 12.218C120.477 12.314 120.669 12.362 120.933 12.362C121.281 12.362 121.605 12.218 121.905 11.93C122.205 11.63 122.421 11.246 122.553 10.778H123.309C122.865 12.074 122.295 12.956 121.599 13.424C120.903 13.88 120.213 14.108 119.529 14.108ZM125.174 14.072C124.286 14.072 123.584 13.844 123.068 13.388C122.552 12.932 122.294 12.212 122.294 11.228C122.294 10.4 122.456 9.494 122.78 8.51C123.104 7.514 123.632 6.656 124.364 5.936C125.096 5.204 126.032 4.838 127.172 4.838C128.588 4.838 129.35 5.648 129.458 7.268C129.722 7.208 129.956 7.064 130.16 6.836C130.364 6.596 130.556 6.326 130.736 6.026H131.312C130.988 6.674 130.7 7.184 130.448 7.556C130.196 7.916 129.866 8.21 129.458 8.438C129.386 9.566 129.152 10.556 128.756 11.408C128.372 12.26 127.868 12.92 127.244 13.388C126.62 13.844 125.93 14.072 125.174 14.072ZM125.894 12.452C126.338 12.452 126.752 12.092 127.136 11.372C127.52 10.652 127.784 9.764 127.928 8.708C127.64 8.6 127.496 8.33 127.496 7.898C127.496 7.43 127.664 7.118 128 6.962C127.976 6.578 127.91 6.314 127.802 6.17C127.706 6.014 127.544 5.936 127.316 5.936C126.92 5.936 126.542 6.224 126.182 6.8C125.822 7.364 125.528 8.054 125.3 8.87C125.084 9.674 124.976 10.382 124.976 10.994C124.976 11.57 125.042 11.96 125.174 12.164C125.306 12.356 125.546 12.452 125.894 12.452ZM139.504 14.288C138.148 14.288 137.152 13.946 136.516 13.262C135.88 12.578 135.562 11.444 135.562 9.86C135.562 8.6 135.772 7.244 136.192 5.792C136.624 4.34 137.308 3.098 138.244 2.066C139.192 1.022 140.392 0.499999 141.844 0.499999C142.744 0.499999 143.47 0.697999 144.022 1.094C144.574 1.49 144.85 2.096 144.85 2.912C144.85 3.428 144.748 3.836 144.544 4.136C144.34 4.424 144.022 4.568 143.59 4.568C143.158 4.568 142.816 4.412 142.564 4.1C142.78 3.992 142.972 3.776 143.14 3.452C143.308 3.128 143.392 2.792 143.392 2.444C143.392 2.12 143.302 1.856 143.122 1.652C142.954 1.448 142.678 1.346 142.294 1.346C141.658 1.346 141.052 1.784 140.476 2.66C139.9 3.524 139.432 4.616 139.072 5.936C138.724 7.256 138.55 8.528 138.55 9.752C138.55 10.664 138.706 11.36 139.018 11.84C139.33 12.32 139.894 12.56 140.71 12.56C141.418 12.56 142.072 12.404 142.672 12.092C143.272 11.78 143.788 11.336 144.22 10.76L144.634 10.94C144.334 11.696 143.89 12.326 143.302 12.83C142.714 13.334 142.084 13.706 141.412 13.946C140.74 14.174 140.104 14.288 139.504 14.288ZM145.949 14.108C145.373 14.108 144.905 13.928 144.545 13.568C144.197 13.208 144.023 12.668 144.023 11.948C144.023 11.648 144.071 11.258 144.167 10.778L146.093 1.76L148.757 1.4L146.687 11.12C146.639 11.3 146.615 11.492 146.615 11.696C146.615 11.936 146.669 12.11 146.777 12.218C146.897 12.314 147.089 12.362 147.353 12.362C147.701 12.362 148.025 12.218 148.325 11.93C148.625 11.63 148.841 11.246 148.973 10.778H149.729C149.285 12.074 148.715 12.956 148.019 13.424C147.323 13.88 146.633 14.108 145.949 14.108ZM155.014 0.499999H156.904L154.726 3.902H153.376L155.014 0.499999ZM151.126 14.108C150.442 14.108 149.872 13.874 149.416 13.406C148.96 12.938 148.732 12.206 148.732 11.21C148.732 10.322 148.906 9.392 149.254 8.42C149.614 7.436 150.142 6.608 150.838 5.936C151.546 5.252 152.386 4.91 153.358 4.91C153.85 4.91 154.216 4.994 154.456 5.162C154.696 5.33 154.816 5.552 154.816 5.828V5.954L155.014 5H157.606L156.31 11.12C156.262 11.3 156.238 11.492 156.238 11.696C156.238 12.212 156.484 12.47 156.976 12.47C157.312 12.47 157.6 12.314 157.84 12.002C158.092 11.69 158.29 11.282 158.434 10.778H159.19C158.746 12.074 158.194 12.956 157.534 13.424C156.886 13.88 156.232 14.108 155.572 14.108C155.068 14.108 154.66 13.97 154.348 13.694C154.048 13.406 153.868 12.992 153.808 12.452C153.46 12.944 153.07 13.346 152.638 13.658C152.218 13.958 151.714 14.108 151.126 14.108ZM152.296 12.362C152.596 12.362 152.89 12.224 153.178 11.948C153.478 11.66 153.682 11.27 153.79 10.778L154.654 6.71C154.654 6.554 154.594 6.404 154.474 6.26C154.354 6.104 154.168 6.026 153.916 6.026C153.436 6.026 153.004 6.308 152.62 6.872C152.236 7.424 151.936 8.096 151.72 8.888C151.504 9.668 151.396 10.358 151.396 10.958C151.396 11.558 151.48 11.942 151.648 12.11C151.828 12.278 152.044 12.362 152.296 12.362ZM160.223 14.108C159.647 14.108 159.179 13.928 158.819 13.568C158.471 13.208 158.297 12.668 158.297 11.948C158.297 11.648 158.345 11.258 158.441 10.778L159.665 5H162.257L160.961 11.12C160.925 11.3 160.907 11.468 160.907 11.624C160.907 12.116 161.087 12.362 161.447 12.362C161.783 12.362 162.071 12.224 162.311 11.948C162.551 11.66 162.743 11.27 162.887 10.778L164.111 5H166.703L165.407 11.12C165.359 11.3 165.335 11.492 165.335 11.696C165.335 11.936 165.389 12.11 165.497 12.218C165.617 12.314 165.809 12.362 166.073 12.362C166.409 12.362 166.697 12.218 166.937 11.93C167.189 11.642 167.387 11.258 167.531 10.778H168.287C167.843 12.074 167.291 12.956 166.631 13.424C165.983 13.88 165.329 14.108 164.669 14.108C164.153 14.108 163.739 13.964 163.427 13.676C163.127 13.388 162.947 12.962 162.887 12.398C162.479 13.058 162.047 13.508 161.591 13.748C161.147 13.988 160.691 14.108 160.223 14.108ZM169.689 14.108C169.005 14.108 168.435 13.874 167.979 13.406C167.523 12.938 167.295 12.206 167.295 11.21C167.295 10.322 167.469 9.392 167.817 8.42C168.177 7.436 168.705 6.608 169.401 5.936C170.109 5.252 170.949 4.91 171.921 4.91C172.413 4.91 172.779 4.994 173.019 5.162C173.259 5.33 173.379 5.552 173.379 5.828V5.9L174.261 1.76L176.925 1.4L174.855 11.12C174.807 11.3 174.783 11.492 174.783 11.696C174.783 11.936 174.837 12.11 174.945 12.218C175.065 12.314 175.257 12.362 175.521 12.362C175.857 12.362 176.145 12.218 176.385 11.93C176.637 11.642 176.835 11.258 176.979 10.778H177.735C177.003 12.926 175.797 14 174.117 14C173.625 14 173.223 13.868 172.911 13.604C172.611 13.34 172.425 12.956 172.353 12.452C172.041 12.932 171.663 13.328 171.219 13.64C170.787 13.952 170.277 14.108 169.689 14.108ZM170.859 12.362C171.147 12.362 171.435 12.23 171.723 11.966C172.023 11.702 172.227 11.336 172.335 10.868V10.778L173.217 6.656C173.109 6.236 172.863 6.026 172.479 6.026C171.999 6.026 171.567 6.308 171.183 6.872C170.799 7.424 170.499 8.096 170.283 8.888C170.067 9.668 169.959 10.358 169.959 10.958C169.959 11.558 170.043 11.942 170.211 12.11C170.391 12.278 170.607 12.362 170.859 12.362ZM179.992 4.028C179.596 4.028 179.26 3.89 178.984 3.614C178.708 3.338 178.57 3.002 178.57 2.606C178.57 2.21 178.708 1.874 178.984 1.598C179.26 1.31 179.596 1.166 179.992 1.166C180.388 1.166 180.724 1.31 181 1.598C181.288 1.874 181.432 2.21 181.432 2.606C181.432 3.002 181.288 3.338 181 3.614C180.724 3.89 180.388 4.028 179.992 4.028ZM178.768 14.108C178.192 14.108 177.724 13.928 177.364 13.568C177.016 13.208 176.842 12.668 176.842 11.948C176.842 11.648 176.89 11.258 176.986 10.778L178.21 5H180.802L179.506 11.12C179.458 11.3 179.434 11.492 179.434 11.696C179.434 11.936 179.488 12.11 179.596 12.218C179.716 12.314 179.908 12.362 180.172 12.362C180.52 12.362 180.844 12.218 181.144 11.93C181.444 11.63 181.66 11.246 181.792 10.778H182.548C182.104 12.074 181.534 12.956 180.838 13.424C180.142 13.88 179.452 14.108 178.768 14.108ZM184.412 14.072C183.524 14.072 182.822 13.844 182.306 13.388C181.79 12.932 181.532 12.212 181.532 11.228C181.532 10.4 181.694 9.494 182.018 8.51C182.342 7.514 182.87 6.656 183.602 5.936C184.334 5.204 185.27 4.838 186.41 4.838C187.826 4.838 188.588 5.648 188.696 7.268C188.96 7.208 189.194 7.064 189.398 6.836C189.602 6.596 189.794 6.326 189.974 6.026H190.55C190.226 6.674 189.938 7.184 189.686 7.556C189.434 7.916 189.104 8.21 188.696 8.438C188.624 9.566 188.39 10.556 187.994 11.408C187.61 12.26 187.106 12.92 186.482 13.388C185.858 13.844 185.168 14.072 184.412 14.072ZM185.132 12.452C185.576 12.452 185.99 12.092 186.374 11.372C186.758 10.652 187.022 9.764 187.166 8.708C186.878 8.6 186.734 8.33 186.734 7.898C186.734 7.43 186.902 7.118 187.238 6.962C187.214 6.578 187.148 6.314 187.04 6.17C186.944 6.014 186.782 5.936 186.554 5.936C186.158 5.936 185.78 6.224 185.42 6.8C185.06 7.364 184.766 8.054 184.538 8.87C184.322 9.674 184.214 10.382 184.214 10.994C184.214 11.57 184.28 11.96 184.412 12.164C184.544 12.356 184.784 12.452 185.132 12.452ZM193.346 0.463999H195.236L193.256 4.64H191.996L193.346 0.463999ZM196.141 14.108C195.565 14.108 195.079 14 194.683 13.784C194.287 13.556 193.993 13.268 193.801 12.92C193.609 12.56 193.513 12.188 193.513 11.804C193.513 11.408 193.609 11.066 193.801 10.778C193.981 10.478 194.203 10.262 194.467 10.13C194.935 9.29 195.343 8.444 195.691 7.592C196.039 6.728 196.369 5.798 196.681 4.802L199.345 4.442C199.405 5.978 199.507 7.64 199.651 9.428C199.711 10.148 199.741 10.67 199.741 10.994C199.741 11.726 199.555 12.326 199.183 12.794C198.811 13.262 198.349 13.598 197.797 13.802C197.257 14.006 196.705 14.108 196.141 14.108ZM195.565 12.686C196.009 12.686 196.381 12.554 196.681 12.29C196.981 12.026 197.131 11.6 197.131 11.012C197.131 10.652 197.095 10.148 197.023 9.5C196.903 8.132 196.825 7.214 196.789 6.746C196.501 7.694 196.015 8.828 195.331 10.148C195.607 10.292 195.745 10.502 195.745 10.778C195.745 11.006 195.667 11.21 195.511 11.39C195.367 11.57 195.181 11.66 194.953 11.66C194.701 11.66 194.539 11.582 194.467 11.426C194.467 11.858 194.551 12.176 194.719 12.38C194.899 12.584 195.181 12.686 195.565 12.686ZM205.055 4.334H207.647L207.359 5.684C207.959 5.168 208.661 4.91 209.465 4.91C210.137 4.91 210.671 5.132 211.067 5.576C211.463 6.02 211.661 6.746 211.661 7.754C211.661 8.702 211.523 9.662 211.247 10.634C210.971 11.594 210.503 12.416 209.843 13.1C209.183 13.772 208.313 14.108 207.233 14.108C206.465 14.108 205.955 13.892 205.703 13.46L204.767 17.852L202.049 18.5L205.055 4.334ZM206.675 12.542C207.251 12.542 207.725 12.272 208.097 11.732C208.481 11.192 208.757 10.55 208.925 9.806C209.105 9.05 209.195 8.348 209.195 7.7C209.195 6.704 208.895 6.206 208.295 6.206C208.079 6.206 207.857 6.284 207.629 6.44C207.413 6.596 207.221 6.812 207.053 7.088L205.991 12.128C206.087 12.404 206.315 12.542 206.675 12.542ZM213.331 5H215.923L215.689 6.116C216.097 5.756 216.463 5.48 216.787 5.288C217.123 5.096 217.483 5 217.867 5C218.251 5 218.551 5.132 218.767 5.396C218.995 5.66 219.109 5.978 219.109 6.35C219.109 6.698 218.995 7.004 218.767 7.268C218.539 7.532 218.221 7.664 217.813 7.664C217.549 7.664 217.369 7.604 217.273 7.484C217.189 7.352 217.123 7.166 217.075 6.926C217.039 6.77 217.003 6.656 216.967 6.584C216.931 6.512 216.865 6.476 216.769 6.476C216.517 6.476 216.301 6.53 216.121 6.638C215.953 6.734 215.731 6.908 215.455 7.16L214.015 14H211.423L213.331 5ZM221.502 14.072C220.614 14.072 219.912 13.844 219.396 13.388C218.88 12.932 218.622 12.212 218.622 11.228C218.622 10.412 218.79 9.506 219.126 8.51C219.462 7.514 220.002 6.656 220.746 5.936C221.49 5.204 222.426 4.838 223.554 4.838C225.09 4.838 225.858 5.798 225.858 7.718V7.736C225.894 7.748 225.96 7.754 226.056 7.754C226.452 7.754 226.908 7.652 227.424 7.448C227.94 7.232 228.408 6.974 228.828 6.674L228.99 7.16C228.642 7.532 228.186 7.85 227.622 8.114C227.07 8.366 226.464 8.546 225.804 8.654C225.708 9.746 225.462 10.7 225.066 11.516C224.67 12.332 224.16 12.962 223.536 13.406C222.912 13.85 222.234 14.072 221.502 14.072ZM222.222 12.452C222.51 12.452 222.798 12.29 223.086 11.966C223.374 11.63 223.626 11.18 223.842 10.616C224.058 10.04 224.214 9.404 224.31 8.708C223.986 8.636 223.824 8.384 223.824 7.952C223.824 7.46 224.01 7.136 224.382 6.98C224.358 6.584 224.298 6.314 224.202 6.17C224.106 6.014 223.938 5.936 223.698 5.936C223.302 5.936 222.918 6.224 222.546 6.8C222.174 7.376 221.874 8.066 221.646 8.87C221.418 9.674 221.304 10.382 221.304 10.994C221.304 11.57 221.37 11.96 221.502 12.164C221.634 12.356 221.874 12.452 222.222 12.452ZM225.29 18.5C224.63 18.5 224.096 18.314 223.688 17.942C223.268 17.582 223.058 17.096 223.058 16.484C223.058 15.98 223.202 15.566 223.49 15.242C223.778 14.918 224.132 14.66 224.552 14.468C224.972 14.276 225.512 14.072 226.172 13.856L228.17 4.388C228.494 2.9 229.034 1.886 229.79 1.346C230.546 0.794 231.41 0.518 232.382 0.518C233.282 0.518 234.044 0.668 234.668 0.967999C235.292 1.268 235.604 1.808 235.604 2.588C235.604 3.092 235.466 3.464 235.19 3.704C234.926 3.932 234.59 4.046 234.182 4.046C233.87 4.046 233.612 3.974 233.408 3.83C233.204 3.674 233.102 3.422 233.102 3.074C233.102 2.846 233.156 2.642 233.264 2.462C233.384 2.282 233.534 2.192 233.714 2.192C233.798 2.192 233.846 2.198 233.858 2.21C233.846 1.97 233.75 1.79 233.57 1.67C233.402 1.55 233.168 1.49 232.868 1.49C232.34 1.49 231.914 1.682 231.59 2.066C231.278 2.45 231.068 2.936 230.96 3.524L230.654 5H232.094L231.95 5.72H230.51L228.458 15.44C228.218 16.568 227.804 17.36 227.216 17.816C226.628 18.272 225.986 18.5 225.29 18.5ZM233.372 14.108C232.796 14.108 232.328 13.928 231.968 13.568C231.62 13.208 231.446 12.668 231.446 11.948C231.446 11.648 231.494 11.258 231.59 10.778L232.814 5H235.406L234.11 11.12C234.062 11.3 234.038 11.492 234.038 11.696C234.038 11.936 234.092 12.11 234.2 12.218C234.32 12.314 234.512 12.362 234.776 12.362C235.124 12.362 235.448 12.218 235.748 11.93C236.048 11.63 236.264 11.246 236.396 10.778H237.152C236.708 12.074 236.138 12.956 235.442 13.424C234.746 13.88 234.056 14.108 233.372 14.108ZM224.786 16.898C224.99 16.898 225.194 16.784 225.398 16.556C225.59 16.328 225.734 15.974 225.83 15.494L226.046 14.45C225.434 14.642 224.948 14.882 224.588 15.17C224.228 15.47 224.048 15.806 224.048 16.178C224.048 16.442 224.132 16.628 224.3 16.736C224.468 16.844 224.63 16.898 224.786 16.898ZM238.182 14.108C237.606 14.108 237.138 13.928 236.778 13.568C236.43 13.208 236.256 12.668 236.256 11.948C236.256 11.648 236.304 11.258 236.4 10.778L238.326 1.76L240.99 1.4L238.92 11.12C238.872 11.3 238.848 11.492 238.848 11.696C238.848 11.936 238.902 12.11 239.01 12.218C239.13 12.314 239.322 12.362 239.586 12.362C239.934 12.362 240.258 12.218 240.558 11.93C240.858 11.63 241.074 11.246 241.206 10.778H241.962C241.518 12.074 240.948 12.956 240.252 13.424C239.556 13.88 238.866 14.108 238.182 14.108ZM243.736 14.108C242.86 14.108 242.176 13.88 241.684 13.424C241.192 12.956 240.946 12.23 240.946 11.246C240.946 10.418 241.108 9.506 241.432 8.51C241.756 7.514 242.284 6.656 243.016 5.936C243.748 5.204 244.678 4.838 245.806 4.838C247.126 4.838 247.786 5.414 247.786 6.566C247.786 7.238 247.594 7.856 247.21 8.42C246.826 8.984 246.316 9.44 245.68 9.788C245.044 10.124 244.366 10.316 243.646 10.364C243.622 10.628 243.61 10.808 243.61 10.904C243.61 11.9 243.982 12.398 244.726 12.398C245.062 12.398 245.422 12.308 245.806 12.128C246.19 11.948 246.538 11.72 246.85 11.444C246.526 13.22 245.488 14.108 243.736 14.108ZM243.772 9.5C244.228 9.488 244.654 9.338 245.05 9.05C245.458 8.762 245.782 8.396 246.022 7.952C246.274 7.496 246.4 7.022 246.4 6.53C246.4 6.038 246.25 5.792 245.95 5.792C245.53 5.792 245.11 6.176 244.69 6.944C244.282 7.7 243.976 8.552 243.772 9.5ZM250.922 0.842L253.694 0.463999L251.084 9.842H249.554L250.922 0.842ZM249.806 14.108C249.41 14.108 249.068 13.97 248.78 13.694C248.504 13.406 248.366 13.064 248.366 12.668C248.366 12.272 248.504 11.936 248.78 11.66C249.068 11.384 249.41 11.246 249.806 11.246C250.202 11.246 250.538 11.384 250.814 11.66C251.09 11.936 251.228 12.272 251.228 12.668C251.228 13.064 251.09 13.406 250.814 13.694C250.538 13.97 250.202 14.108 249.806 14.108Z" fill="#10D5F0"/>
</svg>


