<svg width="226" height="17" viewBox="0 0 226 17" fill="none" xmlns="http://www.w3.org/2000/svg">
<path d="M4.38129 2.072C3.62396 2.36 3.03729 2.808 2.62129 3.416C2.20529 4.01333 1.99729 4.74933 1.99729 5.624C1.99729 6.01867 2.03463 6.296 2.10929 6.456C2.18396 6.60533 2.22129 6.69067 2.22129 6.712C1.64529 6.712 1.21329 6.59467 0.925292 6.36C0.647959 6.11467 0.509292 5.71467 0.509292 5.16C0.509292 4.47733 0.786625 3.816 1.34129 3.176C1.90663 2.52533 2.62663 2.00267 3.50129 1.608C4.37596 1.20267 5.25063 0.999999 6.12529 0.999999C6.27463 0.999999 6.48796 1.01067 6.76529 1.032L6.90929 10.872L10.2693 1.08H12.3013L12.4453 10.872L15.8053 1.08H16.9253L12.4773 13H10.1733L9.98129 4.856L6.94129 13H4.63729L4.38129 2.072ZM18.0919 13.096C17.3026 13.096 16.6893 12.8933 16.2519 12.488C15.8146 12.072 15.5959 11.4267 15.5959 10.552C15.5959 9.816 15.7399 9.00533 16.0279 8.12C16.3159 7.23467 16.7853 6.472 17.4359 5.832C18.0866 5.18133 18.9133 4.856 19.9159 4.856C21.0893 4.856 21.6759 5.368 21.6759 6.392C21.6759 6.98933 21.5053 7.53867 21.1639 8.04C20.8226 8.54133 20.3693 8.94667 19.8039 9.256C19.2386 9.55467 18.6359 9.72533 17.9959 9.768C17.9746 10.088 17.9639 10.3013 17.9639 10.408C17.9639 10.9307 18.0546 11.288 18.2359 11.48C18.4173 11.6613 18.7106 11.752 19.1159 11.752C19.6919 11.752 20.1826 11.6187 20.5879 11.352C21.0039 11.0853 21.4573 10.68 21.9479 10.136H22.4919C21.3079 12.1093 19.8413 13.096 18.0919 13.096ZM18.1239 9C18.5186 8.97867 18.8919 8.84 19.2439 8.584C19.6066 8.328 19.8946 8.00267 20.1079 7.608C20.3319 7.21333 20.4439 6.79733 20.4439 6.36C20.4439 5.92267 20.3106 5.704 20.0439 5.704C19.6599 5.704 19.2813 6.04 18.9079 6.712C18.5453 7.384 18.2839 8.14667 18.1239 9ZM23.5285 13.096C23.0165 13.096 22.6005 12.936 22.2805 12.616C21.9712 12.296 21.8165 11.816 21.8165 11.176C21.8165 10.9093 21.8592 10.5627 21.9445 10.136L23.6565 2.12L26.0245 1.8L24.1845 10.44C24.1419 10.6 24.1205 10.7707 24.1205 10.952C24.1205 11.1653 24.1685 11.32 24.2645 11.416C24.3712 11.5013 24.5419 11.544 24.7765 11.544C25.0859 11.544 25.3739 11.416 25.6405 11.16C25.9072 10.8933 26.0992 10.552 26.2165 10.136H26.8885C26.4939 11.288 25.9872 12.072 25.3685 12.488C24.7499 12.8933 24.1365 13.096 23.5285 13.096ZM28.4982 13.096C27.7088 13.096 27.0955 12.8933 26.6582 12.488C26.2208 12.072 26.0022 11.4267 26.0022 10.552C26.0022 9.816 26.1462 9.00533 26.4342 8.12C26.7328 7.23467 27.2022 6.472 27.8422 5.832C28.4928 5.18133 29.3142 4.856 30.3062 4.856C30.9462 4.856 31.3995 4.99467 31.6662 5.272C31.9435 5.54933 32.0822 5.90133 32.0822 6.328C32.0822 6.70133 32.0022 6.98933 31.8422 7.192C31.6822 7.39467 31.4795 7.496 31.2342 7.496C31.0528 7.496 30.8662 7.432 30.6742 7.304C30.8022 6.952 30.8662 6.63733 30.8662 6.36C30.8662 6.15733 30.8288 5.99733 30.7542 5.88C30.6795 5.76267 30.5675 5.704 30.4182 5.704C30.0982 5.704 29.7782 5.96533 29.4582 6.488C29.1382 7.01067 28.8768 7.64533 28.6742 8.392C28.4715 9.13867 28.3702 9.81067 28.3702 10.408C28.3702 10.9307 28.4608 11.288 28.6422 11.48C28.8235 11.6613 29.1168 11.752 29.5222 11.752C30.0982 11.752 30.5888 11.6187 30.9942 11.352C31.4102 11.0853 31.8635 10.68 32.3542 10.136H32.8982C31.7142 12.1093 30.2475 13.096 28.4982 13.096ZM34.6868 13.064C33.8975 13.064 33.2735 12.8613 32.8148 12.456C32.3561 12.0507 32.1268 11.4107 32.1268 10.536C32.1268 9.81067 32.2761 9.00533 32.5748 8.12C32.8735 7.23467 33.3535 6.472 34.0148 5.832C34.6761 5.18133 35.5081 4.856 36.5108 4.856C37.8761 4.856 38.5588 5.70933 38.5588 7.416V7.432C38.5908 7.44267 38.6495 7.448 38.7348 7.448C39.0868 7.448 39.4921 7.35733 39.9508 7.176C40.4095 6.984 40.8255 6.75467 41.1988 6.488L41.3428 6.92C41.0335 7.25067 40.6281 7.53333 40.1268 7.768C39.6361 7.992 39.0975 8.152 38.5108 8.248C38.4255 9.21867 38.2068 10.0667 37.8548 10.792C37.5028 11.5173 37.0495 12.0773 36.4948 12.472C35.9401 12.8667 35.3375 13.064 34.6868 13.064ZM35.3268 11.624C35.5828 11.624 35.8388 11.48 36.0948 11.192C36.3508 10.8933 36.5748 10.4933 36.7668 9.992C36.9588 9.48 37.0975 8.91467 37.1828 8.296C36.8948 8.232 36.7508 8.008 36.7508 7.624C36.7508 7.18667 36.9161 6.89867 37.2468 6.76C37.2255 6.408 37.1721 6.168 37.0868 6.04C37.0015 5.90133 36.8521 5.832 36.6388 5.832C36.2868 5.832 35.9455 6.088 35.6148 6.6C35.2841 7.112 35.0175 7.72533 34.8148 8.44C34.6121 9.15467 34.5108 9.784 34.5108 10.328C34.5108 10.84 34.5695 11.1867 34.6868 11.368C34.8041 11.5387 35.0175 11.624 35.3268 11.624ZM49.11 13.096C48.4594 13.096 47.9794 12.9253 47.67 12.584C47.3714 12.232 47.222 11.8 47.222 11.288C47.222 11.064 47.2487 10.8133 47.302 10.536C47.3554 10.248 47.4087 9.97067 47.462 9.704C47.526 9.43733 47.5687 9.26667 47.59 9.192C47.6754 8.81867 47.7554 8.45067 47.83 8.088C47.9047 7.72533 47.942 7.432 47.942 7.208C47.942 6.664 47.75 6.392 47.366 6.392C47.0887 6.392 46.8434 6.53067 46.63 6.808C46.4167 7.07467 46.246 7.42667 46.118 7.864L45.03 13H42.726L43.894 7.48C43.926 7.352 43.942 7.21867 43.942 7.08C43.942 6.61067 43.782 6.376 43.462 6.376C43.1634 6.376 42.902 6.51467 42.678 6.792C42.4647 7.05867 42.294 7.416 42.166 7.864L41.078 13H38.774L40.47 5H42.774L42.598 5.832C43.142 5.224 43.7927 4.92 44.55 4.92C45.4887 4.92 46.038 5.37867 46.198 6.296C46.7847 5.38933 47.526 4.936 48.422 4.936C48.966 4.936 49.398 5.08533 49.718 5.384C50.038 5.68267 50.198 6.136 50.198 6.744C50.198 7.05333 50.1607 7.4 50.086 7.784C50.0114 8.15733 49.9047 8.616 49.766 9.16C49.6807 9.49067 49.6007 9.816 49.526 10.136C49.462 10.4453 49.43 10.6907 49.43 10.872C49.43 11.0853 49.478 11.2507 49.574 11.368C49.67 11.4853 49.8354 11.544 50.07 11.544C50.39 11.544 50.646 11.432 50.838 11.208C51.03 10.9733 51.222 10.616 51.414 10.136H52.086C51.6914 11.3093 51.2327 12.0987 50.71 12.504C50.198 12.8987 49.6647 13.096 49.11 13.096ZM53.6693 13.096C52.8906 13.096 52.2826 12.8933 51.8453 12.488C51.408 12.072 51.1893 11.4267 51.1893 10.552C51.1893 9.816 51.3333 9.00533 51.6213 8.12C51.9093 7.23467 52.3786 6.472 53.0293 5.832C53.68 5.18133 54.5066 4.856 55.5093 4.856C56.6826 4.856 57.2693 5.368 57.2693 6.392C57.2693 6.98933 57.0986 7.53867 56.7573 8.04C56.416 8.54133 55.9626 8.94667 55.3973 9.256C54.832 9.55467 54.2293 9.72533 53.5893 9.768C53.568 10.0027 53.5573 10.1627 53.5573 10.248C53.5573 11.1333 53.888 11.576 54.5493 11.576C54.848 11.576 55.168 11.496 55.5093 11.336C55.8506 11.176 56.16 10.9733 56.4373 10.728C56.1493 12.3067 55.2266 13.096 53.6693 13.096ZM53.7013 9C54.1066 8.98933 54.4853 8.856 54.8373 8.6C55.2 8.344 55.488 8.01867 55.7013 7.624C55.9253 7.21867 56.0373 6.79733 56.0373 6.36C56.0373 5.92267 55.904 5.704 55.6373 5.704C55.264 5.704 54.8906 6.04533 54.5173 6.728C54.1546 7.4 53.8826 8.15733 53.7013 9ZM62.3254 13.096C61.8134 13.096 61.3974 12.936 61.0774 12.616C60.7681 12.296 60.6134 11.816 60.6134 11.176C60.6134 10.9093 60.6561 10.5627 60.7414 10.136L61.7014 5.64H61.1734L61.3014 5H61.8294L62.3094 2.792L64.6774 2.472L64.1334 5H65.0934L64.9654 5.64H64.0054L62.9814 10.44C62.9388 10.6 62.9174 10.7707 62.9174 10.952C62.9174 11.1653 62.9654 11.32 63.0614 11.416C63.1681 11.5013 63.3388 11.544 63.5734 11.544C63.8828 11.544 64.1708 11.416 64.4374 11.16C64.7041 10.8933 64.8961 10.552 65.0134 10.136H65.6854C65.2908 11.288 64.7841 12.072 64.1654 12.488C63.5468 12.8933 62.9334 13.096 62.3254 13.096ZM67.343 13.064C66.5537 13.064 65.9297 12.8613 65.471 12.456C65.0124 12.0507 64.783 11.4107 64.783 10.536C64.783 9.8 64.927 8.99467 65.215 8.12C65.503 7.23467 65.9724 6.472 66.623 5.832C67.2737 5.18133 68.1057 4.856 69.119 4.856C70.3777 4.856 71.055 5.576 71.151 7.016C71.3857 6.96267 71.5937 6.83467 71.775 6.632C71.9564 6.41867 72.127 6.17867 72.287 5.912H72.799C72.511 6.488 72.255 6.94133 72.031 7.272C71.807 7.592 71.5137 7.85333 71.151 8.056C71.087 9.05867 70.879 9.93867 70.527 10.696C70.1857 11.4533 69.7377 12.04 69.183 12.456C68.6284 12.8613 68.015 13.064 67.343 13.064ZM67.983 11.624C68.3777 11.624 68.7457 11.304 69.087 10.664C69.4284 10.024 69.663 9.23467 69.791 8.296C69.535 8.2 69.407 7.96 69.407 7.576C69.407 7.16 69.5564 6.88267 69.855 6.744C69.8337 6.40267 69.775 6.168 69.679 6.04C69.5937 5.90133 69.4497 5.832 69.247 5.832C68.895 5.832 68.559 6.088 68.239 6.6C67.919 7.10133 67.6577 7.71467 67.455 8.44C67.263 9.15467 67.167 9.784 67.167 10.328C67.167 10.84 67.2257 11.1867 67.343 11.368C67.4604 11.5387 67.6737 11.624 67.983 11.624ZM79.3287 13.288C78.358 13.288 77.622 13.0213 77.1207 12.488C76.63 11.9547 76.3847 11.2827 76.3847 10.472C76.3847 9.896 76.502 9.32 76.7367 8.744C76.982 8.15733 77.3287 7.64533 77.7767 7.208C78.2247 6.77067 78.7473 6.47733 79.3447 6.328C79.014 6.09333 78.7687 5.81067 78.6087 5.48C78.4487 5.13867 78.3687 4.78133 78.3687 4.408C78.3687 3.85333 78.518 3.30933 78.8167 2.776C79.126 2.24267 79.5473 1.81067 80.0807 1.48C80.6247 1.13867 81.222 0.967999 81.8727 0.967999C82.5447 0.967999 83.094 1.144 83.5207 1.496C83.9473 1.848 84.1607 2.33867 84.1607 2.968C84.1607 3.43733 84.0433 3.832 83.8087 4.152C83.574 4.472 83.2967 4.632 82.9767 4.632C82.6887 4.632 82.438 4.488 82.2247 4.2C82.4167 4.136 82.582 3.96 82.7207 3.672C82.8593 3.384 82.9287 3.096 82.9287 2.808C82.9287 2.49867 82.8433 2.27467 82.6727 2.136C82.502 1.98667 82.294 1.912 82.0487 1.912C81.7393 1.912 81.4567 2.024 81.2007 2.248C80.9553 2.46133 80.7633 2.744 80.6247 3.096C80.486 3.43733 80.4167 3.79467 80.4167 4.168C80.4167 4.68 80.55 5.13333 80.8167 5.528C81.0833 5.912 81.4887 6.17333 82.0327 6.312C81.4887 6.42933 80.998 6.696 80.5607 7.112C80.1233 7.528 79.782 8.01333 79.5367 8.568C79.2913 9.112 79.1687 9.63467 79.1687 10.136C79.1687 10.616 79.2913 11.0053 79.5367 11.304C79.7927 11.6027 80.1767 11.752 80.6887 11.752C81.222 11.752 81.7767 11.608 82.3527 11.32C82.9393 11.0213 83.3713 10.6213 83.6487 10.12L84.0167 10.28C83.6007 11.1973 82.9607 11.928 82.0967 12.472C81.2327 13.016 80.31 13.288 79.3287 13.288ZM85.2004 13.096C84.6884 13.096 84.2724 12.936 83.9524 12.616C83.6431 12.296 83.4884 11.816 83.4884 11.176C83.4884 10.9093 83.5311 10.5627 83.6164 10.136L85.3284 2.12L87.6964 1.8L85.8564 10.44C85.8138 10.6 85.7924 10.7707 85.7924 10.952C85.7924 11.1653 85.8404 11.32 85.9364 11.416C86.0431 11.5013 86.2138 11.544 86.4484 11.544C86.7578 11.544 87.0458 11.416 87.3124 11.16C87.5791 10.8933 87.7711 10.552 87.8884 10.136H88.5604C88.1658 11.288 87.6591 12.072 87.0404 12.488C86.4218 12.8933 85.8084 13.096 85.2004 13.096ZM93.258 0.999999H94.938L93.002 4.024H91.802L93.258 0.999999ZM89.802 13.096C89.194 13.096 88.6874 12.888 88.282 12.472C87.8767 12.056 87.674 11.4053 87.674 10.52C87.674 9.73067 87.8287 8.904 88.138 8.04C88.458 7.16533 88.9274 6.42933 89.546 5.832C90.1754 5.224 90.922 4.92 91.786 4.92C92.2234 4.92 92.5487 4.99467 92.762 5.144C92.9754 5.29333 93.082 5.49067 93.082 5.736V5.848L93.258 5H95.562L94.41 10.44C94.3674 10.6 94.346 10.7707 94.346 10.952C94.346 11.4107 94.5647 11.64 95.002 11.64C95.3007 11.64 95.5567 11.5013 95.77 11.224C95.994 10.9467 96.17 10.584 96.298 10.136H96.97C96.5754 11.288 96.0847 12.072 95.498 12.488C94.922 12.8933 94.3407 13.096 93.754 13.096C93.306 13.096 92.9434 12.9733 92.666 12.728C92.3994 12.472 92.2394 12.104 92.186 11.624C91.8767 12.0613 91.53 12.4187 91.146 12.696C90.7727 12.9627 90.3247 13.096 89.802 13.096ZM90.842 11.544C91.1087 11.544 91.37 11.4213 91.626 11.176C91.8927 10.92 92.074 10.5733 92.17 10.136L92.938 6.52C92.938 6.38133 92.8847 6.248 92.778 6.12C92.6714 5.98133 92.506 5.912 92.282 5.912C91.8554 5.912 91.4714 6.16267 91.13 6.664C90.7887 7.15467 90.522 7.752 90.33 8.456C90.138 9.14933 90.042 9.76267 90.042 10.296C90.042 10.8293 90.1167 11.1707 90.266 11.32C90.426 11.4693 90.618 11.544 90.842 11.544ZM98.2239 13.096C97.6159 13.096 97.1093 12.888 96.7039 12.472C96.2986 12.056 96.0959 11.4053 96.0959 10.52C96.0959 9.73067 96.2506 8.904 96.5599 8.04C96.8799 7.16533 97.3493 6.42933 97.9679 5.832C98.5973 5.224 99.3439 4.92 100.208 4.92C100.645 4.92 100.971 4.99467 101.184 5.144C101.397 5.29333 101.504 5.49067 101.504 5.736V5.8L102.288 2.12L104.656 1.8L102.816 10.44C102.773 10.6 102.752 10.7707 102.752 10.952C102.752 11.1653 102.8 11.32 102.896 11.416C103.003 11.5013 103.173 11.544 103.408 11.544C103.707 11.544 103.963 11.416 104.176 11.16C104.4 10.904 104.576 10.5627 104.704 10.136H105.376C104.725 12.0453 103.653 13 102.16 13C101.723 13 101.365 12.8827 101.088 12.648C100.821 12.4133 100.656 12.072 100.592 11.624C100.315 12.0507 99.9786 12.4027 99.5839 12.68C99.1999 12.9573 98.7466 13.096 98.2239 13.096ZM99.2639 11.544C99.5199 11.544 99.7759 11.4267 100.032 11.192C100.299 10.9573 100.48 10.632 100.576 10.216V10.136L101.36 6.472C101.264 6.09867 101.045 5.912 100.704 5.912C100.277 5.912 99.8933 6.16267 99.5519 6.664C99.2106 7.15467 98.9439 7.752 98.7519 8.456C98.5599 9.14933 98.4639 9.76267 98.4639 10.296C98.4639 10.8293 98.5386 11.1707 98.6879 11.32C98.8479 11.4693 99.0399 11.544 99.2639 11.544ZM107.382 4.136C107.03 4.136 106.732 4.01333 106.486 3.768C106.241 3.52267 106.118 3.224 106.118 2.872C106.118 2.52 106.241 2.22133 106.486 1.976C106.732 1.72 107.03 1.592 107.382 1.592C107.734 1.592 108.033 1.72 108.278 1.976C108.534 2.22133 108.662 2.52 108.662 2.872C108.662 3.224 108.534 3.52267 108.278 3.768C108.033 4.01333 107.734 4.136 107.382 4.136ZM106.294 13.096C105.782 13.096 105.366 12.936 105.046 12.616C104.737 12.296 104.582 11.816 104.582 11.176C104.582 10.9093 104.625 10.5627 104.71 10.136L105.798 5H108.102L106.95 10.44C106.908 10.6 106.886 10.7707 106.886 10.952C106.886 11.1653 106.934 11.32 107.03 11.416C107.137 11.5013 107.308 11.544 107.542 11.544C107.852 11.544 108.14 11.416 108.406 11.16C108.673 10.8933 108.865 10.552 108.982 10.136H109.654C109.26 11.288 108.753 12.072 108.134 12.488C107.516 12.8933 106.902 13.096 106.294 13.096ZM111.312 13.064C110.522 13.064 109.898 12.8613 109.44 12.456C108.981 12.0507 108.752 11.4107 108.752 10.536C108.752 9.8 108.896 8.99467 109.184 8.12C109.472 7.23467 109.941 6.472 110.592 5.832C111.242 5.18133 112.074 4.856 113.088 4.856C114.346 4.856 115.024 5.576 115.12 7.016C115.354 6.96267 115.562 6.83467 115.744 6.632C115.925 6.41867 116.096 6.17867 116.256 5.912H116.768C116.48 6.488 116.224 6.94133 116 7.272C115.776 7.592 115.482 7.85333 115.12 8.056C115.056 9.05867 114.848 9.93867 114.496 10.696C114.154 11.4533 113.706 12.04 113.152 12.456C112.597 12.8613 111.984 13.064 111.312 13.064ZM111.952 11.624C112.346 11.624 112.714 11.304 113.056 10.664C113.397 10.024 113.632 9.23467 113.76 8.296C113.504 8.2 113.376 7.96 113.376 7.576C113.376 7.16 113.525 6.88267 113.824 6.744C113.802 6.40267 113.744 6.168 113.648 6.04C113.562 5.90133 113.418 5.832 113.216 5.832C112.864 5.832 112.528 6.088 112.208 6.6C111.888 7.10133 111.626 7.71467 111.424 8.44C111.232 9.15467 111.136 9.784 111.136 10.328C111.136 10.84 111.194 11.1867 111.312 11.368C111.429 11.5387 111.642 11.624 111.952 11.624ZM124.049 13.256C122.844 13.256 121.959 12.952 121.393 12.344C120.828 11.736 120.545 10.728 120.545 9.32C120.545 8.2 120.732 6.99467 121.105 5.704C121.489 4.41333 122.097 3.30933 122.929 2.392C123.772 1.464 124.839 0.999999 126.129 0.999999C126.929 0.999999 127.575 1.176 128.065 1.528C128.556 1.88 128.801 2.41867 128.801 3.144C128.801 3.60267 128.711 3.96533 128.529 4.232C128.348 4.488 128.065 4.616 127.681 4.616C127.297 4.616 126.993 4.47733 126.769 4.2C126.961 4.104 127.132 3.912 127.281 3.624C127.431 3.336 127.505 3.03733 127.505 2.728C127.505 2.44 127.425 2.20533 127.265 2.024C127.116 1.84267 126.871 1.752 126.529 1.752C125.964 1.752 125.425 2.14133 124.913 2.92C124.401 3.688 123.985 4.65867 123.665 5.832C123.356 7.00533 123.201 8.136 123.201 9.224C123.201 10.0347 123.34 10.6533 123.617 11.08C123.895 11.5067 124.396 11.72 125.121 11.72C125.751 11.72 126.332 11.5813 126.865 11.304C127.399 11.0267 127.857 10.632 128.241 10.12L128.609 10.28C128.343 10.952 127.948 11.512 127.425 11.96C126.903 12.408 126.343 12.7387 125.745 12.952C125.148 13.1547 124.583 13.256 124.049 13.256ZM129.779 13.096C129.267 13.096 128.851 12.936 128.531 12.616C128.221 12.296 128.067 11.816 128.067 11.176C128.067 10.9093 128.109 10.5627 128.195 10.136L129.907 2.12L132.275 1.8L130.435 10.44C130.392 10.6 130.371 10.7707 130.371 10.952C130.371 11.1653 130.419 11.32 130.515 11.416C130.621 11.5013 130.792 11.544 131.027 11.544C131.336 11.544 131.624 11.416 131.891 11.16C132.157 10.8933 132.349 10.552 132.467 10.136H133.139C132.744 11.288 132.237 12.072 131.619 12.488C131 12.8933 130.387 13.096 129.779 13.096ZM137.836 0.999999H139.516L137.58 4.024H136.38L137.836 0.999999ZM134.38 13.096C133.772 13.096 133.266 12.888 132.86 12.472C132.455 12.056 132.252 11.4053 132.252 10.52C132.252 9.73067 132.407 8.904 132.716 8.04C133.036 7.16533 133.506 6.42933 134.124 5.832C134.754 5.224 135.5 4.92 136.364 4.92C136.802 4.92 137.127 4.99467 137.34 5.144C137.554 5.29333 137.66 5.49067 137.66 5.736V5.848L137.836 5H140.14L138.988 10.44C138.946 10.6 138.924 10.7707 138.924 10.952C138.924 11.4107 139.143 11.64 139.58 11.64C139.879 11.64 140.135 11.5013 140.348 11.224C140.572 10.9467 140.748 10.584 140.876 10.136H141.548C141.154 11.288 140.663 12.072 140.076 12.488C139.5 12.8933 138.919 13.096 138.332 13.096C137.884 13.096 137.522 12.9733 137.244 12.728C136.978 12.472 136.818 12.104 136.764 11.624C136.455 12.0613 136.108 12.4187 135.724 12.696C135.351 12.9627 134.903 13.096 134.38 13.096ZM135.42 11.544C135.687 11.544 135.948 11.4213 136.204 11.176C136.471 10.92 136.652 10.5733 136.748 10.136L137.516 6.52C137.516 6.38133 137.463 6.248 137.356 6.12C137.25 5.98133 137.084 5.912 136.86 5.912C136.434 5.912 136.05 6.16267 135.708 6.664C135.367 7.15467 135.1 7.752 134.908 8.456C134.716 9.14933 134.62 9.76267 134.62 10.296C134.62 10.8293 134.695 11.1707 134.844 11.32C135.004 11.4693 135.196 11.544 135.42 11.544ZM142.466 13.096C141.954 13.096 141.538 12.936 141.218 12.616C140.909 12.296 140.754 11.816 140.754 11.176C140.754 10.9093 140.797 10.5627 140.882 10.136L141.97 5H144.274L143.122 10.44C143.09 10.6 143.074 10.7493 143.074 10.888C143.074 11.3253 143.234 11.544 143.554 11.544C143.853 11.544 144.109 11.4213 144.322 11.176C144.535 10.92 144.706 10.5733 144.834 10.136L145.922 5H148.226L147.074 10.44C147.031 10.6 147.01 10.7707 147.01 10.952C147.01 11.1653 147.058 11.32 147.154 11.416C147.261 11.5013 147.431 11.544 147.666 11.544C147.965 11.544 148.221 11.416 148.434 11.16C148.658 10.904 148.834 10.5627 148.962 10.136H149.634C149.239 11.288 148.749 12.072 148.162 12.488C147.586 12.8933 147.005 13.096 146.418 13.096C145.959 13.096 145.591 12.968 145.314 12.712C145.047 12.456 144.887 12.0773 144.834 11.576C144.471 12.1627 144.087 12.5627 143.682 12.776C143.287 12.9893 142.882 13.096 142.466 13.096ZM150.88 13.096C150.272 13.096 149.766 12.888 149.36 12.472C148.955 12.056 148.752 11.4053 148.752 10.52C148.752 9.73067 148.907 8.904 149.216 8.04C149.536 7.16533 150.006 6.42933 150.624 5.832C151.254 5.224 152 4.92 152.864 4.92C153.302 4.92 153.627 4.99467 153.84 5.144C154.054 5.29333 154.16 5.49067 154.16 5.736V5.8L154.944 2.12L157.312 1.8L155.472 10.44C155.43 10.6 155.408 10.7707 155.408 10.952C155.408 11.1653 155.456 11.32 155.552 11.416C155.659 11.5013 155.83 11.544 156.064 11.544C156.363 11.544 156.619 11.416 156.832 11.16C157.056 10.904 157.232 10.5627 157.36 10.136H158.032C157.382 12.0453 156.31 13 154.816 13C154.379 13 154.022 12.8827 153.744 12.648C153.478 12.4133 153.312 12.072 153.248 11.624C152.971 12.0507 152.635 12.4027 152.24 12.68C151.856 12.9573 151.403 13.096 150.88 13.096ZM151.92 11.544C152.176 11.544 152.432 11.4267 152.688 11.192C152.955 10.9573 153.136 10.632 153.232 10.216V10.136L154.016 6.472C153.92 6.09867 153.702 5.912 153.36 5.912C152.934 5.912 152.55 6.16267 152.208 6.664C151.867 7.15467 151.6 7.752 151.408 8.456C151.216 9.14933 151.12 9.76267 151.12 10.296C151.12 10.8293 151.195 11.1707 151.344 11.32C151.504 11.4693 151.696 11.544 151.92 11.544ZM160.038 4.136C159.686 4.136 159.388 4.01333 159.142 3.768C158.897 3.52267 158.774 3.224 158.774 2.872C158.774 2.52 158.897 2.22133 159.142 1.976C159.388 1.72 159.686 1.592 160.038 1.592C160.39 1.592 160.689 1.72 160.934 1.976C161.19 2.22133 161.318 2.52 161.318 2.872C161.318 3.224 161.19 3.52267 160.934 3.768C160.689 4.01333 160.39 4.136 160.038 4.136ZM158.95 13.096C158.438 13.096 158.022 12.936 157.702 12.616C157.393 12.296 157.238 11.816 157.238 11.176C157.238 10.9093 157.281 10.5627 157.366 10.136L158.454 5H160.758L159.606 10.44C159.564 10.6 159.542 10.7707 159.542 10.952C159.542 11.1653 159.59 11.32 159.686 11.416C159.793 11.5013 159.964 11.544 160.198 11.544C160.508 11.544 160.796 11.416 161.062 11.16C161.329 10.8933 161.521 10.552 161.638 10.136H162.31C161.916 11.288 161.409 12.072 160.79 12.488C160.172 12.8933 159.558 13.096 158.95 13.096ZM163.968 13.064C163.179 13.064 162.555 12.8613 162.096 12.456C161.637 12.0507 161.408 11.4107 161.408 10.536C161.408 9.8 161.552 8.99467 161.84 8.12C162.128 7.23467 162.597 6.472 163.248 5.832C163.899 5.18133 164.731 4.856 165.744 4.856C167.003 4.856 167.68 5.576 167.776 7.016C168.011 6.96267 168.219 6.83467 168.4 6.632C168.581 6.41867 168.752 6.17867 168.912 5.912H169.424C169.136 6.488 168.88 6.94133 168.656 7.272C168.432 7.592 168.139 7.85333 167.776 8.056C167.712 9.05867 167.504 9.93867 167.152 10.696C166.811 11.4533 166.363 12.04 165.808 12.456C165.253 12.8613 164.64 13.064 163.968 13.064ZM164.608 11.624C165.003 11.624 165.371 11.304 165.712 10.664C166.053 10.024 166.288 9.23467 166.416 8.296C166.16 8.2 166.032 7.96 166.032 7.576C166.032 7.16 166.181 6.88267 166.48 6.744C166.459 6.40267 166.4 6.168 166.304 6.04C166.219 5.90133 166.075 5.832 165.872 5.832C165.52 5.832 165.184 6.088 164.864 6.6C164.544 7.10133 164.283 7.71467 164.08 8.44C163.888 9.15467 163.792 9.784 163.792 10.328C163.792 10.84 163.851 11.1867 163.968 11.368C164.085 11.5387 164.299 11.624 164.608 11.624ZM171.909 0.967999H173.589L171.829 4.68H170.709L171.909 0.967999ZM174.394 13.096C173.882 13.096 173.45 13 173.098 12.808C172.746 12.6053 172.484 12.3493 172.314 12.04C172.143 11.72 172.058 11.3893 172.058 11.048C172.058 10.696 172.143 10.392 172.314 10.136C172.474 9.86933 172.671 9.67733 172.906 9.56C173.322 8.81333 173.684 8.06133 173.994 7.304C174.303 6.536 174.596 5.70933 174.874 4.824L177.242 4.504C177.295 5.86933 177.386 7.34667 177.514 8.936C177.567 9.576 177.594 10.04 177.594 10.328C177.594 10.9787 177.428 11.512 177.098 11.928C176.767 12.344 176.356 12.6427 175.866 12.824C175.386 13.0053 174.895 13.096 174.394 13.096ZM173.882 11.832C174.276 11.832 174.607 11.7147 174.874 11.48C175.14 11.2453 175.274 10.8667 175.274 10.344C175.274 10.024 175.242 9.576 175.178 9C175.071 7.784 175.002 6.968 174.97 6.552C174.714 7.39467 174.282 8.40267 173.674 9.576C173.919 9.704 174.042 9.89067 174.042 10.136C174.042 10.3387 173.972 10.52 173.834 10.68C173.706 10.84 173.54 10.92 173.338 10.92C173.114 10.92 172.97 10.8507 172.906 10.712C172.906 11.096 172.98 11.3787 173.13 11.56C173.29 11.7413 173.54 11.832 173.882 11.832ZM182.317 4.408H184.621L184.365 5.608C184.898 5.14933 185.522 4.92 186.237 4.92C186.834 4.92 187.309 5.11733 187.661 5.512C188.013 5.90667 188.189 6.552 188.189 7.448C188.189 8.29067 188.066 9.144 187.821 10.008C187.575 10.8613 187.159 11.592 186.573 12.2C185.986 12.7973 185.213 13.096 184.253 13.096C183.57 13.096 183.117 12.904 182.893 12.52L182.061 16.424L179.645 17L182.317 4.408ZM183.757 11.704C184.269 11.704 184.69 11.464 185.021 10.984C185.362 10.504 185.607 9.93333 185.757 9.272C185.917 8.6 185.997 7.976 185.997 7.4C185.997 6.51467 185.73 6.072 185.197 6.072C185.005 6.072 184.807 6.14133 184.605 6.28C184.413 6.41867 184.242 6.61067 184.093 6.856L183.149 11.336C183.234 11.5813 183.437 11.704 183.757 11.704ZM189.673 5H191.977L191.769 5.992C192.132 5.672 192.457 5.42667 192.745 5.256C193.044 5.08533 193.364 5 193.705 5C194.047 5 194.313 5.11733 194.505 5.352C194.708 5.58667 194.809 5.86933 194.809 6.2C194.809 6.50933 194.708 6.78133 194.505 7.016C194.303 7.25067 194.02 7.368 193.657 7.368C193.423 7.368 193.263 7.31467 193.177 7.208C193.103 7.09067 193.044 6.92533 193.001 6.712C192.969 6.57333 192.937 6.472 192.905 6.408C192.873 6.344 192.815 6.312 192.729 6.312C192.505 6.312 192.313 6.36 192.153 6.456C192.004 6.54133 191.807 6.696 191.561 6.92L190.281 13H187.977L189.673 5ZM196.937 13.064C196.147 13.064 195.523 12.8613 195.065 12.456C194.606 12.0507 194.377 11.4107 194.377 10.536C194.377 9.81067 194.526 9.00533 194.825 8.12C195.123 7.23467 195.603 6.472 196.265 5.832C196.926 5.18133 197.758 4.856 198.761 4.856C200.126 4.856 200.809 5.70933 200.809 7.416V7.432C200.841 7.44267 200.899 7.448 200.985 7.448C201.337 7.448 201.742 7.35733 202.201 7.176C202.659 6.984 203.075 6.75467 203.449 6.488L203.593 6.92C203.283 7.25067 202.878 7.53333 202.377 7.768C201.886 7.992 201.347 8.152 200.761 8.248C200.675 9.21867 200.457 10.0667 200.105 10.792C199.753 11.5173 199.299 12.0773 198.745 12.472C198.19 12.8667 197.587 13.064 196.937 13.064ZM197.577 11.624C197.833 11.624 198.089 11.48 198.345 11.192C198.601 10.8933 198.825 10.4933 199.017 9.992C199.209 9.48 199.347 8.91467 199.433 8.296C199.145 8.232 199.001 8.008 199.001 7.624C199.001 7.18667 199.166 6.89867 199.497 6.76C199.475 6.408 199.422 6.168 199.337 6.04C199.251 5.90133 199.102 5.832 198.889 5.832C198.537 5.832 198.195 6.088 197.865 6.6C197.534 7.112 197.267 7.72533 197.065 8.44C196.862 9.15467 196.761 9.784 196.761 10.328C196.761 10.84 196.819 11.1867 196.937 11.368C197.054 11.5387 197.267 11.624 197.577 11.624ZM200.304 17C199.717 17 199.243 16.8347 198.88 16.504C198.507 16.184 198.32 15.752 198.32 15.208C198.32 14.76 198.448 14.392 198.704 14.104C198.96 13.816 199.275 13.5867 199.648 13.416C200.021 13.2453 200.501 13.064 201.088 12.872L202.864 4.456C203.152 3.13333 203.632 2.232 204.304 1.752C204.976 1.26133 205.744 1.016 206.608 1.016C207.408 1.016 208.085 1.14933 208.64 1.416C209.195 1.68267 209.472 2.16267 209.472 2.856C209.472 3.304 209.349 3.63467 209.104 3.848C208.869 4.05067 208.571 4.152 208.208 4.152C207.931 4.152 207.701 4.088 207.52 3.96C207.339 3.82133 207.248 3.59733 207.248 3.288C207.248 3.08533 207.296 2.904 207.392 2.744C207.499 2.584 207.632 2.504 207.792 2.504C207.867 2.504 207.909 2.50933 207.92 2.52C207.909 2.30667 207.824 2.14667 207.664 2.04C207.515 1.93333 207.307 1.88 207.04 1.88C206.571 1.88 206.192 2.05067 205.904 2.392C205.627 2.73333 205.44 3.16533 205.344 3.688L205.072 5H206.352L206.224 5.64H204.944L203.12 14.28C202.907 15.2827 202.539 15.9867 202.016 16.392C201.493 16.7973 200.923 17 200.304 17ZM207.488 13.096C206.976 13.096 206.56 12.936 206.24 12.616C205.931 12.296 205.776 11.816 205.776 11.176C205.776 10.9093 205.819 10.5627 205.904 10.136L206.992 5H209.296L208.144 10.44C208.101 10.6 208.08 10.7707 208.08 10.952C208.08 11.1653 208.128 11.32 208.224 11.416C208.331 11.5013 208.501 11.544 208.736 11.544C209.045 11.544 209.333 11.416 209.6 11.16C209.867 10.8933 210.059 10.552 210.176 10.136H210.848C210.453 11.288 209.947 12.072 209.328 12.488C208.709 12.8933 208.096 13.096 207.488 13.096ZM199.856 15.576C200.037 15.576 200.219 15.4747 200.4 15.272C200.571 15.0693 200.699 14.7547 200.784 14.328L200.976 13.4C200.432 13.5707 200 13.784 199.68 14.04C199.36 14.3067 199.2 14.6053 199.2 14.936C199.2 15.1707 199.275 15.336 199.424 15.432C199.573 15.528 199.717 15.576 199.856 15.576ZM211.763 13.096C211.251 13.096 210.835 12.936 210.515 12.616C210.206 12.296 210.051 11.816 210.051 11.176C210.051 10.9093 210.094 10.5627 210.179 10.136L211.891 2.12L214.259 1.8L212.419 10.44C212.376 10.6 212.355 10.7707 212.355 10.952C212.355 11.1653 212.403 11.32 212.499 11.416C212.606 11.5013 212.776 11.544 213.011 11.544C213.32 11.544 213.608 11.416 213.875 11.16C214.142 10.8933 214.334 10.552 214.451 10.136H215.123C214.728 11.288 214.222 12.072 213.603 12.488C212.984 12.8933 212.371 13.096 211.763 13.096ZM216.701 13.096C215.922 13.096 215.314 12.8933 214.877 12.488C214.439 12.072 214.221 11.4267 214.221 10.552C214.221 9.816 214.365 9.00533 214.653 8.12C214.941 7.23467 215.41 6.472 216.061 5.832C216.711 5.18133 217.538 4.856 218.541 4.856C219.714 4.856 220.301 5.368 220.301 6.392C220.301 6.98933 220.13 7.53867 219.789 8.04C219.447 8.54133 218.994 8.94667 218.429 9.256C217.863 9.55467 217.261 9.72533 216.621 9.768C216.599 10.0027 216.589 10.1627 216.589 10.248C216.589 11.1333 216.919 11.576 217.581 11.576C217.879 11.576 218.199 11.496 218.541 11.336C218.882 11.176 219.191 10.9733 219.469 10.728C219.181 12.3067 218.258 13.096 216.701 13.096ZM216.733 9C217.138 8.98933 217.517 8.856 217.869 8.6C218.231 8.344 218.519 8.01867 218.733 7.624C218.957 7.21867 219.069 6.79733 219.069 6.36C219.069 5.92267 218.935 5.704 218.669 5.704C218.295 5.704 217.922 6.04533 217.549 6.728C217.186 7.4 216.914 8.15733 216.733 9ZM223.088 1.304L225.552 0.967999L223.232 9.304H221.872L223.088 1.304ZM222.096 13.096C221.744 13.096 221.44 12.9733 221.184 12.728C220.939 12.472 220.816 12.168 220.816 11.816C220.816 11.464 220.939 11.1653 221.184 10.92C221.44 10.6747 221.744 10.552 222.096 10.552C222.448 10.552 222.747 10.6747 222.992 10.92C223.237 11.1653 223.36 11.464 223.36 11.816C223.36 12.168 223.237 12.472 222.992 12.728C222.747 12.9733 222.448 13.096 222.096 13.096Z" fill="#10D5F0"/>
</svg>
