<svg width="367" height="27" viewBox="0 0 367 27" fill="none" xmlns="http://www.w3.org/2000/svg">
<path d="M6.86129 2.242C5.63063 2.71 4.67729 3.438 4.00129 4.426C3.32529 5.39667 2.98729 6.59267 2.98729 8.014C2.98729 8.65533 3.04796 9.106 3.16929 9.366C3.29063 9.60867 3.35129 9.74733 3.35129 9.782C2.41529 9.782 1.71329 9.59133 1.24529 9.21C0.794625 8.81133 0.569292 8.16133 0.569292 7.26C0.569292 6.15067 1.01996 5.076 1.92129 4.036C2.83996 2.97867 4.00996 2.12933 5.43129 1.488C6.85263 0.829332 8.27396 0.499998 9.69529 0.499998C9.93796 0.499998 10.2846 0.517332 10.7353 0.551999L10.9693 16.542L16.4293 0.629998H19.7313L19.9653 16.542L25.4253 0.629998H27.2453L20.0173 20H16.2733L15.9613 6.766L11.0213 20H7.27729L6.86129 2.242ZM29.1411 20.156C27.8584 20.156 26.8617 19.8267 26.1511 19.168C25.4404 18.492 25.0851 17.4433 25.0851 16.022C25.0851 14.826 25.3191 13.5087 25.7871 12.07C26.2551 10.6313 27.0177 9.392 28.0751 8.352C29.1324 7.29467 30.4757 6.766 32.1051 6.766C34.0117 6.766 34.9651 7.598 34.9651 9.262C34.9651 10.2327 34.6877 11.1253 34.1331 11.94C33.5784 12.7547 32.8417 13.4133 31.9231 13.916C31.0044 14.4013 30.0251 14.6787 28.9851 14.748C28.9504 15.268 28.9331 15.6147 28.9331 15.788C28.9331 16.6373 29.0804 17.218 29.3751 17.53C29.6697 17.8247 30.1464 17.972 30.8051 17.972C31.7411 17.972 32.5384 17.7553 33.1971 17.322C33.8731 16.8887 34.6097 16.23 35.4071 15.346H36.2911C34.3671 18.5527 31.9837 20.156 29.1411 20.156ZM29.1931 13.5C29.8344 13.4653 30.4411 13.24 31.0131 12.824C31.6024 12.408 32.0704 11.8793 32.4171 11.238C32.7811 10.5967 32.9631 9.92067 32.9631 9.21C32.9631 8.49933 32.7464 8.144 32.3131 8.144C31.6891 8.144 31.0737 8.69 30.4671 9.782C29.8777 10.874 29.4531 12.1133 29.1931 13.5ZM37.9756 20.156C37.1436 20.156 36.4676 19.896 35.9476 19.376C35.4449 18.856 35.1936 18.076 35.1936 17.036C35.1936 16.6027 35.2629 16.0393 35.4016 15.346L38.1836 2.32L42.0316 1.8L39.0416 15.84C38.9722 16.1 38.9376 16.3773 38.9376 16.672C38.9376 17.0187 39.0156 17.27 39.1716 17.426C39.3449 17.5647 39.6222 17.634 40.0036 17.634C40.5062 17.634 40.9742 17.426 41.4076 17.01C41.8409 16.5767 42.1529 16.022 42.3436 15.346H43.4356C42.7942 17.218 41.9709 18.492 40.9656 19.168C39.9602 19.8267 38.9636 20.156 37.9756 20.156ZM46.0512 20.156C44.7685 20.156 43.7719 19.8267 43.0612 19.168C42.3505 18.492 41.9952 17.4433 41.9952 16.022C41.9952 14.826 42.2292 13.5087 42.6972 12.07C43.1825 10.6313 43.9452 9.392 44.9852 8.352C46.0425 7.29467 47.3772 6.766 48.9892 6.766C50.0292 6.766 50.7659 6.99133 51.1992 7.442C51.6499 7.89267 51.8752 8.46467 51.8752 9.158C51.8752 9.76467 51.7452 10.2327 51.4852 10.562C51.2252 10.8913 50.8959 11.056 50.4972 11.056C50.2025 11.056 49.8992 10.952 49.5872 10.744C49.7952 10.172 49.8992 9.66067 49.8992 9.21C49.8992 8.88067 49.8385 8.62067 49.7172 8.43C49.5959 8.23933 49.4139 8.144 49.1712 8.144C48.6512 8.144 48.1312 8.56867 47.6112 9.418C47.0912 10.2673 46.6665 11.2987 46.3372 12.512C46.0079 13.7253 45.8432 14.8173 45.8432 15.788C45.8432 16.6373 45.9905 17.218 46.2852 17.53C46.5799 17.8247 47.0565 17.972 47.7152 17.972C48.6512 17.972 49.4485 17.7553 50.1072 17.322C50.7832 16.8887 51.5199 16.23 52.3172 15.346H53.2012C51.2772 18.5527 48.8939 20.156 46.0512 20.156ZM56.1077 20.104C54.8251 20.104 53.8111 19.7747 53.0657 19.116C52.3204 18.4573 51.9477 17.4173 51.9477 15.996C51.9477 14.8173 52.1904 13.5087 52.6757 12.07C53.1611 10.6313 53.9411 9.392 55.0157 8.352C56.0904 7.29467 57.4424 6.766 59.0717 6.766C61.2904 6.766 62.3997 8.15267 62.3997 10.926V10.952C62.4517 10.9693 62.5471 10.978 62.6857 10.978C63.2577 10.978 63.9164 10.8307 64.6617 10.536C65.4071 10.224 66.0831 9.85133 66.6897 9.418L66.9237 10.12C66.4211 10.6573 65.7624 11.1167 64.9477 11.498C64.1504 11.862 63.2751 12.122 62.3217 12.278C62.1831 13.8553 61.8277 15.2333 61.2557 16.412C60.6837 17.5907 59.9471 18.5007 59.0457 19.142C58.1444 19.7833 57.1651 20.104 56.1077 20.104ZM57.1477 17.764C57.5637 17.764 57.9797 17.53 58.3957 17.062C58.8117 16.5767 59.1757 15.9267 59.4877 15.112C59.7997 14.28 60.0251 13.3613 60.1637 12.356C59.6957 12.252 59.4617 11.888 59.4617 11.264C59.4617 10.5533 59.7304 10.0853 60.2677 9.86C60.2331 9.288 60.1464 8.898 60.0077 8.69C59.8691 8.46467 59.6264 8.352 59.2797 8.352C58.7077 8.352 58.1531 8.768 57.6157 9.6C57.0784 10.432 56.6451 11.4287 56.3157 12.59C55.9864 13.7513 55.8217 14.774 55.8217 15.658C55.8217 16.49 55.9171 17.0533 56.1077 17.348C56.2984 17.6253 56.6451 17.764 57.1477 17.764ZM79.5455 20.156C78.4882 20.156 77.7082 19.8787 77.2055 19.324C76.7202 18.752 76.4775 18.05 76.4775 17.218C76.4775 16.854 76.5208 16.4467 76.6075 15.996C76.6942 15.528 76.7808 15.0773 76.8675 14.644C76.9715 14.2107 77.0408 13.9333 77.0755 13.812C77.2142 13.2053 77.3442 12.6073 77.4655 12.018C77.5868 11.4287 77.6475 10.952 77.6475 10.588C77.6475 9.704 77.3355 9.262 76.7115 9.262C76.2608 9.262 75.8622 9.48733 75.5155 9.938C75.1688 10.3713 74.8915 10.9433 74.6835 11.654L72.9155 20H69.1715L71.0695 11.03C71.1215 10.822 71.1475 10.6053 71.1475 10.38C71.1475 9.61733 70.8875 9.236 70.3675 9.236C69.8822 9.236 69.4575 9.46133 69.0935 9.912C68.7468 10.3453 68.4695 10.926 68.2615 11.654L66.4935 20H62.7495L65.5055 7H69.2495L68.9635 8.352C69.8475 7.364 70.9048 6.87 72.1355 6.87C73.6608 6.87 74.5535 7.61533 74.8135 9.106C75.7668 7.63267 76.9715 6.896 78.4275 6.896C79.3115 6.896 80.0135 7.13867 80.5335 7.624C81.0535 8.10933 81.3135 8.846 81.3135 9.834C81.3135 10.3367 81.2528 10.9 81.1315 11.524C81.0102 12.1307 80.8368 12.876 80.6115 13.76C80.4728 14.2973 80.3428 14.826 80.2215 15.346C80.1175 15.8487 80.0655 16.2473 80.0655 16.542C80.0655 16.8887 80.1435 17.1573 80.2995 17.348C80.4555 17.5387 80.7242 17.634 81.1055 17.634C81.6255 17.634 82.0415 17.452 82.3535 17.088C82.6655 16.7067 82.9775 16.126 83.2895 15.346H84.3815C83.7402 17.2527 82.9948 18.5353 82.1455 19.194C81.3135 19.8353 80.4468 20.156 79.5455 20.156ZM86.9543 20.156C85.689 20.156 84.701 19.8267 83.9903 19.168C83.2796 18.492 82.9243 17.4433 82.9243 16.022C82.9243 14.826 83.1583 13.5087 83.6263 12.07C84.0943 10.6313 84.857 9.392 85.9143 8.352C86.9716 7.29467 88.315 6.766 89.9443 6.766C91.851 6.766 92.8043 7.598 92.8043 9.262C92.8043 10.2327 92.527 11.1253 91.9723 11.94C91.4176 12.7547 90.681 13.4133 89.7623 13.916C88.8436 14.4013 87.8643 14.6787 86.8243 14.748C86.7896 15.1293 86.7723 15.3893 86.7723 15.528C86.7723 16.9667 87.3096 17.686 88.3843 17.686C88.8696 17.686 89.3896 17.556 89.9443 17.296C90.499 17.036 91.0016 16.7067 91.4523 16.308C90.9843 18.8733 89.485 20.156 86.9543 20.156ZM87.0063 13.5C87.665 13.4827 88.2803 13.266 88.8523 12.85C89.4416 12.434 89.9096 11.9053 90.2563 11.264C90.6203 10.6053 90.8023 9.92067 90.8023 9.21C90.8023 8.49933 90.5856 8.144 90.1523 8.144C89.5456 8.144 88.939 8.69867 88.3323 9.808C87.743 10.9 87.301 12.1307 87.0063 13.5ZM101.02 20.156C100.188 20.156 99.5125 19.896 98.9925 19.376C98.4898 18.856 98.2385 18.076 98.2385 17.036C98.2385 16.6027 98.3078 16.0393 98.4465 15.346L100.006 8.04H99.1485L99.3565 7H100.214L100.994 3.412L104.842 2.892L103.958 7H105.518L105.31 8.04H103.75L102.086 15.84C102.017 16.1 101.982 16.3773 101.982 16.672C101.982 17.0187 102.06 17.27 102.216 17.426C102.39 17.5647 102.667 17.634 103.048 17.634C103.551 17.634 104.019 17.426 104.452 17.01C104.886 16.5767 105.198 16.022 105.388 15.346H106.48C105.839 17.218 105.016 18.492 104.01 19.168C103.005 19.8267 102.008 20.156 101.02 20.156ZM109.174 20.104C107.891 20.104 106.877 19.7747 106.132 19.116C105.387 18.4573 105.014 17.4173 105.014 15.996C105.014 14.8 105.248 13.4913 105.716 12.07C106.184 10.6313 106.947 9.392 108.004 8.352C109.061 7.29467 110.413 6.766 112.06 6.766C114.105 6.766 115.206 7.936 115.362 10.276C115.743 10.1893 116.081 9.98133 116.376 9.652C116.671 9.30533 116.948 8.91533 117.208 8.482H118.04C117.572 9.418 117.156 10.1547 116.792 10.692C116.428 11.212 115.951 11.6367 115.362 11.966C115.258 13.5953 114.92 15.0253 114.348 16.256C113.793 17.4867 113.065 18.44 112.164 19.116C111.263 19.7747 110.266 20.104 109.174 20.104ZM110.214 17.764C110.855 17.764 111.453 17.244 112.008 16.204C112.563 15.164 112.944 13.8813 113.152 12.356C112.736 12.2 112.528 11.81 112.528 11.186C112.528 10.51 112.771 10.0593 113.256 9.834C113.221 9.27933 113.126 8.898 112.97 8.69C112.831 8.46467 112.597 8.352 112.268 8.352C111.696 8.352 111.15 8.768 110.63 9.6C110.11 10.4147 109.685 11.4113 109.356 12.59C109.044 13.7513 108.888 14.774 108.888 15.658C108.888 16.49 108.983 17.0533 109.174 17.348C109.365 17.6253 109.711 17.764 110.214 17.764ZM128.651 20.468C127.073 20.468 125.877 20.0347 125.063 19.168C124.265 18.3013 123.867 17.2093 123.867 15.892C123.867 14.956 124.057 14.02 124.439 13.084C124.837 12.1307 125.401 11.2987 126.129 10.588C126.857 9.87733 127.706 9.40067 128.677 9.158C128.139 8.77667 127.741 8.31733 127.481 7.78C127.221 7.22533 127.091 6.64467 127.091 6.038C127.091 5.13667 127.333 4.25267 127.819 3.386C128.321 2.51933 129.006 1.81733 129.873 1.28C130.757 0.725332 131.727 0.447999 132.785 0.447999C133.877 0.447999 134.769 0.733999 135.463 1.306C136.156 1.878 136.503 2.67533 136.503 3.698C136.503 4.46067 136.312 5.102 135.931 5.622C135.549 6.142 135.099 6.402 134.579 6.402C134.111 6.402 133.703 6.168 133.357 5.7C133.669 5.596 133.937 5.31 134.163 4.842C134.388 4.374 134.501 3.906 134.501 3.438C134.501 2.93533 134.362 2.57133 134.085 2.346C133.807 2.10333 133.469 1.982 133.071 1.982C132.568 1.982 132.109 2.164 131.693 2.528C131.294 2.87467 130.982 3.334 130.757 3.906C130.531 4.46067 130.419 5.04133 130.419 5.648C130.419 6.48 130.635 7.21667 131.069 7.858C131.502 8.482 132.161 8.90667 133.045 9.132C132.161 9.32267 131.363 9.756 130.653 10.432C129.942 11.108 129.387 11.8967 128.989 12.798C128.59 13.682 128.391 14.5313 128.391 15.346C128.391 16.126 128.59 16.7587 128.989 17.244C129.405 17.7293 130.029 17.972 130.861 17.972C131.727 17.972 132.629 17.738 133.565 17.27C134.518 16.7847 135.22 16.1347 135.671 15.32L136.269 15.58C135.593 17.0707 134.553 18.258 133.149 19.142C131.745 20.026 130.245 20.468 128.651 20.468ZM138.192 20.156C137.36 20.156 136.684 19.896 136.164 19.376C135.662 18.856 135.41 18.076 135.41 17.036C135.41 16.6027 135.48 16.0393 135.618 15.346L138.4 2.32L142.248 1.8L139.258 15.84C139.189 16.1 139.154 16.3773 139.154 16.672C139.154 17.0187 139.232 17.27 139.388 17.426C139.562 17.5647 139.839 17.634 140.22 17.634C140.723 17.634 141.191 17.426 141.624 17.01C142.058 16.5767 142.37 16.022 142.56 15.346H143.652C143.011 17.218 142.188 18.492 141.182 19.168C140.177 19.8267 139.18 20.156 138.192 20.156ZM151.286 0.499998H154.016L150.87 5.414H148.92L151.286 0.499998ZM145.67 20.156C144.682 20.156 143.859 19.818 143.2 19.142C142.541 18.466 142.212 17.4087 142.212 15.97C142.212 14.6873 142.463 13.344 142.966 11.94C143.486 10.5187 144.249 9.32267 145.254 8.352C146.277 7.364 147.49 6.87 148.894 6.87C149.605 6.87 150.133 6.99133 150.48 7.234C150.827 7.47667 151 7.79733 151 8.196V8.378L151.286 7H155.03L153.158 15.84C153.089 16.1 153.054 16.3773 153.054 16.672C153.054 17.4173 153.409 17.79 154.12 17.79C154.605 17.79 155.021 17.5647 155.368 17.114C155.732 16.6633 156.018 16.074 156.226 15.346H157.318C156.677 17.218 155.879 18.492 154.926 19.168C153.99 19.8267 153.045 20.156 152.092 20.156C151.364 20.156 150.775 19.9567 150.324 19.558C149.891 19.142 149.631 18.544 149.544 17.764C149.041 18.4747 148.478 19.0553 147.854 19.506C147.247 19.9393 146.519 20.156 145.67 20.156ZM147.36 17.634C147.793 17.634 148.218 17.4347 148.634 17.036C149.067 16.62 149.362 16.0567 149.518 15.346L150.766 9.47C150.766 9.24467 150.679 9.028 150.506 8.82C150.333 8.59467 150.064 8.482 149.7 8.482C149.007 8.482 148.383 8.88933 147.828 9.704C147.273 10.5013 146.84 11.472 146.528 12.616C146.216 13.7427 146.06 14.7393 146.06 15.606C146.06 16.4727 146.181 17.0273 146.424 17.27C146.684 17.5127 146.996 17.634 147.36 17.634ZM159.356 20.156C158.368 20.156 157.544 19.818 156.886 19.142C156.227 18.466 155.898 17.4087 155.898 15.97C155.898 14.6873 156.149 13.344 156.652 11.94C157.172 10.5187 157.934 9.32267 158.94 8.352C159.962 7.364 161.176 6.87 162.58 6.87C163.29 6.87 163.819 6.99133 164.166 7.234C164.512 7.47667 164.686 7.79733 164.686 8.196V8.3L165.96 2.32L169.808 1.8L166.818 15.84C166.748 16.1 166.714 16.3773 166.714 16.672C166.714 17.0187 166.792 17.27 166.948 17.426C167.121 17.5647 167.398 17.634 167.78 17.634C168.265 17.634 168.681 17.426 169.028 17.01C169.392 16.594 169.678 16.0393 169.886 15.346H170.978C169.92 18.4487 168.178 20 165.752 20C165.041 20 164.46 19.8093 164.01 19.428C163.576 19.0467 163.308 18.492 163.204 17.764C162.753 18.4573 162.207 19.0293 161.566 19.48C160.942 19.9307 160.205 20.156 159.356 20.156ZM161.046 17.634C161.462 17.634 161.878 17.4433 162.294 17.062C162.727 16.6807 163.022 16.152 163.178 15.476V15.346L164.452 9.392C164.296 8.78533 163.94 8.482 163.386 8.482C162.692 8.482 162.068 8.88933 161.514 9.704C160.959 10.5013 160.526 11.472 160.214 12.616C159.902 13.7427 159.746 14.7393 159.746 15.606C159.746 16.4727 159.867 17.0273 160.11 17.27C160.37 17.5127 160.682 17.634 161.046 17.634ZM174.238 5.596C173.666 5.596 173.18 5.39667 172.782 4.998C172.383 4.59933 172.184 4.114 172.184 3.542C172.184 2.97 172.383 2.48467 172.782 2.086C173.18 1.67 173.666 1.462 174.238 1.462C174.81 1.462 175.295 1.67 175.694 2.086C176.11 2.48467 176.318 2.97 176.318 3.542C176.318 4.114 176.11 4.59933 175.694 4.998C175.295 5.39667 174.81 5.596 174.238 5.596ZM172.47 20.156C171.638 20.156 170.962 19.896 170.442 19.376C169.939 18.856 169.688 18.076 169.688 17.036C169.688 16.6027 169.757 16.0393 169.896 15.346L171.664 7H175.408L173.536 15.84C173.466 16.1 173.432 16.3773 173.432 16.672C173.432 17.0187 173.51 17.27 173.666 17.426C173.839 17.5647 174.116 17.634 174.498 17.634C175 17.634 175.468 17.426 175.902 17.01C176.335 16.5767 176.647 16.022 176.838 15.346H177.93C177.288 17.218 176.465 18.492 175.46 19.168C174.454 19.8267 173.458 20.156 172.47 20.156ZM180.623 20.104C179.341 20.104 178.327 19.7747 177.581 19.116C176.836 18.4573 176.463 17.4173 176.463 15.996C176.463 14.8 176.697 13.4913 177.165 12.07C177.633 10.6313 178.396 9.392 179.453 8.352C180.511 7.29467 181.863 6.766 183.509 6.766C185.555 6.766 186.655 7.936 186.811 10.276C187.193 10.1893 187.531 9.98133 187.825 9.652C188.12 9.30533 188.397 8.91533 188.657 8.482H189.489C189.021 9.418 188.605 10.1547 188.241 10.692C187.877 11.212 187.401 11.6367 186.811 11.966C186.707 13.5953 186.369 15.0253 185.797 16.256C185.243 17.4867 184.515 18.44 183.613 19.116C182.712 19.7747 181.715 20.104 180.623 20.104ZM181.663 17.764C182.305 17.764 182.903 17.244 183.457 16.204C184.012 15.164 184.393 13.8813 184.601 12.356C184.185 12.2 183.977 11.81 183.977 11.186C183.977 10.51 184.22 10.0593 184.705 9.834C184.671 9.27933 184.575 8.898 184.419 8.69C184.281 8.46467 184.047 8.352 183.717 8.352C183.145 8.352 182.599 8.768 182.079 9.6C181.559 10.4147 181.135 11.4113 180.805 12.59C180.493 13.7513 180.337 14.774 180.337 15.658C180.337 16.49 180.433 17.0533 180.623 17.348C180.814 17.6253 181.161 17.764 181.663 17.764ZM201.322 20.416C199.363 20.416 197.925 19.922 197.006 18.934C196.087 17.946 195.628 16.308 195.628 14.02C195.628 12.2 195.931 10.2413 196.538 8.144C197.162 6.04667 198.15 4.25267 199.502 2.762C200.871 1.254 202.605 0.499998 204.702 0.499998C206.002 0.499998 207.051 0.785999 207.848 1.358C208.645 1.93 209.044 2.80533 209.044 3.984C209.044 4.72933 208.897 5.31867 208.602 5.752C208.307 6.168 207.848 6.376 207.224 6.376C206.6 6.376 206.106 6.15067 205.742 5.7C206.054 5.544 206.331 5.232 206.574 4.764C206.817 4.296 206.938 3.81067 206.938 3.308C206.938 2.84 206.808 2.45867 206.548 2.164C206.305 1.86933 205.907 1.722 205.352 1.722C204.433 1.722 203.558 2.35467 202.726 3.62C201.894 4.868 201.218 6.44533 200.698 8.352C200.195 10.2587 199.944 12.096 199.944 13.864C199.944 15.1813 200.169 16.1867 200.62 16.88C201.071 17.5733 201.885 17.92 203.064 17.92C204.087 17.92 205.031 17.6947 205.898 17.244C206.765 16.7933 207.51 16.152 208.134 15.32L208.732 15.58C208.299 16.672 207.657 17.582 206.808 18.31C205.959 19.038 205.049 19.5753 204.078 19.922C203.107 20.2513 202.189 20.416 201.322 20.416ZM210.632 20.156C209.8 20.156 209.124 19.896 208.604 19.376C208.101 18.856 207.85 18.076 207.85 17.036C207.85 16.6027 207.919 16.0393 208.058 15.346L210.84 2.32L214.688 1.8L211.698 15.84C211.628 16.1 211.594 16.3773 211.594 16.672C211.594 17.0187 211.672 17.27 211.828 17.426C212.001 17.5647 212.278 17.634 212.66 17.634C213.162 17.634 213.63 17.426 214.064 17.01C214.497 16.5767 214.809 16.022 215 15.346H216.092C215.45 17.218 214.627 18.492 213.622 19.168C212.616 19.8267 211.62 20.156 210.632 20.156ZM223.725 0.499998H226.455L223.309 5.414H221.359L223.725 0.499998ZM218.109 20.156C217.121 20.156 216.298 19.818 215.639 19.142C214.981 18.466 214.651 17.4087 214.651 15.97C214.651 14.6873 214.903 13.344 215.405 11.94C215.925 10.5187 216.688 9.32267 217.693 8.352C218.716 7.364 219.929 6.87 221.333 6.87C222.044 6.87 222.573 6.99133 222.919 7.234C223.266 7.47667 223.439 7.79733 223.439 8.196V8.378L223.725 7H227.469L225.597 15.84C225.528 16.1 225.493 16.3773 225.493 16.672C225.493 17.4173 225.849 17.79 226.559 17.79C227.045 17.79 227.461 17.5647 227.807 17.114C228.171 16.6633 228.457 16.074 228.665 15.346H229.757C229.116 17.218 228.319 18.492 227.365 19.168C226.429 19.8267 225.485 20.156 224.531 20.156C223.803 20.156 223.214 19.9567 222.763 19.558C222.33 19.142 222.07 18.544 221.983 17.764C221.481 18.4747 220.917 19.0553 220.293 19.506C219.687 19.9393 218.959 20.156 218.109 20.156ZM219.799 17.634C220.233 17.634 220.657 17.4347 221.073 17.036C221.507 16.62 221.801 16.0567 221.957 15.346L223.205 9.47C223.205 9.24467 223.119 9.028 222.945 8.82C222.772 8.59467 222.503 8.482 222.139 8.482C221.446 8.482 220.822 8.88933 220.267 9.704C219.713 10.5013 219.279 11.472 218.967 12.616C218.655 13.7427 218.499 14.7393 218.499 15.606C218.499 16.4727 218.621 17.0273 218.863 17.27C219.123 17.5127 219.435 17.634 219.799 17.634ZM231.249 20.156C230.417 20.156 229.741 19.896 229.221 19.376C228.718 18.856 228.467 18.076 228.467 17.036C228.467 16.6027 228.536 16.0393 228.675 15.346L230.443 7H234.187L232.315 15.84C232.263 16.1 232.237 16.3427 232.237 16.568C232.237 17.2787 232.497 17.634 233.017 17.634C233.502 17.634 233.918 17.4347 234.265 17.036C234.612 16.62 234.889 16.0567 235.097 15.346L236.865 7H240.609L238.737 15.84C238.668 16.1 238.633 16.3773 238.633 16.672C238.633 17.0187 238.711 17.27 238.867 17.426C239.04 17.5647 239.318 17.634 239.699 17.634C240.184 17.634 240.6 17.426 240.947 17.01C241.311 16.594 241.597 16.0393 241.805 15.346H242.897C242.256 17.218 241.458 18.492 240.505 19.168C239.569 19.8267 238.624 20.156 237.671 20.156C236.926 20.156 236.328 19.948 235.877 19.532C235.444 19.116 235.184 18.5007 235.097 17.686C234.508 18.6393 233.884 19.2893 233.225 19.636C232.584 19.9827 231.925 20.156 231.249 20.156ZM244.922 20.156C243.934 20.156 243.111 19.818 242.452 19.142C241.793 18.466 241.464 17.4087 241.464 15.97C241.464 14.6873 241.715 13.344 242.218 11.94C242.738 10.5187 243.501 9.32267 244.506 8.352C245.529 7.364 246.742 6.87 248.146 6.87C248.857 6.87 249.385 6.99133 249.732 7.234C250.079 7.47667 250.252 7.79733 250.252 8.196V8.3L251.526 2.32L255.374 1.8L252.384 15.84C252.315 16.1 252.28 16.3773 252.28 16.672C252.28 17.0187 252.358 17.27 252.514 17.426C252.687 17.5647 252.965 17.634 253.346 17.634C253.831 17.634 254.247 17.426 254.594 17.01C254.958 16.594 255.244 16.0393 255.452 15.346H256.544C255.487 18.4487 253.745 20 251.318 20C250.607 20 250.027 19.8093 249.576 19.428C249.143 19.0467 248.874 18.492 248.77 17.764C248.319 18.4573 247.773 19.0293 247.132 19.48C246.508 19.9307 245.771 20.156 244.922 20.156ZM246.612 17.634C247.028 17.634 247.444 17.4433 247.86 17.062C248.293 16.6807 248.588 16.152 248.744 15.476V15.346L250.018 9.392C249.862 8.78533 249.507 8.482 248.952 8.482C248.259 8.482 247.635 8.88933 247.08 9.704C246.525 10.5013 246.092 11.472 245.78 12.616C245.468 13.7427 245.312 14.7393 245.312 15.606C245.312 16.4727 245.433 17.0273 245.676 17.27C245.936 17.5127 246.248 17.634 246.612 17.634ZM259.804 5.596C259.232 5.596 258.747 5.39667 258.348 4.998C257.949 4.59933 257.75 4.114 257.75 3.542C257.75 2.97 257.949 2.48467 258.348 2.086C258.747 1.67 259.232 1.462 259.804 1.462C260.376 1.462 260.861 1.67 261.26 2.086C261.676 2.48467 261.884 2.97 261.884 3.542C261.884 4.114 261.676 4.59933 261.26 4.998C260.861 5.39667 260.376 5.596 259.804 5.596ZM258.036 20.156C257.204 20.156 256.528 19.896 256.008 19.376C255.505 18.856 255.254 18.076 255.254 17.036C255.254 16.6027 255.323 16.0393 255.462 15.346L257.23 7H260.974L259.102 15.84C259.033 16.1 258.998 16.3773 258.998 16.672C258.998 17.0187 259.076 17.27 259.232 17.426C259.405 17.5647 259.683 17.634 260.064 17.634C260.567 17.634 261.035 17.426 261.468 17.01C261.901 16.5767 262.213 16.022 262.404 15.346H263.496C262.855 17.218 262.031 18.492 261.026 19.168C260.021 19.8267 259.024 20.156 258.036 20.156ZM266.19 20.104C264.907 20.104 263.893 19.7747 263.148 19.116C262.402 18.4573 262.03 17.4173 262.03 15.996C262.03 14.8 262.264 13.4913 262.732 12.07C263.2 10.6313 263.962 9.392 265.02 8.352C266.077 7.29467 267.429 6.766 269.076 6.766C271.121 6.766 272.222 7.936 272.378 10.276C272.759 10.1893 273.097 9.98133 273.392 9.652C273.686 9.30533 273.964 8.91533 274.224 8.482H275.056C274.588 9.418 274.172 10.1547 273.808 10.692C273.444 11.212 272.967 11.6367 272.378 11.966C272.274 13.5953 271.936 15.0253 271.364 16.256C270.809 17.4867 270.081 18.44 269.18 19.116C268.278 19.7747 267.282 20.104 266.19 20.104ZM267.23 17.764C267.871 17.764 268.469 17.244 269.024 16.204C269.578 15.164 269.96 13.8813 270.168 12.356C269.752 12.2 269.544 11.81 269.544 11.186C269.544 10.51 269.786 10.0593 270.272 9.834C270.237 9.27933 270.142 8.898 269.986 8.69C269.847 8.46467 269.613 8.352 269.284 8.352C268.712 8.352 268.166 8.768 267.646 9.6C267.126 10.4147 266.701 11.4113 266.372 12.59C266.06 13.7513 265.904 14.774 265.904 15.658C265.904 16.49 265.999 17.0533 266.19 17.348C266.38 17.6253 266.727 17.764 267.23 17.764ZM279.094 0.447999H281.824L278.964 6.48H277.144L279.094 0.447999ZM283.131 20.156C282.299 20.156 281.597 20 281.025 19.688C280.453 19.3587 280.029 18.9427 279.751 18.44C279.474 17.92 279.335 17.3827 279.335 16.828C279.335 16.256 279.474 15.762 279.751 15.346C280.011 14.9127 280.332 14.6007 280.713 14.41C281.389 13.1967 281.979 11.9747 282.481 10.744C282.984 9.496 283.461 8.15267 283.911 6.714L287.759 6.194C287.846 8.41267 287.993 10.8133 288.201 13.396C288.288 14.436 288.331 15.19 288.331 15.658C288.331 16.7153 288.063 17.582 287.525 18.258C286.988 18.934 286.321 19.4193 285.523 19.714C284.743 20.0087 283.946 20.156 283.131 20.156ZM282.299 18.102C282.941 18.102 283.478 17.9113 283.911 17.53C284.345 17.1487 284.561 16.5333 284.561 15.684C284.561 15.164 284.509 14.436 284.405 13.5C284.232 11.524 284.119 10.198 284.067 9.522C283.651 10.8913 282.949 12.5293 281.961 14.436C282.36 14.644 282.559 14.9473 282.559 15.346C282.559 15.6753 282.447 15.97 282.221 16.23C282.013 16.49 281.745 16.62 281.415 16.62C281.051 16.62 280.817 16.5073 280.713 16.282C280.713 16.906 280.835 17.3653 281.077 17.66C281.337 17.9547 281.745 18.102 282.299 18.102ZM296.006 6.038H299.75L299.334 7.988C300.201 7.24267 301.215 6.87 302.376 6.87C303.347 6.87 304.118 7.19067 304.69 7.832C305.262 8.47333 305.548 9.522 305.548 10.978C305.548 12.3473 305.349 13.734 304.95 15.138C304.552 16.5247 303.876 17.712 302.922 18.7C301.969 19.6707 300.712 20.156 299.152 20.156C298.043 20.156 297.306 19.844 296.942 19.22L295.59 25.564L291.664 26.5L296.006 6.038ZM298.346 17.894C299.178 17.894 299.863 17.504 300.4 16.724C300.955 15.944 301.354 15.0167 301.596 13.942C301.856 12.85 301.986 11.836 301.986 10.9C301.986 9.46133 301.553 8.742 300.686 8.742C300.374 8.742 300.054 8.85467 299.724 9.08C299.412 9.30533 299.135 9.61733 298.892 10.016L297.358 17.296C297.497 17.6947 297.826 17.894 298.346 17.894ZM307.961 7H311.705L311.367 8.612C311.956 8.092 312.485 7.69333 312.953 7.416C313.438 7.13867 313.958 7 314.513 7C315.067 7 315.501 7.19067 315.813 7.572C316.142 7.95333 316.307 8.41267 316.307 8.95C316.307 9.45267 316.142 9.89467 315.813 10.276C315.483 10.6573 315.024 10.848 314.435 10.848C314.053 10.848 313.793 10.7613 313.655 10.588C313.533 10.3973 313.438 10.1287 313.369 9.782C313.317 9.55667 313.265 9.392 313.213 9.288C313.161 9.184 313.065 9.132 312.927 9.132C312.563 9.132 312.251 9.21 311.991 9.366C311.748 9.50467 311.427 9.756 311.029 10.12L308.949 20H305.205L307.961 7ZM319.764 20.104C318.481 20.104 317.467 19.7747 316.722 19.116C315.977 18.4573 315.604 17.4173 315.604 15.996C315.604 14.8173 315.847 13.5087 316.332 12.07C316.817 10.6313 317.597 9.392 318.672 8.352C319.747 7.29467 321.099 6.766 322.728 6.766C324.947 6.766 326.056 8.15267 326.056 10.926V10.952C326.108 10.9693 326.203 10.978 326.342 10.978C326.914 10.978 327.573 10.8307 328.318 10.536C329.063 10.224 329.739 9.85133 330.346 9.418L330.58 10.12C330.077 10.6573 329.419 11.1167 328.604 11.498C327.807 11.862 326.931 12.122 325.978 12.278C325.839 13.8553 325.484 15.2333 324.912 16.412C324.34 17.5907 323.603 18.5007 322.702 19.142C321.801 19.7833 320.821 20.104 319.764 20.104ZM320.804 17.764C321.22 17.764 321.636 17.53 322.052 17.062C322.468 16.5767 322.832 15.9267 323.144 15.112C323.456 14.28 323.681 13.3613 323.82 12.356C323.352 12.252 323.118 11.888 323.118 11.264C323.118 10.5533 323.387 10.0853 323.924 9.86C323.889 9.288 323.803 8.898 323.664 8.69C323.525 8.46467 323.283 8.352 322.936 8.352C322.364 8.352 321.809 8.768 321.272 9.6C320.735 10.432 320.301 11.4287 319.972 12.59C319.643 13.7513 319.478 14.774 319.478 15.658C319.478 16.49 319.573 17.0533 319.764 17.348C319.955 17.6253 320.301 17.764 320.804 17.764ZM325.236 26.5C324.282 26.5 323.511 26.2313 322.922 25.694C322.315 25.174 322.012 24.472 322.012 23.588C322.012 22.86 322.22 22.262 322.636 21.794C323.052 21.326 323.563 20.9533 324.17 20.676C324.776 20.3987 325.556 20.104 326.51 19.792L329.396 6.116C329.864 3.96667 330.644 2.502 331.736 1.722C332.828 0.924666 334.076 0.526 335.48 0.526C336.78 0.526 337.88 0.742666 338.782 1.176C339.683 1.60933 340.134 2.38933 340.134 3.516C340.134 4.244 339.934 4.78133 339.536 5.128C339.154 5.45733 338.669 5.622 338.08 5.622C337.629 5.622 337.256 5.518 336.962 5.31C336.667 5.08467 336.52 4.72067 336.52 4.218C336.52 3.88867 336.598 3.594 336.754 3.334C336.927 3.074 337.144 2.944 337.404 2.944C337.525 2.944 337.594 2.95267 337.612 2.97C337.594 2.62333 337.456 2.36333 337.196 2.19C336.953 2.01667 336.615 1.93 336.182 1.93C335.419 1.93 334.804 2.20733 334.336 2.762C333.885 3.31667 333.582 4.01867 333.426 4.868L332.984 7H335.064L334.856 8.04H332.776L329.812 22.08C329.465 23.7093 328.867 24.8533 328.018 25.512C327.168 26.1707 326.241 26.5 325.236 26.5ZM336.91 20.156C336.078 20.156 335.402 19.896 334.882 19.376C334.379 18.856 334.128 18.076 334.128 17.036C334.128 16.6027 334.197 16.0393 334.336 15.346L336.104 7H339.848L337.976 15.84C337.906 16.1 337.872 16.3773 337.872 16.672C337.872 17.0187 337.95 17.27 338.106 17.426C338.279 17.5647 338.556 17.634 338.938 17.634C339.44 17.634 339.908 17.426 340.342 17.01C340.775 16.5767 341.087 16.022 341.278 15.346H342.37C341.728 17.218 340.905 18.492 339.9 19.168C338.894 19.8267 337.898 20.156 336.91 20.156ZM324.508 24.186C324.802 24.186 325.097 24.0213 325.392 23.692C325.669 23.3627 325.877 22.8513 326.016 22.158L326.328 20.65C325.444 20.9273 324.742 21.274 324.222 21.69C323.702 22.1233 323.442 22.6087 323.442 23.146C323.442 23.5273 323.563 23.796 323.806 23.952C324.048 24.108 324.282 24.186 324.508 24.186ZM343.856 20.156C343.024 20.156 342.348 19.896 341.828 19.376C341.326 18.856 341.074 18.076 341.074 17.036C341.074 16.6027 341.144 16.0393 341.282 15.346L344.064 2.32L347.912 1.8L344.922 15.84C344.853 16.1 344.818 16.3773 344.818 16.672C344.818 17.0187 344.896 17.27 345.052 17.426C345.226 17.5647 345.503 17.634 345.884 17.634C346.387 17.634 346.855 17.426 347.288 17.01C347.722 16.5767 348.034 16.022 348.224 15.346H349.316C348.675 17.218 347.852 18.492 346.846 19.168C345.841 19.8267 344.844 20.156 343.856 20.156ZM351.88 20.156C350.615 20.156 349.627 19.8267 348.916 19.168C348.205 18.492 347.85 17.4433 347.85 16.022C347.85 14.826 348.084 13.5087 348.552 12.07C349.02 10.6313 349.783 9.392 350.84 8.352C351.897 7.29467 353.241 6.766 354.87 6.766C356.777 6.766 357.73 7.598 357.73 9.262C357.73 10.2327 357.453 11.1253 356.898 11.94C356.343 12.7547 355.607 13.4133 354.688 13.916C353.769 14.4013 352.79 14.6787 351.75 14.748C351.715 15.1293 351.698 15.3893 351.698 15.528C351.698 16.9667 352.235 17.686 353.31 17.686C353.795 17.686 354.315 17.556 354.87 17.296C355.425 17.036 355.927 16.7067 356.378 16.308C355.91 18.8733 354.411 20.156 351.88 20.156ZM351.932 13.5C352.591 13.4827 353.206 13.266 353.778 12.85C354.367 12.434 354.835 11.9053 355.182 11.264C355.546 10.6053 355.728 9.92067 355.728 9.21C355.728 8.49933 355.511 8.144 355.078 8.144C354.471 8.144 353.865 8.69867 353.258 9.808C352.669 10.9 352.227 12.1307 351.932 13.5ZM362.26 0.994L366.264 0.447999L362.494 13.994H360.284L362.26 0.994ZM360.648 20.156C360.076 20.156 359.582 19.9567 359.166 19.558C358.767 19.142 358.568 18.648 358.568 18.076C358.568 17.504 358.767 17.0187 359.166 16.62C359.582 16.2213 360.076 16.022 360.648 16.022C361.22 16.022 361.705 16.2213 362.104 16.62C362.502 17.0187 362.702 17.504 362.702 18.076C362.702 18.648 362.502 19.142 362.104 19.558C361.705 19.9567 361.22 20.156 360.648 20.156Z" fill="#10D5F0"/>
</svg>
