<svg width="339" height="25" viewBox="0 0 339 25" fill="none" xmlns="http://www.w3.org/2000/svg">
<path d="M6.36529 2.608C5.22929 3.04 4.34929 3.712 3.72529 4.624C3.10129 5.52 2.78929 6.624 2.78929 7.936C2.78929 8.528 2.84529 8.944 2.95729 9.184C3.06929 9.408 3.12529 9.536 3.12529 9.568C2.26129 9.568 1.61329 9.392 1.18129 9.04C0.765292 8.672 0.557292 8.072 0.557292 7.24C0.557292 6.216 0.973292 5.224 1.80529 4.264C2.65329 3.288 3.73329 2.504 5.04529 1.912C6.35729 1.304 7.66929 0.999999 8.98129 0.999999C9.20529 0.999999 9.52529 1.016 9.94129 1.048L10.1573 15.808L15.1973 1.12H18.2453L18.4613 15.808L23.5013 1.12H25.1813L18.5093 19H15.0533L14.7653 6.784L10.2053 19H6.74929L6.36529 2.608ZM26.9312 19.144C25.7472 19.144 24.8272 18.84 24.1712 18.232C23.5152 17.608 23.1872 16.64 23.1872 15.328C23.1872 14.224 23.4032 13.008 23.8352 11.68C24.2672 10.352 24.9712 9.208 25.9472 8.248C26.9232 7.272 28.1632 6.784 29.6672 6.784C31.4272 6.784 32.3072 7.552 32.3072 9.088C32.3072 9.984 32.0512 10.808 31.5392 11.56C31.0272 12.312 30.3472 12.92 29.4992 13.384C28.6512 13.832 27.7472 14.088 26.7872 14.152C26.7552 14.632 26.7392 14.952 26.7392 15.112C26.7392 15.896 26.8752 16.432 27.1472 16.72C27.4192 16.992 27.8592 17.128 28.4672 17.128C29.3312 17.128 30.0672 16.928 30.6752 16.528C31.2992 16.128 31.9792 15.52 32.7152 14.704H33.5312C31.7552 17.664 29.5552 19.144 26.9312 19.144ZM26.9792 13C27.5712 12.968 28.1312 12.76 28.6592 12.376C29.2032 11.992 29.6352 11.504 29.9552 10.912C30.2912 10.32 30.4592 9.696 30.4592 9.04C30.4592 8.384 30.2592 8.056 29.8592 8.056C29.2832 8.056 28.7152 8.56 28.1552 9.568C27.6112 10.576 27.2192 11.72 26.9792 13ZM35.0862 19.144C34.3182 19.144 33.6942 18.904 33.2142 18.424C32.7502 17.944 32.5182 17.224 32.5182 16.264C32.5182 15.864 32.5822 15.344 32.7102 14.704L35.2782 2.68L38.8302 2.2L36.0702 15.16C36.0062 15.4 35.9742 15.656 35.9742 15.928C35.9742 16.248 36.0462 16.48 36.1902 16.624C36.3502 16.752 36.6062 16.816 36.9582 16.816C37.4222 16.816 37.8542 16.624 38.2542 16.24C38.6542 15.84 38.9422 15.328 39.1182 14.704H40.1262C39.5342 16.432 38.7742 17.608 37.8462 18.232C36.9182 18.84 35.9982 19.144 35.0862 19.144ZM42.5406 19.144C41.3566 19.144 40.4366 18.84 39.7806 18.232C39.1246 17.608 38.7966 16.64 38.7966 15.328C38.7966 14.224 39.0126 13.008 39.4446 11.68C39.8926 10.352 40.5966 9.208 41.5566 8.248C42.5326 7.272 43.7646 6.784 45.2526 6.784C46.2126 6.784 46.8926 6.992 47.2926 7.408C47.7086 7.824 47.9166 8.352 47.9166 8.992C47.9166 9.552 47.7966 9.984 47.5566 10.288C47.3166 10.592 47.0126 10.744 46.6446 10.744C46.3726 10.744 46.0926 10.648 45.8046 10.456C45.9966 9.928 46.0926 9.456 46.0926 9.04C46.0926 8.736 46.0366 8.496 45.9246 8.32C45.8126 8.144 45.6446 8.056 45.4206 8.056C44.9406 8.056 44.4606 8.448 43.9806 9.232C43.5006 10.016 43.1086 10.968 42.8046 12.088C42.5006 13.208 42.3486 14.216 42.3486 15.112C42.3486 15.896 42.4846 16.432 42.7566 16.72C43.0286 16.992 43.4686 17.128 44.0766 17.128C44.9406 17.128 45.6766 16.928 46.2846 16.528C46.9086 16.128 47.5886 15.52 48.3246 14.704H49.1406C47.3646 17.664 45.1646 19.144 42.5406 19.144ZM51.8235 19.096C50.6395 19.096 49.7035 18.792 49.0155 18.184C48.3275 17.576 47.9835 16.616 47.9835 15.304C47.9835 14.216 48.2075 13.008 48.6555 11.68C49.1035 10.352 49.8235 9.208 50.8155 8.248C51.8075 7.272 53.0555 6.784 54.5595 6.784C56.6075 6.784 57.6315 8.064 57.6315 10.624V10.648C57.6795 10.664 57.7675 10.672 57.8955 10.672C58.4235 10.672 59.0315 10.536 59.7195 10.264C60.4075 9.976 61.0315 9.632 61.5915 9.232L61.8075 9.88C61.3435 10.376 60.7355 10.8 59.9835 11.152C59.2475 11.488 58.4395 11.728 57.5595 11.872C57.4315 13.328 57.1035 14.6 56.5755 15.688C56.0475 16.776 55.3675 17.616 54.5355 18.208C53.7035 18.8 52.7995 19.096 51.8235 19.096ZM52.7835 16.936C53.1675 16.936 53.5515 16.72 53.9355 16.288C54.3195 15.84 54.6555 15.24 54.9435 14.488C55.2315 13.72 55.4395 12.872 55.5675 11.944C55.1355 11.848 54.9195 11.512 54.9195 10.936C54.9195 10.28 55.1675 9.848 55.6635 9.64C55.6315 9.112 55.5515 8.752 55.4235 8.56C55.2955 8.352 55.0715 8.248 54.7515 8.248C54.2235 8.248 53.7115 8.632 53.2155 9.4C52.7195 10.168 52.3195 11.088 52.0155 12.16C51.7115 13.232 51.5595 14.176 51.5595 14.992C51.5595 15.76 51.6475 16.28 51.8235 16.552C51.9995 16.808 52.3195 16.936 52.7835 16.936ZM73.4584 19.144C72.4824 19.144 71.7624 18.888 71.2984 18.376C70.8504 17.848 70.6264 17.2 70.6264 16.432C70.6264 16.096 70.6664 15.72 70.7464 15.304C70.8264 14.872 70.9064 14.456 70.9864 14.056C71.0824 13.656 71.1464 13.4 71.1784 13.288C71.3064 12.728 71.4264 12.176 71.5384 11.632C71.6504 11.088 71.7064 10.648 71.7064 10.312C71.7064 9.496 71.4184 9.088 70.8424 9.088C70.4264 9.088 70.0584 9.296 69.7384 9.712C69.4184 10.112 69.1624 10.64 68.9704 11.296L67.3384 19H63.8824L65.6344 10.72C65.6824 10.528 65.7064 10.328 65.7064 10.12C65.7064 9.416 65.4664 9.064 64.9864 9.064C64.5384 9.064 64.1464 9.272 63.8104 9.688C63.4904 10.088 63.2344 10.624 63.0424 11.296L61.4104 19H57.9544L60.4984 7H63.9544L63.6904 8.248C64.5064 7.336 65.4824 6.88 66.6184 6.88C68.0264 6.88 68.8504 7.568 69.0904 8.944C69.9704 7.584 71.0824 6.904 72.4264 6.904C73.2424 6.904 73.8904 7.128 74.3704 7.576C74.8504 8.024 75.0904 8.704 75.0904 9.616C75.0904 10.08 75.0344 10.6 74.9224 11.176C74.8104 11.736 74.6504 12.424 74.4424 13.24C74.3144 13.736 74.1944 14.224 74.0824 14.704C73.9864 15.168 73.9384 15.536 73.9384 15.808C73.9384 16.128 74.0104 16.376 74.1544 16.552C74.2984 16.728 74.5464 16.816 74.8984 16.816C75.3784 16.816 75.7624 16.648 76.0504 16.312C76.3384 15.96 76.6264 15.424 76.9144 14.704H77.9224C77.3304 16.464 76.6424 17.648 75.8584 18.256C75.0904 18.848 74.2904 19.144 73.4584 19.144ZM80.2973 19.144C79.1293 19.144 78.2173 18.84 77.5613 18.232C76.9053 17.608 76.5773 16.64 76.5773 15.328C76.5773 14.224 76.7933 13.008 77.2253 11.68C77.6573 10.352 78.3613 9.208 79.3373 8.248C80.3133 7.272 81.5533 6.784 83.0573 6.784C84.8173 6.784 85.6973 7.552 85.6973 9.088C85.6973 9.984 85.4413 10.808 84.9293 11.56C84.4173 12.312 83.7373 12.92 82.8893 13.384C82.0413 13.832 81.1373 14.088 80.1773 14.152C80.1453 14.504 80.1293 14.744 80.1293 14.872C80.1293 16.2 80.6253 16.864 81.6173 16.864C82.0653 16.864 82.5453 16.744 83.0573 16.504C83.5693 16.264 84.0333 15.96 84.4493 15.592C84.0173 17.96 82.6333 19.144 80.2973 19.144ZM80.3453 13C80.9533 12.984 81.5213 12.784 82.0493 12.4C82.5933 12.016 83.0253 11.528 83.3453 10.936C83.6813 10.328 83.8493 9.696 83.8493 9.04C83.8493 8.384 83.6493 8.056 83.2493 8.056C82.6893 8.056 82.1293 8.568 81.5693 9.592C81.0253 10.6 80.6173 11.736 80.3453 13ZM93.2815 19.144C92.5135 19.144 91.8895 18.904 91.4095 18.424C90.9455 17.944 90.7135 17.224 90.7135 16.264C90.7135 15.864 90.7775 15.344 90.9055 14.704L92.3455 7.96H91.5535L91.7455 7H92.5375L93.2575 3.688L96.8095 3.208L95.9935 7H97.4335L97.2415 7.96H95.8015L94.2655 15.16C94.2015 15.4 94.1695 15.656 94.1695 15.928C94.1695 16.248 94.2415 16.48 94.3855 16.624C94.5455 16.752 94.8015 16.816 95.1535 16.816C95.6175 16.816 96.0495 16.624 96.4495 16.24C96.8495 15.84 97.1375 15.328 97.3135 14.704H98.3215C97.7295 16.432 96.9695 17.608 96.0415 18.232C95.1135 18.84 94.1935 19.144 93.2815 19.144ZM100.808 19.096C99.6239 19.096 98.6879 18.792 97.9999 18.184C97.3119 17.576 96.9679 16.616 96.9679 15.304C96.9679 14.2 97.1839 12.992 97.6159 11.68C98.0479 10.352 98.7519 9.208 99.7279 8.248C100.704 7.272 101.952 6.784 103.472 6.784C105.36 6.784 106.376 7.864 106.52 10.024C106.872 9.944 107.184 9.752 107.456 9.448C107.728 9.128 107.984 8.768 108.224 8.368H108.992C108.56 9.232 108.176 9.912 107.84 10.408C107.504 10.888 107.064 11.28 106.52 11.584C106.424 13.088 106.112 14.408 105.584 15.544C105.072 16.68 104.4 17.56 103.568 18.184C102.736 18.792 101.816 19.096 100.808 19.096ZM101.768 16.936C102.36 16.936 102.912 16.456 103.424 15.496C103.936 14.536 104.288 13.352 104.48 11.944C104.096 11.8 103.904 11.44 103.904 10.864C103.904 10.24 104.128 9.824 104.576 9.616C104.544 9.104 104.456 8.752 104.312 8.56C104.184 8.352 103.968 8.248 103.664 8.248C103.136 8.248 102.632 8.632 102.152 9.4C101.672 10.152 101.28 11.072 100.976 12.16C100.688 13.232 100.544 14.176 100.544 14.992C100.544 15.76 100.632 16.28 100.808 16.552C100.984 16.808 101.304 16.936 101.768 16.936ZM118.786 19.432C117.33 19.432 116.226 19.032 115.474 18.232C114.738 17.432 114.37 16.424 114.37 15.208C114.37 14.344 114.546 13.48 114.898 12.616C115.266 11.736 115.786 10.968 116.458 10.312C117.13 9.656 117.914 9.216 118.81 8.992C118.314 8.64 117.946 8.216 117.706 7.72C117.466 7.208 117.346 6.672 117.346 6.112C117.346 5.28 117.57 4.464 118.018 3.664C118.482 2.864 119.114 2.216 119.914 1.72C120.73 1.208 121.626 0.951999 122.602 0.951999C123.61 0.951999 124.434 1.216 125.074 1.744C125.714 2.272 126.034 3.008 126.034 3.952C126.034 4.656 125.858 5.248 125.506 5.728C125.154 6.208 124.738 6.448 124.258 6.448C123.826 6.448 123.45 6.232 123.13 5.8C123.418 5.704 123.666 5.44 123.874 5.008C124.082 4.576 124.186 4.144 124.186 3.712C124.186 3.248 124.058 2.912 123.802 2.704C123.546 2.48 123.234 2.368 122.866 2.368C122.402 2.368 121.978 2.536 121.594 2.872C121.226 3.192 120.938 3.616 120.73 4.144C120.522 4.656 120.418 5.192 120.418 5.752C120.418 6.52 120.618 7.2 121.018 7.792C121.418 8.368 122.026 8.76 122.842 8.968C122.026 9.144 121.29 9.544 120.634 10.168C119.978 10.792 119.466 11.52 119.098 12.352C118.73 13.168 118.546 13.952 118.546 14.704C118.546 15.424 118.73 16.008 119.098 16.456C119.482 16.904 120.058 17.128 120.826 17.128C121.626 17.128 122.458 16.912 123.322 16.48C124.202 16.032 124.85 15.432 125.266 14.68L125.818 14.92C125.194 16.296 124.234 17.392 122.938 18.208C121.642 19.024 120.258 19.432 118.786 19.432ZM127.594 19.144C126.826 19.144 126.202 18.904 125.722 18.424C125.258 17.944 125.026 17.224 125.026 16.264C125.026 15.864 125.09 15.344 125.218 14.704L127.786 2.68L131.338 2.2L128.578 15.16C128.514 15.4 128.482 15.656 128.482 15.928C128.482 16.248 128.554 16.48 128.698 16.624C128.858 16.752 129.114 16.816 129.466 16.816C129.93 16.816 130.362 16.624 130.762 16.24C131.162 15.84 131.45 15.328 131.626 14.704H132.634C132.042 16.432 131.282 17.608 130.354 18.232C129.426 18.84 128.506 19.144 127.594 19.144ZM139.68 0.999999H142.2L139.296 5.536H137.496L139.68 0.999999ZM134.496 19.144C133.584 19.144 132.824 18.832 132.216 18.208C131.608 17.584 131.304 16.608 131.304 15.28C131.304 14.096 131.536 12.856 132 11.56C132.48 10.248 133.184 9.144 134.112 8.248C135.056 7.336 136.176 6.88 137.472 6.88C138.128 6.88 138.616 6.992 138.936 7.216C139.256 7.44 139.416 7.736 139.416 8.104V8.272L139.68 7H143.136L141.408 15.16C141.344 15.4 141.312 15.656 141.312 15.928C141.312 16.616 141.64 16.96 142.296 16.96C142.744 16.96 143.128 16.752 143.448 16.336C143.784 15.92 144.048 15.376 144.24 14.704H145.248C144.656 16.432 143.92 17.608 143.04 18.232C142.176 18.84 141.304 19.144 140.424 19.144C139.752 19.144 139.208 18.96 138.792 18.592C138.392 18.208 138.152 17.656 138.072 16.936C137.608 17.592 137.088 18.128 136.512 18.544C135.952 18.944 135.28 19.144 134.496 19.144ZM136.056 16.816C136.456 16.816 136.848 16.632 137.232 16.264C137.632 15.88 137.904 15.36 138.048 14.704L139.2 9.28C139.2 9.072 139.12 8.872 138.96 8.68C138.8 8.472 138.552 8.368 138.216 8.368C137.576 8.368 137 8.744 136.488 9.496C135.976 10.232 135.576 11.128 135.288 12.184C135 13.224 134.856 14.144 134.856 14.944C134.856 15.744 134.968 16.256 135.192 16.48C135.432 16.704 135.72 16.816 136.056 16.816ZM147.129 19.144C146.217 19.144 145.457 18.832 144.849 18.208C144.241 17.584 143.937 16.608 143.937 15.28C143.937 14.096 144.169 12.856 144.633 11.56C145.113 10.248 145.817 9.144 146.745 8.248C147.689 7.336 148.809 6.88 150.105 6.88C150.761 6.88 151.249 6.992 151.569 7.216C151.889 7.44 152.049 7.736 152.049 8.104V8.2L153.225 2.68L156.777 2.2L154.017 15.16C153.953 15.4 153.921 15.656 153.921 15.928C153.921 16.248 153.993 16.48 154.137 16.624C154.297 16.752 154.553 16.816 154.905 16.816C155.353 16.816 155.737 16.624 156.057 16.24C156.393 15.856 156.657 15.344 156.849 14.704H157.857C156.881 17.568 155.273 19 153.033 19C152.377 19 151.841 18.824 151.425 18.472C151.025 18.12 150.777 17.608 150.681 16.936C150.265 17.576 149.761 18.104 149.169 18.52C148.593 18.936 147.913 19.144 147.129 19.144ZM148.689 16.816C149.073 16.816 149.457 16.64 149.841 16.288C150.241 15.936 150.513 15.448 150.657 14.824V14.704L151.833 9.208C151.689 8.648 151.361 8.368 150.849 8.368C150.209 8.368 149.633 8.744 149.121 9.496C148.609 10.232 148.209 11.128 147.921 12.184C147.633 13.224 147.489 14.144 147.489 14.944C147.489 15.744 147.601 16.256 147.825 16.48C148.065 16.704 148.353 16.816 148.689 16.816ZM160.867 5.704C160.339 5.704 159.891 5.52 159.523 5.152C159.155 4.784 158.971 4.336 158.971 3.808C158.971 3.28 159.155 2.832 159.523 2.464C159.891 2.08 160.339 1.888 160.867 1.888C161.395 1.888 161.843 2.08 162.211 2.464C162.595 2.832 162.787 3.28 162.787 3.808C162.787 4.336 162.595 4.784 162.211 5.152C161.843 5.52 161.395 5.704 160.867 5.704ZM159.235 19.144C158.467 19.144 157.843 18.904 157.363 18.424C156.899 17.944 156.667 17.224 156.667 16.264C156.667 15.864 156.731 15.344 156.859 14.704L158.491 7H161.947L160.219 15.16C160.155 15.4 160.123 15.656 160.123 15.928C160.123 16.248 160.195 16.48 160.339 16.624C160.499 16.752 160.755 16.816 161.107 16.816C161.571 16.816 162.003 16.624 162.403 16.24C162.803 15.84 163.091 15.328 163.267 14.704H164.275C163.683 16.432 162.923 17.608 161.995 18.232C161.067 18.84 160.147 19.144 159.235 19.144ZM166.761 19.096C165.577 19.096 164.641 18.792 163.953 18.184C163.265 17.576 162.921 16.616 162.921 15.304C162.921 14.2 163.137 12.992 163.569 11.68C164.001 10.352 164.705 9.208 165.681 8.248C166.657 7.272 167.905 6.784 169.425 6.784C171.313 6.784 172.329 7.864 172.473 10.024C172.825 9.944 173.137 9.752 173.409 9.448C173.681 9.128 173.937 8.768 174.177 8.368H174.945C174.513 9.232 174.129 9.912 173.793 10.408C173.457 10.888 173.017 11.28 172.473 11.584C172.377 13.088 172.065 14.408 171.537 15.544C171.025 16.68 170.353 17.56 169.521 18.184C168.689 18.792 167.769 19.096 166.761 19.096ZM167.721 16.936C168.313 16.936 168.865 16.456 169.377 15.496C169.889 14.536 170.241 13.352 170.433 11.944C170.049 11.8 169.857 11.44 169.857 10.864C169.857 10.24 170.081 9.824 170.529 9.616C170.497 9.104 170.409 8.752 170.265 8.56C170.137 8.352 169.921 8.248 169.617 8.248C169.089 8.248 168.585 8.632 168.105 9.4C167.625 10.152 167.233 11.072 166.929 12.16C166.641 13.232 166.497 14.176 166.497 14.992C166.497 15.76 166.585 16.28 166.761 16.552C166.937 16.808 167.257 16.936 167.721 16.936ZM185.867 19.384C184.059 19.384 182.731 18.928 181.883 18.016C181.035 17.104 180.611 15.592 180.611 13.48C180.611 11.8 180.891 9.992 181.451 8.056C182.027 6.12 182.939 4.464 184.187 3.088C185.451 1.696 187.051 0.999999 188.987 0.999999C190.187 0.999999 191.155 1.264 191.891 1.792C192.627 2.32 192.995 3.128 192.995 4.216C192.995 4.904 192.859 5.448 192.587 5.848C192.315 6.232 191.891 6.424 191.315 6.424C190.739 6.424 190.283 6.216 189.947 5.8C190.235 5.656 190.491 5.368 190.715 4.936C190.939 4.504 191.051 4.056 191.051 3.592C191.051 3.16 190.931 2.808 190.691 2.536C190.467 2.264 190.099 2.128 189.587 2.128C188.739 2.128 187.931 2.712 187.163 3.88C186.395 5.032 185.771 6.488 185.291 8.248C184.827 10.008 184.595 11.704 184.595 13.336C184.595 14.552 184.803 15.48 185.219 16.12C185.635 16.76 186.387 17.08 187.475 17.08C188.419 17.08 189.291 16.872 190.091 16.456C190.891 16.04 191.579 15.448 192.155 14.68L192.707 14.92C192.307 15.928 191.715 16.768 190.931 17.44C190.147 18.112 189.307 18.608 188.411 18.928C187.515 19.232 186.667 19.384 185.867 19.384ZM194.461 19.144C193.693 19.144 193.069 18.904 192.589 18.424C192.125 17.944 191.893 17.224 191.893 16.264C191.893 15.864 191.957 15.344 192.085 14.704L194.653 2.68L198.205 2.2L195.445 15.16C195.381 15.4 195.349 15.656 195.349 15.928C195.349 16.248 195.421 16.48 195.565 16.624C195.725 16.752 195.981 16.816 196.333 16.816C196.797 16.816 197.229 16.624 197.629 16.24C198.029 15.84 198.317 15.328 198.493 14.704H199.501C198.909 16.432 198.149 17.608 197.221 18.232C196.293 18.84 195.373 19.144 194.461 19.144ZM206.548 0.999999H209.068L206.164 5.536H204.364L206.548 0.999999ZM201.364 19.144C200.452 19.144 199.692 18.832 199.084 18.208C198.476 17.584 198.172 16.608 198.172 15.28C198.172 14.096 198.404 12.856 198.868 11.56C199.348 10.248 200.052 9.144 200.98 8.248C201.924 7.336 203.044 6.88 204.34 6.88C204.996 6.88 205.484 6.992 205.804 7.216C206.124 7.44 206.284 7.736 206.284 8.104V8.272L206.548 7H210.004L208.276 15.16C208.212 15.4 208.18 15.656 208.18 15.928C208.18 16.616 208.508 16.96 209.164 16.96C209.612 16.96 209.996 16.752 210.316 16.336C210.652 15.92 210.916 15.376 211.108 14.704H212.116C211.524 16.432 210.788 17.608 209.908 18.232C209.044 18.84 208.172 19.144 207.292 19.144C206.62 19.144 206.076 18.96 205.66 18.592C205.26 18.208 205.02 17.656 204.94 16.936C204.476 17.592 203.956 18.128 203.38 18.544C202.82 18.944 202.148 19.144 201.364 19.144ZM202.924 16.816C203.324 16.816 203.716 16.632 204.1 16.264C204.5 15.88 204.772 15.36 204.916 14.704L206.068 9.28C206.068 9.072 205.988 8.872 205.828 8.68C205.668 8.472 205.42 8.368 205.084 8.368C204.444 8.368 203.868 8.744 203.356 9.496C202.844 10.232 202.444 11.128 202.156 12.184C201.868 13.224 201.724 14.144 201.724 14.944C201.724 15.744 201.836 16.256 202.06 16.48C202.3 16.704 202.588 16.816 202.924 16.816ZM213.492 19.144C212.724 19.144 212.1 18.904 211.62 18.424C211.156 17.944 210.924 17.224 210.924 16.264C210.924 15.864 210.988 15.344 211.116 14.704L212.748 7H216.204L214.476 15.16C214.428 15.4 214.404 15.624 214.404 15.832C214.404 16.488 214.644 16.816 215.124 16.816C215.572 16.816 215.956 16.632 216.276 16.264C216.596 15.88 216.852 15.36 217.044 14.704L218.676 7H222.132L220.404 15.16C220.34 15.4 220.308 15.656 220.308 15.928C220.308 16.248 220.38 16.48 220.524 16.624C220.684 16.752 220.94 16.816 221.292 16.816C221.74 16.816 222.124 16.624 222.444 16.24C222.78 15.856 223.044 15.344 223.236 14.704H224.244C223.652 16.432 222.916 17.608 222.036 18.232C221.172 18.84 220.3 19.144 219.42 19.144C218.732 19.144 218.18 18.952 217.764 18.568C217.364 18.184 217.124 17.616 217.044 16.864C216.5 17.744 215.924 18.344 215.316 18.664C214.724 18.984 214.116 19.144 213.492 19.144ZM226.114 19.144C225.202 19.144 224.442 18.832 223.834 18.208C223.226 17.584 222.922 16.608 222.922 15.28C222.922 14.096 223.154 12.856 223.618 11.56C224.098 10.248 224.802 9.144 225.73 8.248C226.674 7.336 227.794 6.88 229.09 6.88C229.746 6.88 230.234 6.992 230.554 7.216C230.874 7.44 231.034 7.736 231.034 8.104V8.2L232.21 2.68L235.762 2.2L233.002 15.16C232.938 15.4 232.906 15.656 232.906 15.928C232.906 16.248 232.978 16.48 233.122 16.624C233.282 16.752 233.538 16.816 233.89 16.816C234.338 16.816 234.722 16.624 235.042 16.24C235.378 15.856 235.642 15.344 235.834 14.704H236.842C235.866 17.568 234.258 19 232.018 19C231.362 19 230.826 18.824 230.41 18.472C230.01 18.12 229.762 17.608 229.666 16.936C229.25 17.576 228.746 18.104 228.154 18.52C227.578 18.936 226.898 19.144 226.114 19.144ZM227.674 16.816C228.058 16.816 228.442 16.64 228.826 16.288C229.226 15.936 229.498 15.448 229.642 14.824V14.704L230.818 9.208C230.674 8.648 230.346 8.368 229.834 8.368C229.194 8.368 228.618 8.744 228.106 9.496C227.594 10.232 227.194 11.128 226.906 12.184C226.618 13.224 226.474 14.144 226.474 14.944C226.474 15.744 226.586 16.256 226.81 16.48C227.05 16.704 227.338 16.816 227.674 16.816ZM239.851 5.704C239.323 5.704 238.875 5.52 238.507 5.152C238.139 4.784 237.955 4.336 237.955 3.808C237.955 3.28 238.139 2.832 238.507 2.464C238.875 2.08 239.323 1.888 239.851 1.888C240.379 1.888 240.827 2.08 241.195 2.464C241.579 2.832 241.771 3.28 241.771 3.808C241.771 4.336 241.579 4.784 241.195 5.152C240.827 5.52 240.379 5.704 239.851 5.704ZM238.219 19.144C237.451 19.144 236.827 18.904 236.347 18.424C235.883 17.944 235.651 17.224 235.651 16.264C235.651 15.864 235.715 15.344 235.843 14.704L237.475 7H240.931L239.203 15.16C239.139 15.4 239.107 15.656 239.107 15.928C239.107 16.248 239.179 16.48 239.323 16.624C239.483 16.752 239.739 16.816 240.091 16.816C240.555 16.816 240.987 16.624 241.387 16.24C241.787 15.84 242.075 15.328 242.251 14.704H243.259C242.667 16.432 241.907 17.608 240.979 18.232C240.051 18.84 239.131 19.144 238.219 19.144ZM245.745 19.096C244.561 19.096 243.625 18.792 242.937 18.184C242.249 17.576 241.905 16.616 241.905 15.304C241.905 14.2 242.121 12.992 242.553 11.68C242.985 10.352 243.689 9.208 244.665 8.248C245.641 7.272 246.889 6.784 248.409 6.784C250.297 6.784 251.313 7.864 251.457 10.024C251.809 9.944 252.121 9.752 252.393 9.448C252.665 9.128 252.921 8.768 253.161 8.368H253.929C253.497 9.232 253.113 9.912 252.777 10.408C252.441 10.888 252.001 11.28 251.457 11.584C251.361 13.088 251.049 14.408 250.521 15.544C250.009 16.68 249.337 17.56 248.505 18.184C247.673 18.792 246.753 19.096 245.745 19.096ZM246.705 16.936C247.297 16.936 247.849 16.456 248.361 15.496C248.873 14.536 249.225 13.352 249.417 11.944C249.033 11.8 248.841 11.44 248.841 10.864C248.841 10.24 249.065 9.824 249.513 9.616C249.481 9.104 249.393 8.752 249.249 8.56C249.121 8.352 248.905 8.248 248.601 8.248C248.073 8.248 247.569 8.632 247.089 9.4C246.609 10.152 246.217 11.072 245.913 12.16C245.625 13.232 245.481 14.176 245.481 14.992C245.481 15.76 245.569 16.28 245.745 16.552C245.921 16.808 246.241 16.936 246.705 16.936ZM257.657 0.951999H260.177L257.537 6.52H255.857L257.657 0.951999ZM261.384 19.144C260.616 19.144 259.968 19 259.44 18.712C258.912 18.408 258.52 18.024 258.264 17.56C258.008 17.08 257.88 16.584 257.88 16.072C257.88 15.544 258.008 15.088 258.264 14.704C258.504 14.304 258.8 14.016 259.152 13.84C259.776 12.72 260.32 11.592 260.784 10.456C261.248 9.304 261.688 8.064 262.104 6.736L265.656 6.256C265.736 8.304 265.872 10.52 266.064 12.904C266.144 13.864 266.184 14.56 266.184 14.992C266.184 15.968 265.936 16.768 265.44 17.392C264.944 18.016 264.328 18.464 263.592 18.736C262.872 19.008 262.136 19.144 261.384 19.144ZM260.616 17.248C261.208 17.248 261.704 17.072 262.104 16.72C262.504 16.368 262.704 15.8 262.704 15.016C262.704 14.536 262.656 13.864 262.56 13C262.4 11.176 262.296 9.952 262.248 9.328C261.864 10.592 261.216 12.104 260.304 13.864C260.672 14.056 260.856 14.336 260.856 14.704C260.856 15.008 260.752 15.28 260.544 15.52C260.352 15.76 260.104 15.88 259.8 15.88C259.464 15.88 259.248 15.776 259.152 15.568C259.152 16.144 259.264 16.568 259.488 16.84C259.728 17.112 260.104 17.248 260.616 17.248ZM273.269 6.112H276.725L276.341 7.912C277.141 7.224 278.077 6.88 279.149 6.88C280.045 6.88 280.757 7.176 281.285 7.768C281.813 8.36 282.077 9.328 282.077 10.672C282.077 11.936 281.893 13.216 281.525 14.512C281.157 15.792 280.533 16.888 279.653 17.8C278.773 18.696 277.613 19.144 276.173 19.144C275.149 19.144 274.469 18.856 274.133 18.28L272.885 24.136L269.261 25L273.269 6.112ZM275.429 17.056C276.197 17.056 276.829 16.696 277.325 15.976C277.837 15.256 278.205 14.4 278.429 13.408C278.669 12.4 278.789 11.464 278.789 10.6C278.789 9.272 278.389 8.608 277.589 8.608C277.301 8.608 277.005 8.712 276.701 8.92C276.413 9.128 276.157 9.416 275.933 9.784L274.517 16.504C274.645 16.872 274.949 17.056 275.429 17.056ZM284.303 7H287.759L287.447 8.488C287.991 8.008 288.479 7.64 288.911 7.384C289.359 7.128 289.839 7 290.351 7C290.863 7 291.263 7.176 291.551 7.528C291.855 7.88 292.007 8.304 292.007 8.8C292.007 9.264 291.855 9.672 291.551 10.024C291.247 10.376 290.823 10.552 290.279 10.552C289.927 10.552 289.687 10.472 289.559 10.312C289.447 10.136 289.359 9.888 289.295 9.568C289.247 9.36 289.199 9.208 289.151 9.112C289.103 9.016 289.015 8.968 288.887 8.968C288.551 8.968 288.263 9.04 288.023 9.184C287.799 9.312 287.503 9.544 287.135 9.88L285.215 19H281.759L284.303 7ZM295.199 19.096C294.015 19.096 293.079 18.792 292.391 18.184C291.703 17.576 291.359 16.616 291.359 15.304C291.359 14.216 291.583 13.008 292.031 11.68C292.479 10.352 293.199 9.208 294.191 8.248C295.183 7.272 296.431 6.784 297.935 6.784C299.983 6.784 301.007 8.064 301.007 10.624V10.648C301.055 10.664 301.143 10.672 301.271 10.672C301.799 10.672 302.407 10.536 303.095 10.264C303.783 9.976 304.407 9.632 304.967 9.232L305.183 9.88C304.719 10.376 304.111 10.8 303.359 11.152C302.623 11.488 301.815 11.728 300.935 11.872C300.807 13.328 300.479 14.6 299.951 15.688C299.423 16.776 298.743 17.616 297.911 18.208C297.079 18.8 296.175 19.096 295.199 19.096ZM296.159 16.936C296.543 16.936 296.927 16.72 297.311 16.288C297.695 15.84 298.031 15.24 298.319 14.488C298.607 13.72 298.815 12.872 298.943 11.944C298.511 11.848 298.295 11.512 298.295 10.936C298.295 10.28 298.543 9.848 299.039 9.64C299.007 9.112 298.927 8.752 298.799 8.56C298.671 8.352 298.447 8.248 298.127 8.248C297.599 8.248 297.087 8.632 296.591 9.4C296.095 10.168 295.695 11.088 295.391 12.16C295.087 13.232 294.935 14.176 294.935 14.992C294.935 15.76 295.023 16.28 295.199 16.552C295.375 16.808 295.695 16.936 296.159 16.936ZM300.249 25C299.369 25 298.657 24.752 298.113 24.256C297.553 23.776 297.273 23.128 297.273 22.312C297.273 21.64 297.465 21.088 297.849 20.656C298.233 20.224 298.705 19.88 299.265 19.624C299.825 19.368 300.545 19.096 301.425 18.808L304.089 6.184C304.521 4.2 305.241 2.848 306.249 2.128C307.257 1.392 308.409 1.024 309.705 1.024C310.905 1.024 311.921 1.224 312.753 1.624C313.585 2.024 314.001 2.744 314.001 3.784C314.001 4.456 313.817 4.952 313.449 5.272C313.097 5.576 312.649 5.728 312.105 5.728C311.689 5.728 311.345 5.632 311.073 5.44C310.801 5.232 310.665 4.896 310.665 4.432C310.665 4.128 310.737 3.856 310.881 3.616C311.041 3.376 311.241 3.256 311.481 3.256C311.593 3.256 311.657 3.264 311.673 3.28C311.657 2.96 311.529 2.72 311.289 2.56C311.065 2.4 310.753 2.32 310.353 2.32C309.649 2.32 309.081 2.576 308.649 3.088C308.233 3.6 307.953 4.248 307.809 5.032L307.401 7H309.321L309.129 7.96H307.209L304.473 20.92C304.153 22.424 303.601 23.48 302.817 24.088C302.033 24.696 301.177 25 300.249 25ZM311.025 19.144C310.257 19.144 309.633 18.904 309.153 18.424C308.689 17.944 308.457 17.224 308.457 16.264C308.457 15.864 308.521 15.344 308.649 14.704L310.281 7H313.737L312.009 15.16C311.945 15.4 311.913 15.656 311.913 15.928C311.913 16.248 311.985 16.48 312.129 16.624C312.289 16.752 312.545 16.816 312.897 16.816C313.361 16.816 313.793 16.624 314.193 16.24C314.593 15.84 314.881 15.328 315.057 14.704H316.065C315.473 16.432 314.713 17.608 313.785 18.232C312.857 18.84 311.937 19.144 311.025 19.144ZM299.577 22.864C299.849 22.864 300.121 22.712 300.393 22.408C300.649 22.104 300.841 21.632 300.969 20.992L301.257 19.6C300.441 19.856 299.793 20.176 299.313 20.56C298.833 20.96 298.593 21.408 298.593 21.904C298.593 22.256 298.705 22.504 298.929 22.648C299.153 22.792 299.369 22.864 299.577 22.864ZM317.438 19.144C316.67 19.144 316.046 18.904 315.566 18.424C315.102 17.944 314.87 17.224 314.87 16.264C314.87 15.864 314.934 15.344 315.062 14.704L317.63 2.68L321.182 2.2L318.422 15.16C318.358 15.4 318.326 15.656 318.326 15.928C318.326 16.248 318.398 16.48 318.542 16.624C318.702 16.752 318.958 16.816 319.31 16.816C319.774 16.816 320.206 16.624 320.606 16.24C321.006 15.84 321.294 15.328 321.47 14.704H322.478C321.886 16.432 321.126 17.608 320.198 18.232C319.27 18.84 318.35 19.144 317.438 19.144ZM324.844 19.144C323.676 19.144 322.764 18.84 322.108 18.232C321.452 17.608 321.124 16.64 321.124 15.328C321.124 14.224 321.34 13.008 321.772 11.68C322.204 10.352 322.908 9.208 323.884 8.248C324.86 7.272 326.1 6.784 327.604 6.784C329.364 6.784 330.244 7.552 330.244 9.088C330.244 9.984 329.988 10.808 329.476 11.56C328.964 12.312 328.284 12.92 327.436 13.384C326.588 13.832 325.684 14.088 324.724 14.152C324.692 14.504 324.676 14.744 324.676 14.872C324.676 16.2 325.172 16.864 326.164 16.864C326.612 16.864 327.092 16.744 327.604 16.504C328.116 16.264 328.58 15.96 328.996 15.592C328.564 17.96 327.18 19.144 324.844 19.144ZM324.892 13C325.5 12.984 326.068 12.784 326.596 12.4C327.14 12.016 327.572 11.528 327.892 10.936C328.228 10.328 328.396 9.696 328.396 9.04C328.396 8.384 328.196 8.056 327.796 8.056C327.236 8.056 326.676 8.568 326.116 9.592C325.572 10.6 325.164 11.736 324.892 13ZM334.425 1.456L338.121 0.951999L334.641 13.456H332.601L334.425 1.456ZM332.937 19.144C332.409 19.144 331.953 18.96 331.569 18.592C331.201 18.208 331.017 17.752 331.017 17.224C331.017 16.696 331.201 16.248 331.569 15.88C331.953 15.512 332.409 15.328 332.937 15.328C333.465 15.328 333.913 15.512 334.281 15.88C334.649 16.248 334.833 16.696 334.833 17.224C334.833 17.752 334.649 18.208 334.281 18.592C333.913 18.96 333.465 19.144 332.937 19.144Z" fill="#10D5F0"/>
</svg>


