<svg width="1127" height="81" viewBox="0 0 1127 81" fill="none" xmlns="http://www.w3.org/2000/svg">
<path d="M20.2533 6.36C16.4666 7.8 13.5333 10.04 11.4533 13.08C9.37329 16.0667 8.33329 19.7467 8.33329 24.12C8.33329 26.0933 8.51996 27.48 8.89329 28.28C9.26663 29.0267 9.45329 29.4533 9.45329 29.56C6.57329 29.56 4.41329 28.9733 2.97329 27.8C1.58663 26.5733 0.893292 24.5733 0.893292 21.8C0.893292 18.3867 2.27996 15.08 5.05329 11.88C7.87996 8.62667 11.48 6.01333 15.8533 4.04C20.2266 2.01333 24.6 0.999995 28.9733 0.999995C29.72 0.999995 30.7866 1.05333 32.1733 1.16L32.8933 50.36L49.6933 1.39999H59.8533L60.5733 50.36L77.3733 1.39999H82.9733L60.7333 61H49.2133L48.2533 20.28L33.0533 61H21.5333L20.2533 6.36ZM88.8064 61.48C84.8598 61.48 81.7931 60.4667 79.6064 58.44C77.4198 56.36 76.3264 53.1333 76.3264 48.76C76.3264 45.08 77.0464 41.0267 78.4864 36.6C79.9264 32.1733 82.2731 28.36 85.5264 25.16C88.7798 21.9067 92.9131 20.28 97.9264 20.28C103.793 20.28 106.726 22.84 106.726 27.96C106.726 30.9467 105.873 33.6933 104.166 36.2C102.46 38.7067 100.193 40.7333 97.3664 42.28C94.5398 43.7733 91.5264 44.6267 88.3264 44.84C88.2198 46.44 88.1664 47.5067 88.1664 48.04C88.1664 50.6533 88.6198 52.44 89.5264 53.4C90.4331 54.3067 91.8998 54.76 93.9264 54.76C96.8064 54.76 99.2598 54.0933 101.286 52.76C103.366 51.4267 105.633 49.4 108.086 46.68H110.806C104.886 56.5467 97.5531 61.48 88.8064 61.48ZM88.9664 41C90.9398 40.8933 92.8064 40.2 94.5664 38.92C96.3798 37.64 97.8198 36.0133 98.8864 34.04C100.006 32.0667 100.566 29.9867 100.566 27.8C100.566 25.6133 99.8998 24.52 98.5664 24.52C96.6464 24.52 94.7531 26.2 92.8864 29.56C91.0731 32.92 89.7664 36.7333 88.9664 41ZM115.99 61.48C113.43 61.48 111.35 60.68 109.75 59.08C108.203 57.48 107.43 55.08 107.43 51.88C107.43 50.5467 107.643 48.8133 108.07 46.68L116.63 6.6L128.47 5L119.27 48.2C119.056 49 118.95 49.8533 118.95 50.76C118.95 51.8267 119.19 52.6 119.67 53.08C120.203 53.5067 121.056 53.72 122.23 53.72C123.776 53.72 125.216 53.08 126.55 51.8C127.883 50.4667 128.843 48.76 129.43 46.68H132.79C130.816 52.44 128.283 56.36 125.19 58.44C122.096 60.4667 119.03 61.48 115.99 61.48ZM140.838 61.48C136.891 61.48 133.824 60.4667 131.638 58.44C129.451 56.36 128.358 53.1333 128.358 48.76C128.358 45.08 129.078 41.0267 130.518 36.6C132.011 32.1733 134.358 28.36 137.558 25.16C140.811 21.9067 144.918 20.28 149.878 20.28C153.078 20.28 155.344 20.9733 156.678 22.36C158.064 23.7467 158.758 25.5067 158.758 27.64C158.758 29.5067 158.358 30.9467 157.558 31.96C156.758 32.9733 155.744 33.48 154.518 33.48C153.611 33.48 152.678 33.16 151.718 32.52C152.358 30.76 152.678 29.1867 152.678 27.8C152.678 26.7867 152.491 25.9867 152.118 25.4C151.744 24.8133 151.184 24.52 150.438 24.52C148.838 24.52 147.238 25.8267 145.638 28.44C144.038 31.0533 142.731 34.2267 141.718 37.96C140.704 41.6933 140.198 45.0533 140.198 48.04C140.198 50.6533 140.651 52.44 141.558 53.4C142.464 54.3067 143.931 54.76 145.958 54.76C148.838 54.76 151.291 54.0933 153.318 52.76C155.398 51.4267 157.664 49.4 160.118 46.68H162.838C156.918 56.5467 149.584 61.48 140.838 61.48ZM171.781 61.32C167.834 61.32 164.714 60.3067 162.421 58.28C160.127 56.2533 158.981 53.0533 158.981 48.68C158.981 45.0533 159.727 41.0267 161.221 36.6C162.714 32.1733 165.114 28.36 168.421 25.16C171.727 21.9067 175.887 20.28 180.901 20.28C187.727 20.28 191.141 24.5467 191.141 33.08V33.16C191.301 33.2133 191.594 33.24 192.021 33.24C193.781 33.24 195.807 32.7867 198.101 31.88C200.394 30.92 202.474 29.7733 204.341 28.44L205.061 30.6C203.514 32.2533 201.487 33.6667 198.981 34.84C196.527 35.96 193.834 36.76 190.901 37.24C190.474 42.0933 189.381 46.3333 187.621 49.96C185.861 53.5867 183.594 56.3867 180.821 58.36C178.047 60.3333 175.034 61.32 171.781 61.32ZM174.981 54.12C176.261 54.12 177.541 53.4 178.821 51.96C180.101 50.4667 181.221 48.4667 182.181 45.96C183.141 43.4 183.834 40.5733 184.261 37.48C182.821 37.16 182.101 36.04 182.101 34.12C182.101 31.9333 182.927 30.4933 184.581 29.8C184.474 28.04 184.207 26.84 183.781 26.2C183.354 25.5067 182.607 25.16 181.541 25.16C179.781 25.16 178.074 26.44 176.421 29C174.767 31.56 173.434 34.6267 172.421 38.2C171.407 41.7733 170.901 44.92 170.901 47.64C170.901 50.2 171.194 51.9333 171.781 52.84C172.367 53.6933 173.434 54.12 174.981 54.12ZM243.897 61.48C240.644 61.48 238.244 60.6267 236.697 58.92C235.204 57.16 234.457 55 234.457 52.44C234.457 51.32 234.59 50.0667 234.857 48.68C235.124 47.24 235.39 45.8533 235.657 44.52C235.977 43.1867 236.19 42.3333 236.297 41.96C236.724 40.0933 237.124 38.2533 237.497 36.44C237.87 34.6267 238.057 33.16 238.057 32.04C238.057 29.32 237.097 27.96 235.177 27.96C233.79 27.96 232.564 28.6533 231.497 30.04C230.43 31.3733 229.577 33.1333 228.937 35.32L223.497 61H211.977L217.817 33.4C217.977 32.76 218.057 32.0933 218.057 31.4C218.057 29.0533 217.257 27.88 215.657 27.88C214.164 27.88 212.857 28.5733 211.737 29.96C210.67 31.2933 209.817 33.08 209.177 35.32L203.737 61H192.217L200.697 21H212.217L211.337 25.16C214.057 22.12 217.31 20.6 221.097 20.6C225.79 20.6 228.537 22.8933 229.337 27.48C232.27 22.9467 235.977 20.68 240.457 20.68C243.177 20.68 245.337 21.4267 246.937 22.92C248.537 24.4133 249.337 26.68 249.337 29.72C249.337 31.2667 249.15 33 248.777 34.92C248.404 36.7867 247.87 39.08 247.177 41.8C246.75 43.4533 246.35 45.08 245.977 46.68C245.657 48.2267 245.497 49.4533 245.497 50.36C245.497 51.4267 245.737 52.2533 246.217 52.84C246.697 53.4267 247.524 53.72 248.697 53.72C250.297 53.72 251.577 53.16 252.537 52.04C253.497 50.8667 254.457 49.08 255.417 46.68H258.777C256.804 52.5467 254.51 56.4933 251.897 58.52C249.337 60.4933 246.67 61.48 243.897 61.48ZM266.693 61.48C262.8 61.48 259.76 60.4667 257.573 58.44C255.387 56.36 254.293 53.1333 254.293 48.76C254.293 45.08 255.013 41.0267 256.453 36.6C257.893 32.1733 260.24 28.36 263.493 25.16C266.747 21.9067 270.88 20.28 275.893 20.28C281.76 20.28 284.693 22.84 284.693 27.96C284.693 30.9467 283.84 33.6933 282.133 36.2C280.427 38.7067 278.16 40.7333 275.333 42.28C272.507 43.7733 269.493 44.6267 266.293 44.84C266.187 46.0133 266.133 46.8133 266.133 47.24C266.133 51.6667 267.787 53.88 271.093 53.88C272.587 53.88 274.187 53.48 275.893 52.68C277.6 51.88 279.147 50.8667 280.533 49.64C279.093 57.5333 274.48 61.48 266.693 61.48ZM266.853 41C268.88 40.9467 270.773 40.28 272.533 39C274.347 37.72 275.787 36.0933 276.853 34.12C277.973 32.0933 278.533 29.9867 278.533 27.8C278.533 25.6133 277.867 24.52 276.533 24.52C274.667 24.52 272.8 26.2267 270.933 29.64C269.12 33 267.76 36.7867 266.853 41ZM309.974 61.48C307.414 61.48 305.334 60.68 303.734 59.08C302.187 57.48 301.414 55.08 301.414 51.88C301.414 50.5467 301.627 48.8133 302.054 46.68L306.854 24.2H304.214L304.854 21H307.494L309.894 9.96L321.734 8.36L319.014 21H323.814L323.174 24.2H318.374L313.254 48.2C313.041 49 312.934 49.8533 312.934 50.76C312.934 51.8267 313.174 52.6 313.654 53.08C314.187 53.5067 315.041 53.72 316.214 53.72C317.761 53.72 319.201 53.08 320.534 51.8C321.867 50.4667 322.827 48.76 323.414 46.68H326.774C324.801 52.44 322.267 56.36 319.174 58.44C316.081 60.4667 313.014 61.48 309.974 61.48ZM335.062 61.32C331.115 61.32 327.995 60.3067 325.702 58.28C323.409 56.2533 322.262 53.0533 322.262 48.68C322.262 45 322.982 40.9733 324.422 36.6C325.862 32.1733 328.209 28.36 331.462 25.16C334.715 21.9067 338.875 20.28 343.942 20.28C350.235 20.28 353.622 23.88 354.102 31.08C355.275 30.8133 356.315 30.1733 357.222 29.16C358.129 28.0933 358.982 26.8933 359.782 25.56H362.342C360.902 28.44 359.622 30.7067 358.502 32.36C357.382 33.96 355.915 35.2667 354.102 36.28C353.782 41.2933 352.742 45.6933 350.982 49.48C349.275 53.2667 347.035 56.2 344.262 58.28C341.489 60.3067 338.422 61.32 335.062 61.32ZM338.262 54.12C340.235 54.12 342.075 52.52 343.782 49.32C345.489 46.12 346.662 42.1733 347.302 37.48C346.022 37 345.382 35.8 345.382 33.88C345.382 31.8 346.129 30.4133 347.622 29.72C347.515 28.0133 347.222 26.84 346.742 26.2C346.315 25.5067 345.595 25.16 344.582 25.16C342.822 25.16 341.142 26.44 339.542 29C337.942 31.5067 336.635 34.5733 335.622 38.2C334.662 41.7733 334.182 44.92 334.182 47.64C334.182 50.2 334.475 51.9333 335.062 52.84C335.649 53.6933 336.715 54.12 338.262 54.12ZM394.99 62.44C390.137 62.44 386.457 61.1067 383.95 58.44C381.497 55.7733 380.27 52.4133 380.27 48.36C380.27 45.48 380.857 42.6 382.03 39.72C383.257 36.7867 384.99 34.2267 387.23 32.04C389.47 29.8533 392.084 28.3867 395.07 27.64C393.417 26.4667 392.19 25.0533 391.39 23.4C390.59 21.6933 390.19 19.9067 390.19 18.04C390.19 15.2667 390.937 12.5467 392.43 9.88C393.977 7.21333 396.084 5.05333 398.75 3.4C401.47 1.69333 404.457 0.839997 407.71 0.839997C411.07 0.839997 413.817 1.72 415.95 3.48C418.084 5.24 419.15 7.69333 419.15 10.84C419.15 13.1867 418.564 15.16 417.39 16.76C416.217 18.36 414.83 19.16 413.23 19.16C411.79 19.16 410.537 18.44 409.47 17C410.43 16.68 411.257 15.8 411.95 14.36C412.644 12.92 412.99 11.48 412.99 10.04C412.99 8.49333 412.564 7.37333 411.71 6.68C410.857 5.93333 409.817 5.56 408.59 5.56C407.044 5.56 405.63 6.12 404.35 7.24C403.124 8.30666 402.164 9.72 401.47 11.48C400.777 13.1867 400.43 14.9733 400.43 16.84C400.43 19.4 401.097 21.6667 402.43 23.64C403.764 25.56 405.79 26.8667 408.51 27.56C405.79 28.1467 403.337 29.48 401.15 31.56C398.964 33.64 397.257 36.0667 396.03 38.84C394.804 41.56 394.19 44.1733 394.19 46.68C394.19 49.08 394.804 51.0267 396.03 52.52C397.31 54.0133 399.23 54.76 401.79 54.76C404.457 54.76 407.23 54.04 410.11 52.6C413.044 51.1067 415.204 49.1067 416.59 46.6L418.43 47.4C416.35 51.9867 413.15 55.64 408.83 58.36C404.51 61.08 399.897 62.44 394.99 62.44ZM424.349 61.48C421.789 61.48 419.709 60.68 418.109 59.08C416.562 57.48 415.789 55.08 415.789 51.88C415.789 50.5467 416.002 48.8133 416.429 46.68L424.989 6.6L436.829 5L427.629 48.2C427.416 49 427.309 49.8533 427.309 50.76C427.309 51.8267 427.549 52.6 428.029 53.08C428.562 53.5067 429.416 53.72 430.589 53.72C432.136 53.72 433.576 53.08 434.909 51.8C436.242 50.4667 437.202 48.76 437.789 46.68H441.149C439.176 52.44 436.642 56.36 433.549 58.44C430.456 60.4667 427.389 61.48 424.349 61.48ZM464.637 0.999995H473.037L463.357 16.12H457.357L464.637 0.999995ZM447.357 61.48C444.317 61.48 441.784 60.44 439.757 58.36C437.73 56.28 436.717 53.0267 436.717 48.6C436.717 44.6533 437.49 40.52 439.037 36.2C440.637 31.8267 442.984 28.1467 446.077 25.16C449.224 22.12 452.957 20.6 457.277 20.6C459.464 20.6 461.09 20.9733 462.157 21.72C463.224 22.4667 463.757 23.4533 463.757 24.68V25.24L464.637 21H476.157L470.397 48.2C470.184 49 470.077 49.8533 470.077 50.76C470.077 53.0533 471.17 54.2 473.357 54.2C474.85 54.2 476.13 53.5067 477.197 52.12C478.317 50.7333 479.197 48.92 479.837 46.68H483.197C481.224 52.44 478.77 56.36 475.837 58.44C472.957 60.4667 470.05 61.48 467.117 61.48C464.877 61.48 463.064 60.8667 461.677 59.64C460.344 58.36 459.544 56.52 459.277 54.12C457.73 56.3067 455.997 58.0933 454.077 59.48C452.21 60.8133 449.97 61.48 447.357 61.48ZM452.557 53.72C453.89 53.72 455.197 53.1067 456.477 51.88C457.81 50.6 458.717 48.8667 459.197 46.68L463.037 28.6C463.037 27.9067 462.77 27.24 462.237 26.6C461.704 25.9067 460.877 25.56 459.757 25.56C457.624 25.56 455.704 26.8133 453.997 29.32C452.29 31.7733 450.957 34.76 449.997 38.28C449.037 41.7467 448.557 44.8133 448.557 47.48C448.557 50.1467 448.93 51.8533 449.677 52.6C450.477 53.3467 451.437 53.72 452.557 53.72ZM489.466 61.48C486.426 61.48 483.893 60.44 481.866 58.36C479.84 56.28 478.826 53.0267 478.826 48.6C478.826 44.6533 479.6 40.52 481.146 36.2C482.746 31.8267 485.093 28.1467 488.186 25.16C491.333 22.12 495.066 20.6 499.386 20.6C501.573 20.6 503.2 20.9733 504.266 21.72C505.333 22.4667 505.866 23.4533 505.866 24.68V25L509.786 6.6L521.626 5L512.426 48.2C512.213 49 512.106 49.8533 512.106 50.76C512.106 51.8267 512.346 52.6 512.826 53.08C513.36 53.5067 514.213 53.72 515.386 53.72C516.88 53.72 518.16 53.08 519.226 51.8C520.346 50.52 521.226 48.8133 521.866 46.68H525.226C521.973 56.2267 516.613 61 509.146 61C506.96 61 505.173 60.4133 503.786 59.24C502.453 58.0667 501.626 56.36 501.306 54.12C499.92 56.2533 498.24 58.0133 496.266 59.4C494.346 60.7867 492.08 61.48 489.466 61.48ZM494.666 53.72C495.946 53.72 497.226 53.1333 498.506 51.96C499.84 50.7867 500.746 49.16 501.226 47.08V46.68L505.146 28.36C504.666 26.4933 503.573 25.56 501.866 25.56C499.733 25.56 497.813 26.8133 496.106 29.32C494.4 31.7733 493.066 34.76 492.106 38.28C491.146 41.7467 490.666 44.8133 490.666 47.48C490.666 50.1467 491.04 51.8533 491.786 52.6C492.586 53.3467 493.546 53.72 494.666 53.72ZM535.258 16.68C533.498 16.68 532.004 16.0667 530.778 14.84C529.551 13.6133 528.938 12.12 528.938 10.36C528.938 8.6 529.551 7.10667 530.778 5.88C532.004 4.6 533.498 3.96 535.258 3.96C537.018 3.96 538.511 4.6 539.738 5.88C541.018 7.10667 541.658 8.6 541.658 10.36C541.658 12.12 541.018 13.6133 539.738 14.84C538.511 16.0667 537.018 16.68 535.258 16.68ZM529.818 61.48C527.258 61.48 525.178 60.68 523.578 59.08C522.031 57.48 521.258 55.08 521.258 51.88C521.258 50.5467 521.471 48.8133 521.898 46.68L527.338 21H538.858L533.098 48.2C532.884 49 532.778 49.8533 532.778 50.76C532.778 51.8267 533.018 52.6 533.498 53.08C534.031 53.5067 534.884 53.72 536.058 53.72C537.604 53.72 539.044 53.08 540.378 51.8C541.711 50.4667 542.671 48.76 543.258 46.68H546.618C544.644 52.44 542.111 56.36 539.018 58.44C535.924 60.4667 532.858 61.48 529.818 61.48ZM554.906 61.32C550.959 61.32 547.839 60.3067 545.546 58.28C543.252 56.2533 542.106 53.0533 542.106 48.68C542.106 45 542.826 40.9733 544.266 36.6C545.706 32.1733 548.052 28.36 551.306 25.16C554.559 21.9067 558.719 20.28 563.786 20.28C570.079 20.28 573.466 23.88 573.946 31.08C575.119 30.8133 576.159 30.1733 577.066 29.16C577.972 28.0933 578.826 26.8933 579.626 25.56H582.186C580.746 28.44 579.466 30.7067 578.346 32.36C577.226 33.96 575.759 35.2667 573.946 36.28C573.626 41.2933 572.586 45.6933 570.826 49.48C569.119 53.2667 566.879 56.2 564.106 58.28C561.332 60.3067 558.266 61.32 554.906 61.32ZM558.106 54.12C560.079 54.12 561.919 52.52 563.626 49.32C565.332 46.12 566.506 42.1733 567.146 37.48C565.866 37 565.226 35.8 565.226 33.88C565.226 31.8 565.972 30.4133 567.466 29.72C567.359 28.0133 567.066 26.84 566.586 26.2C566.159 25.5067 565.439 25.16 564.426 25.16C562.666 25.16 560.986 26.44 559.386 29C557.786 31.5067 556.479 34.5733 555.466 38.2C554.506 41.7733 554.026 44.92 554.026 47.64C554.026 50.2 554.319 51.9333 554.906 52.84C555.492 53.6933 556.559 54.12 558.106 54.12ZM618.594 62.28C612.567 62.28 608.141 60.76 605.314 57.72C602.487 54.68 601.074 49.64 601.074 42.6C601.074 37 602.007 30.9733 603.874 24.52C605.794 18.0667 608.834 12.5467 612.994 7.96C617.207 3.32 622.541 0.999995 628.994 0.999995C632.994 0.999995 636.221 1.88 638.674 3.64C641.127 5.4 642.354 8.09333 642.354 11.72C642.354 14.0133 641.901 15.8267 640.994 17.16C640.087 18.44 638.674 19.08 636.754 19.08C634.834 19.08 633.314 18.3867 632.194 17C633.154 16.52 634.007 15.56 634.754 14.12C635.501 12.68 635.874 11.1867 635.874 9.64C635.874 8.2 635.474 7.02666 634.674 6.12C633.927 5.21333 632.701 4.76 630.994 4.76C628.167 4.76 625.474 6.70666 622.914 10.6C620.354 14.44 618.274 19.2933 616.674 25.16C615.127 31.0267 614.354 36.68 614.354 42.12C614.354 46.1733 615.047 49.2667 616.434 51.4C617.821 53.5333 620.327 54.6 623.954 54.6C627.101 54.6 630.007 53.9067 632.674 52.52C635.341 51.1333 637.634 49.16 639.554 46.6L641.394 47.4C640.061 50.76 638.087 53.56 635.474 55.8C632.861 58.04 630.061 59.6933 627.074 60.76C624.087 61.7733 621.261 62.28 618.594 62.28ZM647.24 61.48C644.68 61.48 642.6 60.68 641 59.08C639.453 57.48 638.68 55.08 638.68 51.88C638.68 50.5467 638.893 48.8133 639.32 46.68L647.88 6.6L659.72 5L650.52 48.2C650.306 49 650.2 49.8533 650.2 50.76C650.2 51.8267 650.44 52.6 650.92 53.08C651.453 53.5067 652.306 53.72 653.48 53.72C655.026 53.72 656.466 53.08 657.8 51.8C659.133 50.4667 660.093 48.76 660.68 46.68H664.04C662.066 52.44 659.533 56.36 656.44 58.44C653.346 60.4667 650.28 61.48 647.24 61.48ZM687.528 0.999995H695.928L686.248 16.12H680.248L687.528 0.999995ZM670.248 61.48C667.208 61.48 664.674 60.44 662.648 58.36C660.621 56.28 659.608 53.0267 659.608 48.6C659.608 44.6533 660.381 40.52 661.928 36.2C663.528 31.8267 665.874 28.1467 668.968 25.16C672.114 22.12 675.848 20.6 680.168 20.6C682.354 20.6 683.981 20.9733 685.048 21.72C686.114 22.4667 686.648 23.4533 686.648 24.68V25.24L687.528 21H699.048L693.288 48.2C693.074 49 692.968 49.8533 692.968 50.76C692.968 53.0533 694.061 54.2 696.248 54.2C697.741 54.2 699.021 53.5067 700.088 52.12C701.208 50.7333 702.088 48.92 702.728 46.68H706.088C704.114 52.44 701.661 56.36 698.728 58.44C695.848 60.4667 692.941 61.48 690.008 61.48C687.768 61.48 685.954 60.8667 684.568 59.64C683.234 58.36 682.434 56.52 682.168 54.12C680.621 56.3067 678.888 58.0933 676.968 59.48C675.101 60.8133 672.861 61.48 670.248 61.48ZM675.448 53.72C676.781 53.72 678.088 53.1067 679.368 51.88C680.701 50.6 681.608 48.8667 682.088 46.68L685.928 28.6C685.928 27.9067 685.661 27.24 685.128 26.6C684.594 25.9067 683.768 25.56 682.648 25.56C680.514 25.56 678.594 26.8133 676.888 29.32C675.181 31.7733 673.848 34.76 672.888 38.28C671.928 41.7467 671.448 44.8133 671.448 47.48C671.448 50.1467 671.821 51.8533 672.568 52.6C673.368 53.3467 674.328 53.72 675.448 53.72ZM710.677 61.48C708.117 61.48 706.037 60.68 704.437 59.08C702.89 57.48 702.117 55.08 702.117 51.88C702.117 50.5467 702.33 48.8133 702.757 46.68L708.197 21H719.717L713.957 48.2C713.797 49 713.717 49.7467 713.717 50.44C713.717 52.6267 714.517 53.72 716.117 53.72C717.61 53.72 718.89 53.1067 719.957 51.88C721.024 50.6 721.877 48.8667 722.517 46.68L727.957 21H739.477L733.717 48.2C733.504 49 733.397 49.8533 733.397 50.76C733.397 51.8267 733.637 52.6 734.117 53.08C734.65 53.5067 735.504 53.72 736.677 53.72C738.17 53.72 739.45 53.08 740.517 51.8C741.637 50.52 742.517 48.8133 743.157 46.68H746.517C744.544 52.44 742.09 56.36 739.157 58.44C736.277 60.4667 733.37 61.48 730.437 61.48C728.144 61.48 726.304 60.84 724.917 59.56C723.584 58.28 722.784 56.3867 722.517 53.88C720.704 56.8133 718.784 58.8133 716.757 59.88C714.784 60.9467 712.757 61.48 710.677 61.48ZM752.748 61.48C749.708 61.48 747.174 60.44 745.148 58.36C743.121 56.28 742.108 53.0267 742.108 48.6C742.108 44.6533 742.881 40.52 744.428 36.2C746.028 31.8267 748.374 28.1467 751.468 25.16C754.614 22.12 758.348 20.6 762.668 20.6C764.854 20.6 766.481 20.9733 767.548 21.72C768.614 22.4667 769.148 23.4533 769.148 24.68V25L773.068 6.6L784.908 5L775.708 48.2C775.494 49 775.388 49.8533 775.388 50.76C775.388 51.8267 775.628 52.6 776.108 53.08C776.641 53.5067 777.494 53.72 778.668 53.72C780.161 53.72 781.441 53.08 782.508 51.8C783.628 50.52 784.508 48.8133 785.148 46.68H788.508C785.254 56.2267 779.894 61 772.428 61C770.241 61 768.454 60.4133 767.068 59.24C765.734 58.0667 764.908 56.36 764.588 54.12C763.201 56.2533 761.521 58.0133 759.548 59.4C757.628 60.7867 755.361 61.48 752.748 61.48ZM757.948 53.72C759.228 53.72 760.508 53.1333 761.788 51.96C763.121 50.7867 764.028 49.16 764.508 47.08V46.68L768.428 28.36C767.948 26.4933 766.854 25.56 765.148 25.56C763.014 25.56 761.094 26.8133 759.388 29.32C757.681 31.7733 756.348 34.76 755.388 38.28C754.428 41.7467 753.948 44.8133 753.948 47.48C753.948 50.1467 754.321 51.8533 755.068 52.6C755.868 53.3467 756.828 53.72 757.948 53.72ZM798.539 16.68C796.779 16.68 795.286 16.0667 794.059 14.84C792.832 13.6133 792.219 12.12 792.219 10.36C792.219 8.6 792.832 7.10667 794.059 5.88C795.286 4.6 796.779 3.96 798.539 3.96C800.299 3.96 801.792 4.6 803.019 5.88C804.299 7.10667 804.939 8.6 804.939 10.36C804.939 12.12 804.299 13.6133 803.019 14.84C801.792 16.0667 800.299 16.68 798.539 16.68ZM793.099 61.48C790.539 61.48 788.459 60.68 786.859 59.08C785.312 57.48 784.539 55.08 784.539 51.88C784.539 50.5467 784.752 48.8133 785.179 46.68L790.619 21H802.139L796.379 48.2C796.166 49 796.059 49.8533 796.059 50.76C796.059 51.8267 796.299 52.6 796.779 53.08C797.312 53.5067 798.166 53.72 799.339 53.72C800.886 53.72 802.326 53.08 803.659 51.8C804.992 50.4667 805.952 48.76 806.539 46.68H809.899C807.926 52.44 805.392 56.36 802.299 58.44C799.206 60.4667 796.139 61.48 793.099 61.48ZM818.187 61.32C814.24 61.32 811.12 60.3067 808.827 58.28C806.534 56.2533 805.387 53.0533 805.387 48.68C805.387 45 806.107 40.9733 807.547 36.6C808.987 32.1733 811.334 28.36 814.587 25.16C817.84 21.9067 822 20.28 827.067 20.28C833.36 20.28 836.747 23.88 837.227 31.08C838.4 30.8133 839.44 30.1733 840.347 29.16C841.254 28.0933 842.107 26.8933 842.907 25.56H845.467C844.027 28.44 842.747 30.7067 841.627 32.36C840.507 33.96 839.04 35.2667 837.227 36.28C836.907 41.2933 835.867 45.6933 834.107 49.48C832.4 53.2667 830.16 56.2 827.387 58.28C824.614 60.3067 821.547 61.32 818.187 61.32ZM821.387 54.12C823.36 54.12 825.2 52.52 826.907 49.32C828.614 46.12 829.787 42.1733 830.427 37.48C829.147 37 828.507 35.8 828.507 33.88C828.507 31.8 829.254 30.4133 830.747 29.72C830.64 28.0133 830.347 26.84 829.867 26.2C829.44 25.5067 828.72 25.16 827.707 25.16C825.947 25.16 824.267 26.44 822.667 29C821.067 31.5067 819.76 34.5733 818.747 38.2C817.787 41.7733 817.307 44.92 817.307 47.64C817.307 50.2 817.6 51.9333 818.187 52.84C818.774 53.6933 819.84 54.12 821.387 54.12ZM857.891 0.839997H866.291L857.491 19.4H851.891L857.891 0.839997ZM870.315 61.48C867.755 61.48 865.595 61 863.835 60.04C862.075 59.0267 860.768 57.7467 859.915 56.2C859.061 54.6 858.635 52.9467 858.635 51.24C858.635 49.48 859.061 47.96 859.915 46.68C860.715 45.3467 861.701 44.3867 862.875 43.8C864.955 40.0667 866.768 36.3067 868.315 32.52C869.861 28.68 871.328 24.5467 872.715 20.12L884.555 18.52C884.821 25.3467 885.275 32.7333 885.915 40.68C886.181 43.88 886.315 46.2 886.315 47.64C886.315 50.8933 885.488 53.56 883.835 55.64C882.181 57.72 880.128 59.2133 877.675 60.12C875.275 61.0267 872.821 61.48 870.315 61.48ZM867.755 55.16C869.728 55.16 871.381 54.5733 872.715 53.4C874.048 52.2267 874.715 50.3333 874.715 47.72C874.715 46.12 874.555 43.88 874.235 41C873.701 34.92 873.355 30.84 873.195 28.76C871.915 32.9733 869.755 38.0133 866.715 43.88C867.941 44.52 868.555 45.4533 868.555 46.68C868.555 47.6933 868.208 48.6 867.515 49.4C866.875 50.2 866.048 50.6 865.035 50.6C863.915 50.6 863.195 50.2533 862.875 49.56C862.875 51.48 863.248 52.8933 863.995 53.8C864.795 54.7067 866.048 55.16 867.755 55.16ZM909.931 18.04H921.451L920.171 24.04C922.837 21.7467 925.957 20.6 929.531 20.6C932.517 20.6 934.891 21.5867 936.651 23.56C938.411 25.5333 939.291 28.76 939.291 33.24C939.291 37.4533 938.677 41.72 937.451 46.04C936.224 50.3067 934.144 53.96 931.211 57C928.277 59.9867 924.411 61.48 919.611 61.48C916.197 61.48 913.931 60.52 912.811 58.6L908.651 78.12L896.571 81L909.931 18.04ZM917.131 54.52C919.691 54.52 921.797 53.32 923.451 50.92C925.157 48.52 926.384 45.6667 927.131 42.36C927.931 39 928.331 35.88 928.331 33C928.331 28.5733 926.997 26.36 924.331 26.36C923.371 26.36 922.384 26.7067 921.371 27.4C920.411 28.0933 919.557 29.0533 918.811 30.28L914.091 52.68C914.517 53.9067 915.531 54.52 917.131 54.52ZM946.713 21H958.233L957.193 25.96C959.006 24.36 960.633 23.1333 962.073 22.28C963.566 21.4267 965.166 21 966.873 21C968.579 21 969.913 21.5867 970.873 22.76C971.886 23.9333 972.393 25.3467 972.393 27C972.393 28.5467 971.886 29.9067 970.873 31.08C969.859 32.2533 968.446 32.84 966.633 32.84C965.459 32.84 964.659 32.5733 964.233 32.04C963.859 31.4533 963.566 30.6267 963.353 29.56C963.193 28.8667 963.033 28.36 962.873 28.04C962.713 27.72 962.419 27.56 961.993 27.56C960.873 27.56 959.913 27.8 959.113 28.28C958.366 28.7067 957.379 29.48 956.153 30.6L949.753 61H938.233L946.713 21ZM983.031 61.32C979.084 61.32 975.964 60.3067 973.671 58.28C971.377 56.2533 970.231 53.0533 970.231 48.68C970.231 45.0533 970.977 41.0267 972.471 36.6C973.964 32.1733 976.364 28.36 979.671 25.16C982.977 21.9067 987.137 20.28 992.151 20.28C998.977 20.28 1002.39 24.5467 1002.39 33.08V33.16C1002.55 33.2133 1002.84 33.24 1003.27 33.24C1005.03 33.24 1007.06 32.7867 1009.35 31.88C1011.64 30.92 1013.72 29.7733 1015.59 28.44L1016.31 30.6C1014.76 32.2533 1012.74 33.6667 1010.23 34.84C1007.78 35.96 1005.08 36.76 1002.15 37.24C1001.72 42.0933 1000.63 46.3333 998.871 49.96C997.111 53.5867 994.844 56.3867 992.071 58.36C989.297 60.3333 986.284 61.32 983.031 61.32ZM986.231 54.12C987.511 54.12 988.791 53.4 990.071 51.96C991.351 50.4667 992.471 48.4667 993.431 45.96C994.391 43.4 995.084 40.5733 995.511 37.48C994.071 37.16 993.351 36.04 993.351 34.12C993.351 31.9333 994.177 30.4933 995.831 29.8C995.724 28.04 995.457 26.84 995.031 26.2C994.604 25.5067 993.857 25.16 992.791 25.16C991.031 25.16 989.324 26.44 987.671 29C986.017 31.56 984.684 34.6267 983.671 38.2C982.657 41.7733 982.151 44.92 982.151 47.64C982.151 50.2 982.444 51.9333 983.031 52.84C983.617 53.6933 984.684 54.12 986.231 54.12ZM999.867 81C996.934 81 994.56 80.1733 992.747 78.52C990.88 76.92 989.947 74.76 989.947 72.04C989.947 69.8 990.587 67.96 991.867 66.52C993.147 65.08 994.72 63.9333 996.587 63.08C998.454 62.2267 1000.85 61.32 1003.79 60.36L1012.67 18.28C1014.11 11.6667 1016.51 7.16 1019.87 4.76C1023.23 2.30667 1027.07 1.08 1031.39 1.08C1035.39 1.08 1038.77 1.74667 1041.55 3.08C1044.32 4.41333 1045.71 6.81333 1045.71 10.28C1045.71 12.52 1045.09 14.1733 1043.87 15.24C1042.69 16.2533 1041.2 16.76 1039.39 16.76C1038 16.76 1036.85 16.44 1035.95 15.8C1035.04 15.1067 1034.59 13.9867 1034.59 12.44C1034.59 11.4267 1034.83 10.52 1035.31 9.72C1035.84 8.92 1036.51 8.52 1037.31 8.52C1037.68 8.52 1037.89 8.54666 1037.95 8.6C1037.89 7.53333 1037.47 6.73333 1036.67 6.2C1035.92 5.66666 1034.88 5.4 1033.55 5.4C1031.2 5.4 1029.31 6.25333 1027.87 7.96C1026.48 9.66666 1025.55 11.8267 1025.07 14.44L1023.71 21H1030.11L1029.47 24.2H1023.07L1013.95 67.4C1012.88 72.4133 1011.04 75.9333 1008.43 77.96C1005.81 79.9867 1002.96 81 999.867 81ZM1035.79 61.48C1033.23 61.48 1031.15 60.68 1029.55 59.08C1028 57.48 1027.23 55.08 1027.23 51.88C1027.23 50.5467 1027.44 48.8133 1027.87 46.68L1033.31 21H1044.83L1039.07 48.2C1038.85 49 1038.75 49.8533 1038.75 50.76C1038.75 51.8267 1038.99 52.6 1039.47 53.08C1040 53.5067 1040.85 53.72 1042.03 53.72C1043.57 53.72 1045.01 53.08 1046.35 51.8C1047.68 50.4667 1048.64 48.76 1049.23 46.68H1052.59C1050.61 52.44 1048.08 56.36 1044.99 58.44C1041.89 60.4667 1038.83 61.48 1035.79 61.48ZM997.627 73.88C998.534 73.88 999.44 73.3733 1000.35 72.36C1001.2 71.3467 1001.84 69.7733 1002.27 67.64L1003.23 63C1000.51 63.8533 998.347 64.92 996.747 66.2C995.147 67.5333 994.347 69.0267 994.347 70.68C994.347 71.8533 994.72 72.68 995.467 73.16C996.214 73.64 996.934 73.88 997.627 73.88ZM1057.16 61.48C1054.6 61.48 1052.52 60.68 1050.92 59.08C1049.37 57.48 1048.6 55.08 1048.6 51.88C1048.6 50.5467 1048.81 48.8133 1049.24 46.68L1057.8 6.6L1069.64 5L1060.44 48.2C1060.23 49 1060.12 49.8533 1060.12 50.76C1060.12 51.8267 1060.36 52.6 1060.84 53.08C1061.37 53.5067 1062.23 53.72 1063.4 53.72C1064.95 53.72 1066.39 53.08 1067.72 51.8C1069.05 50.4667 1070.01 48.76 1070.6 46.68H1073.96C1071.99 52.44 1069.45 56.36 1066.36 58.44C1063.27 60.4667 1060.2 61.48 1057.16 61.48ZM1081.85 61.48C1077.96 61.48 1074.92 60.4667 1072.73 58.44C1070.54 56.36 1069.45 53.1333 1069.45 48.76C1069.45 45.08 1070.17 41.0267 1071.61 36.6C1073.05 32.1733 1075.4 28.36 1078.65 25.16C1081.9 21.9067 1086.04 20.28 1091.05 20.28C1096.92 20.28 1099.85 22.84 1099.85 27.96C1099.85 30.9467 1099 33.6933 1097.29 36.2C1095.58 38.7067 1093.32 40.7333 1090.49 42.28C1087.66 43.7733 1084.65 44.6267 1081.45 44.84C1081.34 46.0133 1081.29 46.8133 1081.29 47.24C1081.29 51.6667 1082.94 53.88 1086.25 53.88C1087.74 53.88 1089.34 53.48 1091.05 52.68C1092.76 51.88 1094.3 50.8667 1095.69 49.64C1094.25 57.5333 1089.64 61.48 1081.85 61.48ZM1082.01 41C1084.04 40.9467 1085.93 40.28 1087.69 39C1089.5 37.72 1090.94 36.0933 1092.01 34.12C1093.13 32.0933 1093.69 29.9867 1093.69 27.8C1093.69 25.6133 1093.02 24.52 1091.69 24.52C1089.82 24.52 1087.96 26.2267 1086.09 29.64C1084.28 33 1082.92 36.7867 1082.01 41ZM1113.79 2.52L1126.11 0.839997L1114.51 42.52H1107.71L1113.79 2.52ZM1108.83 61.48C1107.07 61.48 1105.55 60.8667 1104.27 59.64C1103.04 58.36 1102.43 56.84 1102.43 55.08C1102.43 53.32 1103.04 51.8267 1104.27 50.6C1105.55 49.3733 1107.07 48.76 1108.83 48.76C1110.59 48.76 1112.08 49.3733 1113.31 50.6C1114.53 51.8267 1115.15 53.32 1115.15 55.08C1115.15 56.84 1114.53 58.36 1113.31 59.64C1112.08 60.8667 1110.59 61.48 1108.83 61.48Z" fill="#10D5F0"/>
</svg>


