<svg width="216" height="25" viewBox="0 0 216 25" fill="none" xmlns="http://www.w3.org/2000/svg">
<path d="M6.36529 2.608C5.22929 3.04 4.34929 3.712 3.72529 4.624C3.10129 5.52 2.78929 6.624 2.78929 7.936C2.78929 8.528 2.84529 8.944 2.95729 9.184C3.06929 9.408 3.12529 9.536 3.12529 9.568C2.26129 9.568 1.61329 9.392 1.18129 9.04C0.765292 8.672 0.557292 8.072 0.557292 7.24C0.557292 6.216 0.973292 5.224 1.80529 4.264C2.65329 3.288 3.73329 2.504 5.04529 1.912C6.35729 1.304 7.66929 0.999999 8.98129 0.999999C9.20529 0.999999 9.52529 1.016 9.94129 1.048L10.1573 15.808L15.1973 1.12H18.2453L18.4613 15.808L23.5013 1.12H25.1813L18.5093 19H15.0533L14.7653 6.784L10.2053 19H6.74929L6.36529 2.608ZM26.9312 19.144C25.7472 19.144 24.8272 18.84 24.1712 18.232C23.5152 17.608 23.1872 16.64 23.1872 15.328C23.1872 14.224 23.4032 13.008 23.8352 11.68C24.2672 10.352 24.9712 9.208 25.9472 8.248C26.9232 7.272 28.1632 6.784 29.6672 6.784C31.4272 6.784 32.3072 7.552 32.3072 9.088C32.3072 9.984 32.0512 10.808 31.5392 11.56C31.0272 12.312 30.3472 12.92 29.4992 13.384C28.6512 13.832 27.7472 14.088 26.7872 14.152C26.7552 14.632 26.7392 14.952 26.7392 15.112C26.7392 15.896 26.8752 16.432 27.1472 16.72C27.4192 16.992 27.8592 17.128 28.4672 17.128C29.3312 17.128 30.0672 16.928 30.6752 16.528C31.2992 16.128 31.9792 15.52 32.7152 14.704H33.5312C31.7552 17.664 29.5552 19.144 26.9312 19.144ZM26.9792 13C27.5712 12.968 28.1312 12.76 28.6592 12.376C29.2032 11.992 29.6352 11.504 29.9552 10.912C30.2912 10.32 30.4592 9.696 30.4592 9.04C30.4592 8.384 30.2592 8.056 29.8592 8.056C29.2832 8.056 28.7152 8.56 28.1552 9.568C27.6112 10.576 27.2192 11.72 26.9792 13ZM35.0862 19.144C34.3182 19.144 33.6942 18.904 33.2142 18.424C32.7502 17.944 32.5182 17.224 32.5182 16.264C32.5182 15.864 32.5822 15.344 32.7102 14.704L35.2782 2.68L38.8302 2.2L36.0702 15.16C36.0062 15.4 35.9742 15.656 35.9742 15.928C35.9742 16.248 36.0462 16.48 36.1902 16.624C36.3502 16.752 36.6062 16.816 36.9582 16.816C37.4222 16.816 37.8542 16.624 38.2542 16.24C38.6542 15.84 38.9422 15.328 39.1182 14.704H40.1262C39.5342 16.432 38.7742 17.608 37.8462 18.232C36.9182 18.84 35.9982 19.144 35.0862 19.144ZM42.5406 19.144C41.3566 19.144 40.4366 18.84 39.7806 18.232C39.1246 17.608 38.7966 16.64 38.7966 15.328C38.7966 14.224 39.0126 13.008 39.4446 11.68C39.8926 10.352 40.5966 9.208 41.5566 8.248C42.5326 7.272 43.7646 6.784 45.2526 6.784C46.2126 6.784 46.8926 6.992 47.2926 7.408C47.7086 7.824 47.9166 8.352 47.9166 8.992C47.9166 9.552 47.7966 9.984 47.5566 10.288C47.3166 10.592 47.0126 10.744 46.6446 10.744C46.3726 10.744 46.0926 10.648 45.8046 10.456C45.9966 9.928 46.0926 9.456 46.0926 9.04C46.0926 8.736 46.0366 8.496 45.9246 8.32C45.8126 8.144 45.6446 8.056 45.4206 8.056C44.9406 8.056 44.4606 8.448 43.9806 9.232C43.5006 10.016 43.1086 10.968 42.8046 12.088C42.5006 13.208 42.3486 14.216 42.3486 15.112C42.3486 15.896 42.4846 16.432 42.7566 16.72C43.0286 16.992 43.4686 17.128 44.0766 17.128C44.9406 17.128 45.6766 16.928 46.2846 16.528C46.9086 16.128 47.5886 15.52 48.3246 14.704H49.1406C47.3646 17.664 45.1646 19.144 42.5406 19.144ZM51.8235 19.096C50.6395 19.096 49.7035 18.792 49.0155 18.184C48.3275 17.576 47.9835 16.616 47.9835 15.304C47.9835 14.216 48.2075 13.008 48.6555 11.68C49.1035 10.352 49.8235 9.208 50.8155 8.248C51.8075 7.272 53.0555 6.784 54.5595 6.784C56.6075 6.784 57.6315 8.064 57.6315 10.624V10.648C57.6795 10.664 57.7675 10.672 57.8955 10.672C58.4235 10.672 59.0315 10.536 59.7195 10.264C60.4075 9.976 61.0315 9.632 61.5915 9.232L61.8075 9.88C61.3435 10.376 60.7355 10.8 59.9835 11.152C59.2475 11.488 58.4395 11.728 57.5595 11.872C57.4315 13.328 57.1035 14.6 56.5755 15.688C56.0475 16.776 55.3675 17.616 54.5355 18.208C53.7035 18.8 52.7995 19.096 51.8235 19.096ZM52.7835 16.936C53.1675 16.936 53.5515 16.72 53.9355 16.288C54.3195 15.84 54.6555 15.24 54.9435 14.488C55.2315 13.72 55.4395 12.872 55.5675 11.944C55.1355 11.848 54.9195 11.512 54.9195 10.936C54.9195 10.28 55.1675 9.848 55.6635 9.64C55.6315 9.112 55.5515 8.752 55.4235 8.56C55.2955 8.352 55.0715 8.248 54.7515 8.248C54.2235 8.248 53.7115 8.632 53.2155 9.4C52.7195 10.168 52.3195 11.088 52.0155 12.16C51.7115 13.232 51.5595 14.176 51.5595 14.992C51.5595 15.76 51.6475 16.28 51.8235 16.552C51.9995 16.808 52.3195 16.936 52.7835 16.936ZM73.4584 19.144C72.4824 19.144 71.7624 18.888 71.2984 18.376C70.8504 17.848 70.6264 17.2 70.6264 16.432C70.6264 16.096 70.6664 15.72 70.7464 15.304C70.8264 14.872 70.9064 14.456 70.9864 14.056C71.0824 13.656 71.1464 13.4 71.1784 13.288C71.3064 12.728 71.4264 12.176 71.5384 11.632C71.6504 11.088 71.7064 10.648 71.7064 10.312C71.7064 9.496 71.4184 9.088 70.8424 9.088C70.4264 9.088 70.0584 9.296 69.7384 9.712C69.4184 10.112 69.1624 10.64 68.9704 11.296L67.3384 19H63.8824L65.6344 10.72C65.6824 10.528 65.7064 10.328 65.7064 10.12C65.7064 9.416 65.4664 9.064 64.9864 9.064C64.5384 9.064 64.1464 9.272 63.8104 9.688C63.4904 10.088 63.2344 10.624 63.0424 11.296L61.4104 19H57.9544L60.4984 7H63.9544L63.6904 8.248C64.5064 7.336 65.4824 6.88 66.6184 6.88C68.0264 6.88 68.8504 7.568 69.0904 8.944C69.9704 7.584 71.0824 6.904 72.4264 6.904C73.2424 6.904 73.8904 7.128 74.3704 7.576C74.8504 8.024 75.0904 8.704 75.0904 9.616C75.0904 10.08 75.0344 10.6 74.9224 11.176C74.8104 11.736 74.6504 12.424 74.4424 13.24C74.3144 13.736 74.1944 14.224 74.0824 14.704C73.9864 15.168 73.9384 15.536 73.9384 15.808C73.9384 16.128 74.0104 16.376 74.1544 16.552C74.2984 16.728 74.5464 16.816 74.8984 16.816C75.3784 16.816 75.7624 16.648 76.0504 16.312C76.3384 15.96 76.6264 15.424 76.9144 14.704H77.9224C77.3304 16.464 76.6424 17.648 75.8584 18.256C75.0904 18.848 74.2904 19.144 73.4584 19.144ZM80.2973 19.144C79.1293 19.144 78.2173 18.84 77.5613 18.232C76.9053 17.608 76.5773 16.64 76.5773 15.328C76.5773 14.224 76.7933 13.008 77.2253 11.68C77.6573 10.352 78.3613 9.208 79.3373 8.248C80.3133 7.272 81.5533 6.784 83.0573 6.784C84.8173 6.784 85.6973 7.552 85.6973 9.088C85.6973 9.984 85.4413 10.808 84.9293 11.56C84.4173 12.312 83.7373 12.92 82.8893 13.384C82.0413 13.832 81.1373 14.088 80.1773 14.152C80.1453 14.504 80.1293 14.744 80.1293 14.872C80.1293 16.2 80.6253 16.864 81.6173 16.864C82.0653 16.864 82.5453 16.744 83.0573 16.504C83.5693 16.264 84.0333 15.96 84.4493 15.592C84.0173 17.96 82.6333 19.144 80.2973 19.144ZM80.3453 13C80.9533 12.984 81.5213 12.784 82.0493 12.4C82.5933 12.016 83.0253 11.528 83.3453 10.936C83.6813 10.328 83.8493 9.696 83.8493 9.04C83.8493 8.384 83.6493 8.056 83.2493 8.056C82.6893 8.056 82.1293 8.568 81.5693 9.592C81.0253 10.6 80.6173 11.736 80.3453 13ZM93.2815 19.144C92.5135 19.144 91.8895 18.904 91.4095 18.424C90.9455 17.944 90.7135 17.224 90.7135 16.264C90.7135 15.864 90.7775 15.344 90.9055 14.704L92.3455 7.96H91.5535L91.7455 7H92.5375L93.2575 3.688L96.8095 3.208L95.9935 7H97.4335L97.2415 7.96H95.8015L94.2655 15.16C94.2015 15.4 94.1695 15.656 94.1695 15.928C94.1695 16.248 94.2415 16.48 94.3855 16.624C94.5455 16.752 94.8015 16.816 95.1535 16.816C95.6175 16.816 96.0495 16.624 96.4495 16.24C96.8495 15.84 97.1375 15.328 97.3135 14.704H98.3215C97.7295 16.432 96.9695 17.608 96.0415 18.232C95.1135 18.84 94.1935 19.144 93.2815 19.144ZM100.808 19.096C99.6239 19.096 98.6879 18.792 97.9999 18.184C97.3119 17.576 96.9679 16.616 96.9679 15.304C96.9679 14.2 97.1839 12.992 97.6159 11.68C98.0479 10.352 98.7519 9.208 99.7279 8.248C100.704 7.272 101.952 6.784 103.472 6.784C105.36 6.784 106.376 7.864 106.52 10.024C106.872 9.944 107.184 9.752 107.456 9.448C107.728 9.128 107.984 8.768 108.224 8.368H108.992C108.56 9.232 108.176 9.912 107.84 10.408C107.504 10.888 107.064 11.28 106.52 11.584C106.424 13.088 106.112 14.408 105.584 15.544C105.072 16.68 104.4 17.56 103.568 18.184C102.736 18.792 101.816 19.096 100.808 19.096ZM101.768 16.936C102.36 16.936 102.912 16.456 103.424 15.496C103.936 14.536 104.288 13.352 104.48 11.944C104.096 11.8 103.904 11.44 103.904 10.864C103.904 10.24 104.128 9.824 104.576 9.616C104.544 9.104 104.456 8.752 104.312 8.56C104.184 8.352 103.968 8.248 103.664 8.248C103.136 8.248 102.632 8.632 102.152 9.4C101.672 10.152 101.28 11.072 100.976 12.16C100.688 13.232 100.544 14.176 100.544 14.992C100.544 15.76 100.632 16.28 100.808 16.552C100.984 16.808 101.304 16.936 101.768 16.936ZM128.794 19.144C127.818 19.144 127.098 18.888 126.634 18.376C126.186 17.848 125.962 17.2 125.962 16.432C125.962 16.096 126.002 15.72 126.082 15.304C126.162 14.872 126.242 14.456 126.322 14.056C126.418 13.656 126.482 13.4 126.514 13.288C126.642 12.728 126.762 12.176 126.874 11.632C126.986 11.088 127.042 10.648 127.042 10.312C127.042 9.496 126.754 9.088 126.178 9.088C125.762 9.088 125.394 9.296 125.074 9.712C124.754 10.112 124.498 10.64 124.306 11.296L122.674 19H119.218L120.97 10.72C121.018 10.528 121.042 10.328 121.042 10.12C121.042 9.416 120.802 9.064 120.322 9.064C119.874 9.064 119.482 9.272 119.146 9.688C118.826 10.088 118.57 10.624 118.378 11.296L116.746 19H113.29L115.834 7H119.29L119.026 8.248C119.842 7.336 120.818 6.88 121.954 6.88C123.362 6.88 124.186 7.568 124.426 8.944C125.306 7.584 126.418 6.904 127.762 6.904C128.578 6.904 129.226 7.128 129.706 7.576C130.186 8.024 130.426 8.704 130.426 9.616C130.426 10.08 130.37 10.6 130.258 11.176C130.146 11.736 129.986 12.424 129.778 13.24C129.65 13.736 129.53 14.224 129.418 14.704C129.322 15.168 129.274 15.536 129.274 15.808C129.274 16.128 129.346 16.376 129.49 16.552C129.634 16.728 129.882 16.816 130.234 16.816C130.714 16.816 131.098 16.648 131.386 16.312C131.674 15.96 131.962 15.424 132.25 14.704H133.258C132.666 16.464 131.978 17.648 131.194 18.256C130.426 18.848 129.626 19.144 128.794 19.144ZM135.993 25C135.241 25 134.577 24.752 134.001 24.256C133.441 23.776 133.161 23.16 133.161 22.408C133.161 21.704 133.337 21.128 133.689 20.68C134.041 20.232 134.497 19.88 135.057 19.624C135.617 19.368 136.369 19.096 137.313 18.808L137.553 17.752C136.737 18.68 135.761 19.144 134.625 19.144C133.857 19.144 133.233 18.904 132.753 18.424C132.289 17.944 132.057 17.224 132.057 16.264C132.057 15.864 132.121 15.344 132.249 14.704L133.881 7H137.337L135.609 15.16C135.561 15.352 135.537 15.552 135.537 15.76C135.537 16.464 135.777 16.816 136.257 16.816C136.705 16.816 137.089 16.632 137.409 16.264C137.729 15.88 137.985 15.36 138.177 14.704L139.809 7H143.289L140.361 20.92C140.041 22.456 139.473 23.52 138.657 24.112C137.857 24.704 136.969 25 135.993 25ZM135.441 22.864C135.729 22.864 136.001 22.712 136.257 22.408C136.513 22.12 136.713 21.648 136.857 20.992L137.145 19.576C136.297 19.864 135.641 20.2 135.177 20.584C134.713 20.968 134.481 21.464 134.481 22.072C134.481 22.264 134.577 22.44 134.769 22.6C134.961 22.776 135.185 22.864 135.441 22.864ZM150.315 6.112H153.771L153.387 7.912C154.187 7.224 155.123 6.88 156.195 6.88C157.091 6.88 157.803 7.176 158.331 7.768C158.859 8.36 159.123 9.328 159.123 10.672C159.123 11.936 158.939 13.216 158.571 14.512C158.203 15.792 157.579 16.888 156.699 17.8C155.819 18.696 154.659 19.144 153.219 19.144C152.195 19.144 151.515 18.856 151.179 18.28L149.931 24.136L146.307 25L150.315 6.112ZM152.475 17.056C153.243 17.056 153.875 16.696 154.371 15.976C154.883 15.256 155.251 14.4 155.475 13.408C155.715 12.4 155.835 11.464 155.835 10.6C155.835 9.272 155.435 8.608 154.635 8.608C154.347 8.608 154.051 8.712 153.747 8.92C153.459 9.128 153.203 9.416 152.979 9.784L151.563 16.504C151.691 16.872 151.995 17.056 152.475 17.056ZM161.35 7H164.806L164.494 8.488C165.038 8.008 165.526 7.64 165.958 7.384C166.406 7.128 166.886 7 167.398 7C167.91 7 168.31 7.176 168.598 7.528C168.902 7.88 169.054 8.304 169.054 8.8C169.054 9.264 168.902 9.672 168.598 10.024C168.294 10.376 167.87 10.552 167.326 10.552C166.974 10.552 166.734 10.472 166.606 10.312C166.494 10.136 166.406 9.888 166.342 9.568C166.294 9.36 166.246 9.208 166.198 9.112C166.15 9.016 166.062 8.968 165.934 8.968C165.598 8.968 165.31 9.04 165.07 9.184C164.846 9.312 164.55 9.544 164.182 9.88L162.262 19H158.806L161.35 7ZM172.245 19.096C171.061 19.096 170.125 18.792 169.437 18.184C168.749 17.576 168.405 16.616 168.405 15.304C168.405 14.216 168.629 13.008 169.077 11.68C169.525 10.352 170.245 9.208 171.237 8.248C172.229 7.272 173.477 6.784 174.981 6.784C177.029 6.784 178.053 8.064 178.053 10.624V10.648C178.101 10.664 178.189 10.672 178.317 10.672C178.845 10.672 179.453 10.536 180.141 10.264C180.829 9.976 181.453 9.632 182.013 9.232L182.229 9.88C181.765 10.376 181.157 10.8 180.405 11.152C179.669 11.488 178.861 11.728 177.981 11.872C177.853 13.328 177.525 14.6 176.997 15.688C176.469 16.776 175.789 17.616 174.957 18.208C174.125 18.8 173.221 19.096 172.245 19.096ZM173.205 16.936C173.589 16.936 173.973 16.72 174.357 16.288C174.741 15.84 175.077 15.24 175.365 14.488C175.653 13.72 175.861 12.872 175.989 11.944C175.557 11.848 175.341 11.512 175.341 10.936C175.341 10.28 175.589 9.848 176.085 9.64C176.053 9.112 175.973 8.752 175.845 8.56C175.717 8.352 175.493 8.248 175.173 8.248C174.645 8.248 174.133 8.632 173.637 9.4C173.141 10.168 172.741 11.088 172.437 12.16C172.133 13.232 171.981 14.176 171.981 14.992C171.981 15.76 172.069 16.28 172.245 16.552C172.421 16.808 172.741 16.936 173.205 16.936ZM177.296 25C176.416 25 175.704 24.752 175.16 24.256C174.6 23.776 174.32 23.128 174.32 22.312C174.32 21.64 174.512 21.088 174.896 20.656C175.28 20.224 175.752 19.88 176.312 19.624C176.872 19.368 177.592 19.096 178.472 18.808L181.136 6.184C181.568 4.2 182.288 2.848 183.296 2.128C184.304 1.392 185.456 1.024 186.752 1.024C187.952 1.024 188.968 1.224 189.8 1.624C190.632 2.024 191.048 2.744 191.048 3.784C191.048 4.456 190.864 4.952 190.496 5.272C190.144 5.576 189.696 5.728 189.152 5.728C188.736 5.728 188.392 5.632 188.12 5.44C187.848 5.232 187.712 4.896 187.712 4.432C187.712 4.128 187.784 3.856 187.928 3.616C188.088 3.376 188.288 3.256 188.528 3.256C188.64 3.256 188.704 3.264 188.72 3.28C188.704 2.96 188.576 2.72 188.336 2.56C188.112 2.4 187.8 2.32 187.4 2.32C186.696 2.32 186.128 2.576 185.696 3.088C185.28 3.6 185 4.248 184.856 5.032L184.448 7H186.368L186.176 7.96H184.256L181.52 20.92C181.2 22.424 180.648 23.48 179.864 24.088C179.08 24.696 178.224 25 177.296 25ZM188.072 19.144C187.304 19.144 186.68 18.904 186.2 18.424C185.736 17.944 185.504 17.224 185.504 16.264C185.504 15.864 185.568 15.344 185.696 14.704L187.328 7H190.784L189.056 15.16C188.992 15.4 188.96 15.656 188.96 15.928C188.96 16.248 189.032 16.48 189.176 16.624C189.336 16.752 189.592 16.816 189.944 16.816C190.408 16.816 190.84 16.624 191.24 16.24C191.64 15.84 191.928 15.328 192.104 14.704H193.112C192.52 16.432 191.76 17.608 190.832 18.232C189.904 18.84 188.984 19.144 188.072 19.144ZM176.624 22.864C176.896 22.864 177.168 22.712 177.44 22.408C177.696 22.104 177.888 21.632 178.016 20.992L178.304 19.6C177.488 19.856 176.84 20.176 176.36 20.56C175.88 20.96 175.64 21.408 175.64 21.904C175.64 22.256 175.752 22.504 175.976 22.648C176.2 22.792 176.416 22.864 176.624 22.864ZM194.485 19.144C193.717 19.144 193.093 18.904 192.613 18.424C192.149 17.944 191.917 17.224 191.917 16.264C191.917 15.864 191.981 15.344 192.109 14.704L194.677 2.68L198.229 2.2L195.469 15.16C195.405 15.4 195.373 15.656 195.373 15.928C195.373 16.248 195.445 16.48 195.589 16.624C195.749 16.752 196.005 16.816 196.357 16.816C196.821 16.816 197.253 16.624 197.653 16.24C198.053 15.84 198.341 15.328 198.517 14.704H199.525C198.933 16.432 198.173 17.608 197.245 18.232C196.317 18.84 195.397 19.144 194.485 19.144ZM201.891 19.144C200.723 19.144 199.811 18.84 199.155 18.232C198.499 17.608 198.171 16.64 198.171 15.328C198.171 14.224 198.387 13.008 198.819 11.68C199.251 10.352 199.955 9.208 200.931 8.248C201.907 7.272 203.147 6.784 204.651 6.784C206.411 6.784 207.291 7.552 207.291 9.088C207.291 9.984 207.035 10.808 206.523 11.56C206.011 12.312 205.331 12.92 204.483 13.384C203.635 13.832 202.731 14.088 201.771 14.152C201.739 14.504 201.723 14.744 201.723 14.872C201.723 16.2 202.219 16.864 203.211 16.864C203.659 16.864 204.139 16.744 204.651 16.504C205.163 16.264 205.627 15.96 206.043 15.592C205.611 17.96 204.227 19.144 201.891 19.144ZM201.939 13C202.547 12.984 203.115 12.784 203.643 12.4C204.187 12.016 204.619 11.528 204.939 10.936C205.275 10.328 205.443 9.696 205.443 9.04C205.443 8.384 205.243 8.056 204.843 8.056C204.283 8.056 203.723 8.568 203.163 9.592C202.619 10.6 202.211 11.736 201.939 13ZM211.472 1.456L215.168 0.951999L211.688 13.456H209.648L211.472 1.456ZM209.984 19.144C209.456 19.144 209 18.96 208.616 18.592C208.248 18.208 208.064 17.752 208.064 17.224C208.064 16.696 208.248 16.248 208.616 15.88C209 15.512 209.456 15.328 209.984 15.328C210.512 15.328 210.96 15.512 211.328 15.88C211.696 16.248 211.88 16.696 211.88 17.224C211.88 17.752 211.696 18.208 211.328 18.592C210.96 18.96 210.512 19.144 209.984 19.144Z" fill="#10D5F0"/>
</svg>
