<svg width="203" height="32" viewBox="0 0 203 32" fill="none" xmlns="http://www.w3.org/2000/svg">
<path d="M9.8 3.8C8.01333 4.54667 6.62667 5.66667 5.64 7.16C4.68 8.65333 4.2 10.4533 4.2 12.56C4.2 13.5467 4.29333 14.24 4.48 14.64C4.66667 15.0133 4.76 15.2267 4.76 15.28C3.32 15.28 2.24 14.9867 1.52 14.4C0.826667 13.7867 0.48 12.7867 0.48 11.4C0.48 9.69333 1.17333 8.04 2.56 6.44C3.97333 4.81333 5.77333 3.50667 7.96 2.52C10.1467 1.50666 12.3333 0.999998 14.52 0.999998C14.8933 0.999998 15.4267 1.02666 16.12 1.08L13.56 13H19.44L22 1.08H27.76L21.4 31H15.64L18.84 15.96H12.96L9.76 31H4L9.8 3.8ZM36.1616 3.84C34.3749 4.56 32.9882 5.66667 32.0016 7.16C31.0416 8.62667 30.5616 10.4267 30.5616 12.56C30.5616 13.5467 30.6549 14.24 30.8416 14.64C31.0282 15.0133 31.1216 15.2267 31.1216 15.28C29.6816 15.28 28.6016 14.9867 27.8816 14.4C27.1882 13.7867 26.8416 12.7867 26.8416 11.4C26.8416 9.69333 27.5349 8.04 28.9216 6.44C30.3349 4.81333 32.1349 3.50667 34.3216 2.52C36.5082 1.50666 38.6949 0.999998 40.8816 0.999998C41.2549 0.999998 41.7882 1.02666 42.4816 1.08L36.1216 31H30.3616L36.1616 3.84ZM48.5616 1.76L54.7216 0.919999L48.9216 21.76H45.5216L48.5616 1.76ZM46.0816 31.24C45.2016 31.24 44.4416 30.9333 43.8016 30.32C43.1882 29.68 42.8816 28.92 42.8816 28.04C42.8816 27.16 43.1882 26.4133 43.8016 25.8C44.4416 25.1867 45.2016 24.88 46.0816 24.88C46.9616 24.88 47.7082 25.1867 48.3216 25.8C48.9349 26.4133 49.2416 27.16 49.2416 28.04C49.2416 28.92 48.9349 29.68 48.3216 30.32C47.7082 30.9333 46.9616 31.24 46.0816 31.24ZM70.4669 3.68C68.5735 4.4 67.1069 5.52 66.0669 7.04C65.0269 8.53333 64.5069 10.3733 64.5069 12.56C64.5069 13.5467 64.6002 14.24 64.7869 14.64C64.9735 15.0133 65.0669 15.2267 65.0669 15.28C63.6269 15.28 62.5469 14.9867 61.8269 14.4C61.1335 13.7867 60.7869 12.7867 60.7869 11.4C60.7869 9.69333 61.4802 8.04 62.8669 6.44C64.2802 4.81333 66.0802 3.50667 68.2669 2.52C70.4535 1.50666 72.6402 0.999998 74.8269 0.999998C75.2002 0.999998 75.7335 1.02666 76.4269 1.08L76.7869 25.68L85.1869 1.2H90.2669L90.6269 25.68L99.0269 1.2H101.827L90.7069 31H84.9469L84.4669 10.64L76.8669 31H71.1069L70.4669 3.68ZM104.743 31.24C102.77 31.24 101.237 30.7333 100.143 29.72C99.0501 28.68 98.5034 27.0667 98.5034 24.88C98.5034 23.04 98.8634 21.0133 99.5834 18.8C100.303 16.5867 101.477 14.68 103.103 13.08C104.73 11.4533 106.797 10.64 109.303 10.64C112.237 10.64 113.703 11.92 113.703 14.48C113.703 15.9733 113.277 17.3467 112.423 18.6C111.57 19.8533 110.437 20.8667 109.023 21.64C107.61 22.3867 106.103 22.8133 104.503 22.92C104.45 23.72 104.423 24.2533 104.423 24.52C104.423 25.8267 104.65 26.72 105.103 27.2C105.557 27.6533 106.29 27.88 107.303 27.88C108.743 27.88 109.97 27.5467 110.983 26.88C112.023 26.2133 113.157 25.2 114.383 23.84H115.743C112.783 28.7733 109.117 31.24 104.743 31.24ZM104.823 21C105.81 20.9467 106.743 20.6 107.623 19.96C108.53 19.32 109.25 18.5067 109.783 17.52C110.343 16.5333 110.623 15.4933 110.623 14.4C110.623 13.3067 110.29 12.76 109.623 12.76C108.663 12.76 107.717 13.6 106.783 15.28C105.877 16.96 105.223 18.8667 104.823 21ZM118.335 31.24C117.055 31.24 116.015 30.84 115.215 30.04C114.442 29.24 114.055 28.04 114.055 26.44C114.055 25.7733 114.162 24.9067 114.375 23.84L118.655 3.8L124.575 3L119.975 24.6C119.868 25 119.815 25.4267 119.815 25.88C119.815 26.4133 119.935 26.8 120.175 27.04C120.442 27.2533 120.868 27.36 121.455 27.36C122.228 27.36 122.948 27.04 123.615 26.4C124.282 25.7333 124.762 24.88 125.055 23.84H126.735C125.748 26.72 124.482 28.68 122.935 29.72C121.388 30.7333 119.855 31.24 118.335 31.24ZM130.759 31.24C128.786 31.24 127.252 30.7333 126.159 29.72C125.066 28.68 124.519 27.0667 124.519 24.88C124.519 23.04 124.879 21.0133 125.599 18.8C126.346 16.5867 127.519 14.68 129.119 13.08C130.746 11.4533 132.799 10.64 135.279 10.64C136.879 10.64 138.012 10.9867 138.679 11.68C139.372 12.3733 139.719 13.2533 139.719 14.32C139.719 15.2533 139.519 15.9733 139.119 16.48C138.719 16.9867 138.212 17.24 137.599 17.24C137.146 17.24 136.679 17.08 136.199 16.76C136.519 15.88 136.679 15.0933 136.679 14.4C136.679 13.8933 136.586 13.4933 136.399 13.2C136.212 12.9067 135.932 12.76 135.559 12.76C134.759 12.76 133.959 13.4133 133.159 14.72C132.359 16.0267 131.706 17.6133 131.199 19.48C130.692 21.3467 130.439 23.0267 130.439 24.52C130.439 25.8267 130.666 26.72 131.119 27.2C131.572 27.6533 132.306 27.88 133.319 27.88C134.759 27.88 135.986 27.5467 136.999 26.88C138.039 26.2133 139.172 25.2 140.399 23.84H141.759C138.799 28.7733 135.132 31.24 130.759 31.24ZM146.231 31.16C144.257 31.16 142.697 30.6533 141.551 29.64C140.404 28.6267 139.831 27.0267 139.831 24.84C139.831 23.0267 140.204 21.0133 140.951 18.8C141.697 16.5867 142.897 14.68 144.551 13.08C146.204 11.4533 148.284 10.64 150.791 10.64C154.204 10.64 155.911 12.7733 155.911 17.04V17.08C155.991 17.1067 156.137 17.12 156.351 17.12C157.231 17.12 158.244 16.8933 159.391 16.44C160.537 15.96 161.577 15.3867 162.511 14.72L162.871 15.8C162.097 16.6267 161.084 17.3333 159.831 17.92C158.604 18.48 157.257 18.88 155.791 19.12C155.577 21.5467 155.031 23.6667 154.151 25.48C153.271 27.2933 152.137 28.6933 150.751 29.68C149.364 30.6667 147.857 31.16 146.231 31.16ZM147.831 27.56C148.471 27.56 149.111 27.2 149.751 26.48C150.391 25.7333 150.951 24.7333 151.431 23.48C151.911 22.2 152.257 20.7867 152.471 19.24C151.751 19.08 151.391 18.52 151.391 17.56C151.391 16.4667 151.804 15.7467 152.631 15.4C152.577 14.52 152.444 13.92 152.231 13.6C152.017 13.2533 151.644 13.08 151.111 13.08C150.231 13.08 149.377 13.72 148.551 15C147.724 16.28 147.057 17.8133 146.551 19.6C146.044 21.3867 145.791 22.96 145.791 24.32C145.791 25.6 145.937 26.4667 146.231 26.92C146.524 27.3467 147.057 27.56 147.831 27.56ZM182.289 31.24C180.662 31.24 179.462 30.8133 178.689 29.96C177.942 29.08 177.569 28 177.569 26.72C177.569 26.16 177.635 25.5333 177.769 24.84C177.902 24.12 178.035 23.4267 178.169 22.76C178.329 22.0933 178.435 21.6667 178.489 21.48C178.702 20.5467 178.902 19.6267 179.089 18.72C179.275 17.8133 179.369 17.08 179.369 16.52C179.369 15.16 178.889 14.48 177.929 14.48C177.235 14.48 176.622 14.8267 176.089 15.52C175.555 16.1867 175.129 17.0667 174.809 18.16L172.089 31H166.329L169.249 17.2C169.329 16.88 169.369 16.5467 169.369 16.2C169.369 15.0267 168.969 14.44 168.169 14.44C167.422 14.44 166.769 14.7867 166.209 15.48C165.675 16.1467 165.249 17.04 164.929 18.16L162.209 31H156.449L160.689 11H166.449L166.009 13.08C167.369 11.56 168.995 10.8 170.889 10.8C173.235 10.8 174.609 11.9467 175.009 14.24C176.475 11.9733 178.329 10.84 180.569 10.84C181.929 10.84 183.009 11.2133 183.809 11.96C184.609 12.7067 185.009 13.84 185.009 15.36C185.009 16.1333 184.915 17 184.729 17.96C184.542 18.8933 184.275 20.04 183.929 21.4C183.715 22.2267 183.515 23.04 183.329 23.84C183.169 24.6133 183.089 25.2267 183.089 25.68C183.089 26.2133 183.209 26.6267 183.449 26.92C183.689 27.2133 184.102 27.36 184.689 27.36C185.489 27.36 186.129 27.08 186.609 26.52C187.089 25.9333 187.569 25.04 188.049 23.84H189.729C188.742 26.7733 187.595 28.7467 186.289 29.76C185.009 30.7467 183.675 31.24 182.289 31.24ZM193.687 31.24C191.74 31.24 190.22 30.7333 189.127 29.72C188.034 28.68 187.487 27.0667 187.487 24.88C187.487 23.04 187.847 21.0133 188.567 18.8C189.287 16.5867 190.46 14.68 192.087 13.08C193.714 11.4533 195.78 10.64 198.287 10.64C201.22 10.64 202.687 11.92 202.687 14.48C202.687 15.9733 202.26 17.3467 201.407 18.6C200.554 19.8533 199.42 20.8667 198.007 21.64C196.594 22.3867 195.087 22.8133 193.487 22.92C193.434 23.5067 193.407 23.9067 193.407 24.12C193.407 26.3333 194.234 27.44 195.887 27.44C196.634 27.44 197.434 27.24 198.287 26.84C199.14 26.44 199.914 25.9333 200.607 25.32C199.887 29.2667 197.58 31.24 193.687 31.24ZM193.767 21C194.78 20.9733 195.727 20.64 196.607 20C197.514 19.36 198.234 18.5467 198.767 17.56C199.327 16.5467 199.607 15.4933 199.607 14.4C199.607 13.3067 199.274 12.76 198.607 12.76C197.674 12.76 196.74 13.6133 195.807 15.32C194.9 17 194.22 18.8933 193.767 21Z" fill="#05A4E8"/>
</svg>
