<svg width="161" height="41" viewBox="0 0 161 41" fill="none" xmlns="http://www.w3.org/2000/svg">
<path d="M8.8 31.72C7.12 31.72 5.64 31.4267 4.36 30.84C3.08 30.2533 2.09333 29.44 1.4 28.4C0.706667 27.3333 0.36 26.1067 0.36 24.72C0.36 23.5467 0.6 22.48 1.08 21.52C1.58667 20.56 2.25333 19.8 3.08 19.24C3.93333 18.68 4.86667 18.4 5.88 18.4C6.81333 18.4 7.6 18.64 8.24 19.12C8.88 19.5733 9.28 20.2133 9.44 21.04C8.05333 21.04 6.94667 21.4133 6.12 22.16C5.29333 22.88 4.88 23.8667 4.88 25.12C4.88 26.2667 5.22667 27.1867 5.92 27.88C6.61333 28.5733 7.53333 28.92 8.68 28.92C10.0933 28.92 11.2533 28.4533 12.16 27.52C13.0933 26.56 13.56 25.36 13.56 23.92C13.56 22.6667 13.2133 21.48 12.52 20.36C11.8267 19.24 10.7867 17.88 9.4 16.28C7.96 14.6267 6.86667 13.2133 6.12 12.04C5.4 10.84 5.04 9.53333 5.04 8.12C5.04 6.73333 5.42667 5.49333 6.2 4.4C6.97333 3.28 8.04 2.4 9.4 1.76C10.76 1.12 12.2933 0.799998 14 0.799998C16.16 0.799998 17.88 1.30667 19.16 2.32C20.4667 3.33333 21.12 4.69333 21.12 6.4C21.12 7.52 20.84 8.42667 20.28 9.12C19.72 9.81333 18.9867 10.16 18.08 10.16C17.0667 10.16 16.2533 9.74667 15.64 8.92C16.1467 8.54666 16.5467 8.05333 16.84 7.44C17.1333 6.82666 17.28 6.18667 17.28 5.52C17.28 4.66667 17.0267 3.98667 16.52 3.48C16.0133 2.97333 15.32 2.72 14.44 2.72C13.3733 2.72 12.4933 3.10667 11.8 3.88C11.1333 4.62667 10.8 5.58667 10.8 6.76C10.8 7.82667 11.1067 8.82667 11.72 9.76C12.3333 10.6667 13.2933 11.84 14.6 13.28C15.6667 14.4267 16.52 15.4133 17.16 16.24C17.8267 17.0667 18.3867 18.0267 18.84 19.12C19.32 20.1867 19.56 21.3467 19.56 22.6C19.56 24.3067 19.08 25.8533 18.12 27.24C17.1867 28.6267 15.8933 29.72 14.24 30.52C12.6133 31.32 10.8 31.72 8.8 31.72ZM27.5325 31.24C25.5592 31.24 24.0258 30.7333 22.9325 29.72C21.8392 28.68 21.2925 27.0667 21.2925 24.88C21.2925 23.04 21.6525 21.0133 22.3725 18.8C23.1192 16.5867 24.2925 14.68 25.8925 13.08C27.5192 11.4533 29.5725 10.64 32.0525 10.64C33.6525 10.64 34.7858 10.9867 35.4525 11.68C36.1458 12.3733 36.4925 13.2533 36.4925 14.32C36.4925 15.2533 36.2925 15.9733 35.8925 16.48C35.4925 16.9867 34.9858 17.24 34.3725 17.24C33.9192 17.24 33.4525 17.08 32.9725 16.76C33.2925 15.88 33.4525 15.0933 33.4525 14.4C33.4525 13.8933 33.3592 13.4933 33.1725 13.2C32.9858 12.9067 32.7058 12.76 32.3325 12.76C31.5325 12.76 30.7325 13.4133 29.9325 14.72C29.1325 16.0267 28.4792 17.6133 27.9725 19.48C27.4658 21.3467 27.2125 23.0267 27.2125 24.52C27.2125 25.8267 27.4392 26.72 27.8925 27.2C28.3458 27.6533 29.0792 27.88 30.0925 27.88C31.5325 27.88 32.7592 27.5467 33.7725 26.88C34.8125 26.2133 35.9458 25.2 37.1725 23.84H38.5325C35.5725 28.7733 31.9058 31.24 27.5325 31.24ZM51.6041 31.24C49.9774 31.24 48.7774 30.8133 48.0041 29.96C47.2574 29.08 46.8841 28 46.8841 26.72C46.8841 26.16 46.9507 25.5333 47.0841 24.84C47.2174 24.12 47.3507 23.4267 47.4841 22.76C47.6441 22.0933 47.7507 21.6667 47.8041 21.48C48.0174 20.5467 48.2174 19.6267 48.4041 18.72C48.5907 17.8133 48.6841 17.08 48.6841 16.52C48.6841 15.16 48.2041 14.48 47.2441 14.48C46.5507 14.48 45.9374 14.8267 45.4041 15.52C44.8707 16.1867 44.4441 17.0667 44.1241 18.16L41.4041 31H35.6441L41.4441 3.8L47.3641 3L45.2041 13.08C46.5374 11.5867 48.0974 10.84 49.8841 10.84C51.2441 10.84 52.3241 11.2133 53.1241 11.96C53.9241 12.7067 54.3241 13.84 54.3241 15.36C54.3241 16.1333 54.2307 17 54.0441 17.96C53.8574 18.8933 53.5907 20.04 53.2441 21.4C53.0307 22.2267 52.8307 23.04 52.6441 23.84C52.4841 24.6133 52.4041 25.2267 52.4041 25.68C52.4041 26.2133 52.5241 26.6267 52.7641 26.92C53.0041 27.2133 53.4174 27.36 54.0041 27.36C54.8041 27.36 55.4441 27.08 55.9241 26.52C56.4041 25.9333 56.8841 25.04 57.3641 23.84H59.0441C58.0574 26.7733 56.9107 28.7467 55.6041 29.76C54.3241 30.7467 52.9907 31.24 51.6041 31.24ZM63.1994 31.16C61.226 31.16 59.666 30.6533 58.5194 29.64C57.3727 28.6267 56.7994 27.0267 56.7994 24.84C56.7994 23.0267 57.1727 21.0133 57.9194 18.8C58.666 16.5867 59.866 14.68 61.5194 13.08C63.1727 11.4533 65.2527 10.64 67.7594 10.64C71.1727 10.64 72.8794 12.7733 72.8794 17.04V17.08C72.9594 17.1067 73.106 17.12 73.3194 17.12C74.1994 17.12 75.2127 16.8933 76.3594 16.44C77.506 15.96 78.546 15.3867 79.4794 14.72L79.8394 15.8C79.066 16.6267 78.0527 17.3333 76.7994 17.92C75.5727 18.48 74.226 18.88 72.7594 19.12C72.546 21.5467 71.9994 23.6667 71.1194 25.48C70.2394 27.2933 69.106 28.6933 67.7194 29.68C66.3327 30.6667 64.826 31.16 63.1994 31.16ZM64.7994 27.56C65.4394 27.56 66.0794 27.2 66.7194 26.48C67.3594 25.7333 67.9194 24.7333 68.3994 23.48C68.8794 22.2 69.226 20.7867 69.4394 19.24C68.7194 19.08 68.3594 18.52 68.3594 17.56C68.3594 16.4667 68.7727 15.7467 69.5994 15.4C69.546 14.52 69.4127 13.92 69.1994 13.6C68.986 13.2533 68.6127 13.08 68.0794 13.08C67.1994 13.08 66.346 13.72 65.5194 15C64.6927 16.28 64.026 17.8133 63.5194 19.6C63.0127 21.3867 62.7594 22.96 62.7594 24.32C62.7594 25.6 62.906 26.4667 63.1994 26.92C63.4927 27.3467 64.026 27.56 64.7994 27.56ZM80.7775 31.16C78.8042 31.16 77.2442 30.6533 76.0975 29.64C74.9508 28.6267 74.3775 27.0267 74.3775 24.84C74.3775 23.0267 74.7508 21.0133 75.4975 18.8C76.2442 16.5867 77.4442 14.68 79.0975 13.08C80.7508 11.4533 82.8308 10.64 85.3375 10.64C88.7508 10.64 90.4575 12.7733 90.4575 17.04V17.08C90.5375 17.1067 90.6842 17.12 90.8975 17.12C91.7775 17.12 92.7908 16.8933 93.9375 16.44C95.0842 15.96 96.1242 15.3867 97.0575 14.72L97.4175 15.8C96.6442 16.6267 95.6308 17.3333 94.3775 17.92C93.1508 18.48 91.8042 18.88 90.3375 19.12C90.1242 21.5467 89.5775 23.6667 88.6975 25.48C87.8175 27.2933 86.6842 28.6933 85.2975 29.68C83.9108 30.6667 82.4042 31.16 80.7775 31.16ZM82.3775 27.56C83.0175 27.56 83.6575 27.2 84.2975 26.48C84.9375 25.7333 85.4975 24.7333 85.9775 23.48C86.4575 22.2 86.8042 20.7867 87.0175 19.24C86.2975 19.08 85.9375 18.52 85.9375 17.56C85.9375 16.4667 86.3508 15.7467 87.1775 15.4C87.1242 14.52 86.9908 13.92 86.7775 13.6C86.5642 13.2533 86.1908 13.08 85.6575 13.08C84.7775 13.08 83.9242 13.72 83.0975 15C82.2708 16.28 81.6042 17.8133 81.0975 19.6C80.5908 21.3867 80.3375 22.96 80.3375 24.32C80.3375 25.6 80.4842 26.4667 80.7775 26.92C81.0708 27.3467 81.6042 27.56 82.3775 27.56ZM96.3956 31.24C95.1156 31.24 94.0756 30.84 93.2756 30.04C92.5023 29.2133 92.1156 27.9867 92.1156 26.36C92.1156 25.6933 92.2223 24.8267 92.4356 23.76L96.7156 3.72L102.636 2.92L98.0356 24.52C97.929 24.92 97.8756 25.3067 97.8756 25.68C97.8756 26.7467 98.4223 27.28 99.5156 27.28C99.9956 27.28 100.422 27.2 100.796 27.04C100.689 28.3733 100.209 29.4133 99.3556 30.16C98.529 30.88 97.5423 31.24 96.3956 31.24ZM131.829 41C130.629 41 129.442 40.6533 128.269 39.96C127.122 39.2933 125.655 38.2533 123.869 36.84C122.535 35.7733 121.389 34.9067 120.429 34.24C119.495 33.6 118.469 33.0533 117.349 32.6C116.255 32.1467 115.135 31.92 113.989 31.92C113.589 31.92 113.282 31.9333 113.069 31.96L119.029 4.24C117.242 4.96 115.855 6.06667 114.869 7.56C113.909 9.02667 113.429 10.8267 113.429 12.96C113.429 13.9467 113.522 14.64 113.709 15.04C113.895 15.4133 113.989 15.6267 113.989 15.68C112.549 15.68 111.469 15.3867 110.749 14.8C110.055 14.1867 109.709 13.1867 109.709 11.8C109.709 10.0933 110.402 8.44 111.789 6.84C113.202 5.21333 115.002 3.90667 117.189 2.92C119.375 1.90667 121.562 1.4 123.749 1.4C124.122 1.4 124.655 1.42667 125.349 1.48L119.189 30.2C119.935 30.3867 120.695 30.6533 121.469 31C122.269 31.3733 123.229 31.8667 124.349 32.48C126.082 33.4133 127.562 34.12 128.789 34.6C130.015 35.1067 131.295 35.36 132.629 35.36C133.829 35.36 134.949 35.1467 135.989 34.72C135.775 36.6667 135.295 38.2 134.549 39.32C133.829 40.44 132.922 41 131.829 41ZM131.305 8.84C130.425 8.84 129.678 8.53333 129.065 7.92C128.452 7.30667 128.145 6.56 128.145 5.68C128.145 4.8 128.452 4.05333 129.065 3.44C129.678 2.8 130.425 2.48 131.305 2.48C132.185 2.48 132.932 2.8 133.545 3.44C134.185 4.05333 134.505 4.8 134.505 5.68C134.505 6.56 134.185 7.30667 133.545 7.92C132.932 8.53333 132.185 8.84 131.305 8.84ZM128.585 31.24C127.305 31.24 126.265 30.84 125.465 30.04C124.692 29.24 124.305 28.04 124.305 26.44C124.305 25.7733 124.412 24.9067 124.625 23.84L127.345 11H133.105L130.225 24.6C130.118 25 130.065 25.4267 130.065 25.88C130.065 26.4133 130.185 26.8 130.425 27.04C130.692 27.2533 131.118 27.36 131.705 27.36C132.478 27.36 133.198 27.04 133.865 26.4C134.532 25.7333 135.012 24.88 135.305 23.84H136.985C135.998 26.72 134.732 28.68 133.185 29.72C131.638 30.7333 130.105 31.24 128.585 31.24ZM131.689 41C130.436 41 129.342 40.5867 128.409 39.76C127.449 38.96 126.969 37.9333 126.969 36.68C126.969 35.5333 127.262 34.5867 127.849 33.84C128.436 33.0933 129.196 32.4933 130.129 32.04C131.062 31.6133 132.302 31.16 133.849 30.68L138.689 7.84C139.222 5.28 140.156 3.50667 141.489 2.52C142.849 1.53333 144.342 1.04 145.969 1.04C147.222 1.04 148.316 1.45333 149.249 2.28C150.209 3.08 150.689 4.10667 150.689 5.36C150.689 5.97333 150.649 6.52 150.569 7H148.689C148.742 6.41333 148.769 6.05333 148.769 5.92C148.769 5.49333 148.622 5.16 148.329 4.92C148.036 4.68 147.676 4.56 147.249 4.56C146.689 4.56 146.142 4.81333 145.609 5.32C145.076 5.8 144.689 6.64 144.449 7.84L143.769 11H146.689L146.409 12.6H143.449L138.849 34.2C138.316 36.7867 137.396 38.56 136.089 39.52C134.782 40.5067 133.316 41 131.689 41ZM130.769 37.44C131.836 37.44 132.596 36.4 133.049 34.32L133.569 32C132.156 32.48 131.076 33.0267 130.329 33.64C129.556 34.28 129.169 35.1067 129.169 36.12C129.169 36.44 129.329 36.7333 129.649 37C129.969 37.2933 130.342 37.44 130.769 37.44ZM151.593 31.24C149.646 31.24 148.126 30.7333 147.033 29.72C145.94 28.68 145.393 27.0667 145.393 24.88C145.393 23.04 145.753 21.0133 146.473 18.8C147.193 16.5867 148.366 14.68 149.993 13.08C151.62 11.4533 153.686 10.64 156.193 10.64C159.126 10.64 160.593 11.92 160.593 14.48C160.593 15.9733 160.166 17.3467 159.313 18.6C158.46 19.8533 157.326 20.8667 155.913 21.64C154.5 22.3867 152.993 22.8133 151.393 22.92C151.34 23.5067 151.313 23.9067 151.313 24.12C151.313 26.3333 152.14 27.44 153.793 27.44C154.54 27.44 155.34 27.24 156.193 26.84C157.046 26.44 157.82 25.9333 158.513 25.32C157.793 29.2667 155.486 31.24 151.593 31.24ZM151.673 21C152.686 20.9733 153.633 20.64 154.513 20C155.42 19.36 156.14 18.5467 156.673 17.56C157.233 16.5467 157.513 15.4933 157.513 14.4C157.513 13.3067 157.18 12.76 156.513 12.76C155.58 12.76 154.646 13.6133 153.713 15.32C152.806 17 152.126 18.8933 151.673 21Z" fill="#05A4E8"/>
</svg>
