<svg width="140" height="32" viewBox="0 0 140 32" fill="none" xmlns="http://www.w3.org/2000/svg">
<path d="M8.8 31.72C7.12 31.72 5.64 31.4267 4.36 30.84C3.08 30.2533 2.09333 29.44 1.4 28.4C0.706667 27.3333 0.36 26.1067 0.36 24.72C0.36 23.5467 0.6 22.48 1.08 21.52C1.58667 20.56 2.25333 19.8 3.08 19.24C3.93333 18.68 4.86667 18.4 5.88 18.4C6.81333 18.4 7.6 18.64 8.24 19.12C8.88 19.5733 9.28 20.2133 9.44 21.04C8.05333 21.04 6.94667 21.4133 6.12 22.16C5.29333 22.88 4.88 23.8667 4.88 25.12C4.88 26.2667 5.22667 27.1867 5.92 27.88C6.61333 28.5733 7.53333 28.92 8.68 28.92C10.0933 28.92 11.2533 28.4533 12.16 27.52C13.0933 26.56 13.56 25.36 13.56 23.92C13.56 22.6667 13.2133 21.48 12.52 20.36C11.8267 19.24 10.7867 17.88 9.4 16.28C7.96 14.6267 6.86667 13.2133 6.12 12.04C5.4 10.84 5.04 9.53333 5.04 8.12C5.04 6.73333 5.42667 5.49333 6.2 4.4C6.97333 3.28 8.04 2.4 9.4 1.76C10.76 1.12 12.2933 0.799998 14 0.799998C16.16 0.799998 17.88 1.30667 19.16 2.32C20.4667 3.33333 21.12 4.69333 21.12 6.4C21.12 7.52 20.84 8.42667 20.28 9.12C19.72 9.81333 18.9867 10.16 18.08 10.16C17.0667 10.16 16.2533 9.74667 15.64 8.92C16.1467 8.54666 16.5467 8.05333 16.84 7.44C17.1333 6.82666 17.28 6.18667 17.28 5.52C17.28 4.66667 17.0267 3.98667 16.52 3.48C16.0133 2.97333 15.32 2.72 14.44 2.72C13.3733 2.72 12.4933 3.10667 11.8 3.88C11.1333 4.62667 10.8 5.58667 10.8 6.76C10.8 7.82667 11.1067 8.82667 11.72 9.76C12.3333 10.6667 13.2933 11.84 14.6 13.28C15.6667 14.4267 16.52 15.4133 17.16 16.24C17.8267 17.0667 18.3867 18.0267 18.84 19.12C19.32 20.1867 19.56 21.3467 19.56 22.6C19.56 24.3067 19.08 25.8533 18.12 27.24C17.1867 28.6267 15.8933 29.72 14.24 30.52C12.6133 31.32 10.8 31.72 8.8 31.72ZM25.7725 31.24C24.4925 31.24 23.4525 30.84 22.6525 30.04C21.8792 29.24 21.4925 28.04 21.4925 26.44C21.4925 25.7733 21.5992 24.9067 21.8125 23.84L24.2125 12.6H22.8925L23.2125 11H24.5325L25.7325 5.48L31.6525 4.68L30.2925 11H32.6925L32.3725 12.6H29.9725L27.4125 24.6C27.3058 25 27.2525 25.4267 27.2525 25.88C27.2525 26.4133 27.3725 26.8 27.6125 27.04C27.8792 27.2533 28.3058 27.36 28.8925 27.36C29.6658 27.36 30.3858 27.04 31.0525 26.4C31.7192 25.7333 32.1992 24.88 32.4925 23.84H34.1725C33.1858 26.72 31.9192 28.68 30.3725 29.72C28.8258 30.7333 27.2925 31.24 25.7725 31.24ZM37.2766 31.24C35.7566 31.24 34.4899 30.72 33.4766 29.68C32.4632 28.64 31.9566 27.0133 31.9566 24.8C31.9566 22.8267 32.3432 20.76 33.1166 18.6C33.9166 16.4133 35.0899 14.5733 36.6366 13.08C38.2099 11.56 40.0766 10.8 42.2366 10.8C43.3299 10.8 44.1432 10.9867 44.6766 11.36C45.2099 11.7333 45.4766 12.2267 45.4766 12.84V13.12L45.9166 11H51.6766L48.7966 24.6C48.6899 25 48.6366 25.4267 48.6366 25.88C48.6366 27.0267 49.1832 27.6 50.2766 27.6C51.0232 27.6 51.6632 27.2533 52.1966 26.56C52.7566 25.8667 53.1966 24.96 53.5166 23.84H55.1966C54.2099 26.72 52.9832 28.68 51.5166 29.72C50.0766 30.7333 48.6232 31.24 47.1566 31.24C46.0366 31.24 45.1299 30.9333 44.4366 30.32C43.7699 29.68 43.3699 28.76 43.2366 27.56C42.4632 28.6533 41.5966 29.5467 40.6366 30.24C39.7032 30.9067 38.5832 31.24 37.2766 31.24ZM39.8766 27.36C40.5432 27.36 41.1966 27.0533 41.8366 26.44C42.5032 25.8 42.9566 24.9333 43.1966 23.84L45.1166 14.8C45.1166 14.4533 44.9832 14.12 44.7166 13.8C44.4499 13.4533 44.0366 13.28 43.4766 13.28C42.4099 13.28 41.4499 13.9067 40.5966 15.16C39.7432 16.3867 39.0766 17.88 38.5966 19.64C38.1166 21.3733 37.8766 22.9067 37.8766 24.24C37.8766 25.5733 38.0632 26.4267 38.4366 26.8C38.8366 27.1733 39.3166 27.36 39.8766 27.36ZM57.4913 31.24C56.2113 31.24 55.1713 30.84 54.3713 30.04C53.5979 29.24 53.2112 28.04 53.2112 26.44C53.2112 25.7733 53.3179 24.9067 53.5312 23.84L55.9313 12.6H54.6113L54.9313 11H56.2513L57.4513 5.48L63.3713 4.68L62.0113 11H64.4113L64.0912 12.6H61.6913L59.1313 24.6C59.0246 25 58.9713 25.4267 58.9713 25.88C58.9713 26.4133 59.0913 26.8 59.3313 27.04C59.5979 27.2533 60.0246 27.36 60.6113 27.36C61.3846 27.36 62.1046 27.04 62.7713 26.4C63.4379 25.7333 63.9179 24.88 64.2113 23.84H65.8913C64.9046 26.72 63.6379 28.68 62.0913 29.72C60.5446 30.7333 59.0113 31.24 57.4913 31.24ZM70.8753 8.84C69.9953 8.84 69.2486 8.53333 68.6353 7.92C68.022 7.30667 67.7153 6.56 67.7153 5.68C67.7153 4.8 68.022 4.05333 68.6353 3.44C69.2486 2.8 69.9953 2.48 70.8753 2.48C71.7553 2.48 72.502 2.8 73.1153 3.44C73.7553 4.05333 74.0753 4.8 74.0753 5.68C74.0753 6.56 73.7553 7.30667 73.1153 7.92C72.502 8.53333 71.7553 8.84 70.8753 8.84ZM68.1553 31.24C66.8753 31.24 65.8353 30.84 65.0353 30.04C64.262 29.24 63.8753 28.04 63.8753 26.44C63.8753 25.7733 63.982 24.9067 64.1953 23.84L66.9153 11H72.6753L69.7953 24.6C69.6886 25 69.6353 25.4267 69.6353 25.88C69.6353 26.4133 69.7553 26.8 69.9953 27.04C70.262 27.2533 70.6886 27.36 71.2753 27.36C72.0486 27.36 72.7686 27.04 73.4353 26.4C74.102 25.7333 74.582 24.88 74.8753 23.84H76.5553C75.5686 26.72 74.302 28.68 72.7553 29.72C71.2086 30.7333 69.6753 31.24 68.1553 31.24ZM79.4194 31.24C78.1394 31.24 77.0594 31 76.1794 30.52C75.2994 30.0133 74.646 29.3733 74.2194 28.6C73.7927 27.8 73.5794 26.9733 73.5794 26.12C73.5794 25.24 73.7927 24.48 74.2194 23.84C74.6194 23.1733 75.1127 22.6933 75.6994 22.4C76.7394 20.5333 77.646 18.6533 78.4194 16.76C79.1927 14.84 79.926 12.7733 80.6194 10.56L86.5394 9.76C86.6727 13.1733 86.8994 16.8667 87.2194 20.84C87.3527 22.44 87.4194 23.6 87.4194 24.32C87.4194 24.9333 87.366 25.44 87.2594 25.84C88.5127 25.12 89.4727 24.4533 90.1394 23.84H91.8194C90.1127 25.8133 88.0727 27.48 85.6994 28.84C84.926 29.6667 83.966 30.28 82.8194 30.68C81.6994 31.0533 80.566 31.24 79.4194 31.24ZM78.1394 28.08C79.126 28.08 79.9527 27.7867 80.6194 27.2C81.286 26.6133 81.6194 25.6667 81.6194 24.36C81.6194 23.56 81.5394 22.44 81.3794 21C81.1127 17.96 80.9394 15.92 80.8594 14.88C80.2194 16.9867 79.1394 19.5067 77.6194 22.44C78.2327 22.76 78.5394 23.2267 78.5394 23.84C78.5394 24.3467 78.366 24.8 78.0194 25.2C77.6994 25.6 77.286 25.8 76.7794 25.8C76.2194 25.8 75.8594 25.6267 75.6994 25.28C75.6994 26.24 75.886 26.9467 76.2594 27.4C76.6594 27.8533 77.286 28.08 78.1394 28.08ZM94.0928 31.24C92.8128 31.24 91.7728 30.84 90.9728 30.04C90.1995 29.24 89.8128 28.04 89.8128 26.44C89.8128 25.7733 89.9195 24.9067 90.1328 23.84L92.5328 12.6H91.2128L91.5328 11H92.8528L94.0528 5.48L99.9728 4.68L98.6128 11H101.013L100.693 12.6H98.2928L95.7328 24.6C95.6261 25 95.5728 25.4267 95.5728 25.88C95.5728 26.4133 95.6928 26.8 95.9328 27.04C96.1995 27.2533 96.6261 27.36 97.2128 27.36C97.9861 27.36 98.7061 27.04 99.3728 26.4C100.039 25.7333 100.519 24.88 100.813 23.84H102.493C101.506 26.72 100.239 28.68 98.6928 29.72C97.1461 30.7333 95.6128 31.24 94.0928 31.24ZM107.477 8.84C106.597 8.84 105.85 8.53333 105.237 7.92C104.624 7.30667 104.317 6.56 104.317 5.68C104.317 4.8 104.624 4.05333 105.237 3.44C105.85 2.8 106.597 2.48 107.477 2.48C108.357 2.48 109.104 2.8 109.717 3.44C110.357 4.05333 110.677 4.8 110.677 5.68C110.677 6.56 110.357 7.30667 109.717 7.92C109.104 8.53333 108.357 8.84 107.477 8.84ZM104.757 31.24C103.477 31.24 102.437 30.84 101.637 30.04C100.864 29.24 100.477 28.04 100.477 26.44C100.477 25.7733 100.584 24.9067 100.797 23.84L103.517 11H109.277L106.397 24.6C106.29 25 106.237 25.4267 106.237 25.88C106.237 26.4133 106.357 26.8 106.597 27.04C106.864 27.2533 107.29 27.36 107.877 27.36C108.65 27.36 109.37 27.04 110.037 26.4C110.704 25.7333 111.184 24.88 111.477 23.84H113.157C112.17 26.72 110.904 28.68 109.357 29.72C107.81 30.7333 106.277 31.24 104.757 31.24ZM117.181 31.24C115.208 31.24 113.674 30.7333 112.581 29.72C111.488 28.68 110.941 27.0667 110.941 24.88C110.941 23.04 111.301 21.0133 112.021 18.8C112.768 16.5867 113.941 14.68 115.541 13.08C117.168 11.4533 119.221 10.64 121.701 10.64C123.301 10.64 124.434 10.9867 125.101 11.68C125.794 12.3733 126.141 13.2533 126.141 14.32C126.141 15.2533 125.941 15.9733 125.541 16.48C125.141 16.9867 124.634 17.24 124.021 17.24C123.568 17.24 123.101 17.08 122.621 16.76C122.941 15.88 123.101 15.0933 123.101 14.4C123.101 13.8933 123.008 13.4933 122.821 13.2C122.634 12.9067 122.354 12.76 121.981 12.76C121.181 12.76 120.381 13.4133 119.581 14.72C118.781 16.0267 118.128 17.6133 117.621 19.48C117.114 21.3467 116.861 23.0267 116.861 24.52C116.861 25.8267 117.088 26.72 117.541 27.2C117.994 27.6533 118.728 27.88 119.741 27.88C121.181 27.88 122.408 27.5467 123.421 26.88C124.461 26.2133 125.594 25.2 126.821 23.84H128.181C125.221 28.7733 121.554 31.24 117.181 31.24ZM131.373 31.24C130.093 31.24 129.012 31 128.132 30.52C127.252 30.0133 126.599 29.3733 126.172 28.6C125.746 27.8 125.532 26.9733 125.532 26.12C125.532 25.24 125.746 24.48 126.172 23.84C126.572 23.1733 127.066 22.6933 127.653 22.4C128.693 20.5333 129.599 18.6533 130.373 16.76C131.146 14.84 131.879 12.7733 132.573 10.56L138.493 9.76C138.626 13.1733 138.853 16.8667 139.173 20.84C139.306 22.44 139.373 23.6 139.373 24.32C139.373 25.9467 138.959 27.28 138.133 28.32C137.306 29.36 136.279 30.1067 135.053 30.56C133.853 31.0133 132.626 31.24 131.373 31.24ZM130.093 28.08C131.079 28.08 131.906 27.7867 132.573 27.2C133.239 26.6133 133.573 25.6667 133.573 24.36C133.573 23.56 133.493 22.44 133.333 21C133.066 17.96 132.893 15.92 132.813 14.88C132.173 16.9867 131.093 19.5067 129.573 22.44C130.186 22.76 130.493 23.2267 130.493 23.84C130.493 24.3467 130.319 24.8 129.973 25.2C129.653 25.6 129.239 25.8 128.733 25.8C128.173 25.8 127.813 25.6267 127.653 25.28C127.653 26.24 127.839 26.9467 128.213 27.4C128.613 27.8533 129.239 28.08 130.093 28.08Z" fill="#05A4E8"/>
</svg>
