<svg width="196" height="40" viewBox="0 0 196 40" fill="none" xmlns="http://www.w3.org/2000/svg">
<path d="M11.96 3.52H11.48C9.10667 3.52 7.25333 4.12 5.92 5.32C4.61333 6.49333 3.96 8.58667 3.96 11.6C3.96 12.5867 4.05333 13.28 4.24 13.68C4.42667 14.0533 4.52 14.2667 4.52 14.32C3.08 14.32 2 14.0267 1.28 13.44C0.586667 12.8267 0.24 11.8267 0.24 10.44C0.24 8.54667 0.706667 6.82667 1.64 5.28C2.57333 3.70667 4.05333 2.44 6.08 1.48C8.13333 0.519999 10.7333 0.0399995 13.88 0.0399995C15.64 0.0399995 17.5333 0.199999 19.56 0.519998C21.2667 0.813332 22.7867 0.96 24.12 0.96C25.8267 0.96 27.3733 0.679999 28.76 0.119998C28.7067 1.85333 28.2667 3.13333 27.44 3.96C26.6133 4.78667 25.3867 5.2 23.76 5.2C22.9067 5.2 22.0533 5.13333 21.2 5C20.3467 4.86667 19.1333 4.64 17.56 4.32L12.04 30H6.28L11.96 3.52ZM24.9778 30.24C23.0045 30.24 21.4711 29.7333 20.3778 28.72C19.2845 27.68 18.7378 26.0667 18.7378 23.88C18.7378 22.04 19.0978 20.0133 19.8178 17.8C20.5378 15.5867 21.7111 13.68 23.3378 12.08C24.9645 10.4533 27.0311 9.64 29.5378 9.64C32.4711 9.64 33.9378 10.92 33.9378 13.48C33.9378 14.9733 33.5111 16.3467 32.6578 17.6C31.8045 18.8533 30.6711 19.8667 29.2578 20.64C27.8445 21.3867 26.3378 21.8133 24.7378 21.92C24.6845 22.72 24.6578 23.2533 24.6578 23.52C24.6578 24.8267 24.8845 25.72 25.3378 26.2C25.7911 26.6533 26.5245 26.88 27.5378 26.88C28.9778 26.88 30.2045 26.5467 31.2178 25.88C32.2578 25.2133 33.3911 24.2 34.6178 22.84H35.9778C33.0178 27.7733 29.3511 30.24 24.9778 30.24ZM25.0578 20C26.0445 19.9467 26.9778 19.6 27.8578 18.96C28.7645 18.32 29.4845 17.5067 30.0178 16.52C30.5778 15.5333 30.8578 14.4933 30.8578 13.4C30.8578 12.3067 30.5245 11.76 29.8578 11.76C28.8978 11.76 27.9511 12.6 27.0178 14.28C26.1111 15.96 25.4578 17.8667 25.0578 20ZM40.3294 30.24C38.356 30.24 36.8227 29.7333 35.7294 28.72C34.636 27.68 34.0894 26.0667 34.0894 23.88C34.0894 22.04 34.4494 20.0133 35.1694 17.8C35.916 15.5867 37.0894 13.68 38.6894 12.08C40.316 10.4533 42.3694 9.64 44.8494 9.64C46.4494 9.64 47.5827 9.98667 48.2494 10.68C48.9427 11.3733 49.2894 12.2533 49.2894 13.32C49.2894 14.2533 49.0894 14.9733 48.6894 15.48C48.2894 15.9867 47.7827 16.24 47.1694 16.24C46.716 16.24 46.2494 16.08 45.7694 15.76C46.0894 14.88 46.2494 14.0933 46.2494 13.4C46.2494 12.8933 46.156 12.4933 45.9694 12.2C45.7827 11.9067 45.5027 11.76 45.1294 11.76C44.3294 11.76 43.5294 12.4133 42.7294 13.72C41.9294 15.0267 41.276 16.6133 40.7694 18.48C40.2627 20.3467 40.0094 22.0267 40.0094 23.52C40.0094 24.8267 40.236 25.72 40.6894 26.2C41.1427 26.6533 41.876 26.88 42.8894 26.88C44.3294 26.88 45.556 26.5467 46.5694 25.88C47.6094 25.2133 48.7427 24.2 49.9694 22.84H51.3294C48.3694 27.7733 44.7027 30.24 40.3294 30.24ZM64.4009 30.24C62.7743 30.24 61.5743 29.8133 60.8009 28.96C60.0543 28.08 59.6809 27 59.6809 25.72C59.6809 25.16 59.7476 24.5333 59.8809 23.84C60.0143 23.12 60.1476 22.4267 60.2809 21.76C60.4409 21.0933 60.5476 20.6667 60.6009 20.48C60.8143 19.5467 61.0143 18.6267 61.2009 17.72C61.3876 16.8133 61.4809 16.08 61.4809 15.52C61.4809 14.16 61.0009 13.48 60.0409 13.48C59.3476 13.48 58.7343 13.8267 58.2009 14.52C57.6676 15.1867 57.2409 16.0667 56.9209 17.16L54.2009 30H48.4409L54.2409 2.8L60.1609 2L58.0009 12.08C59.3343 10.5867 60.8943 9.84 62.6809 9.84C64.0409 9.84 65.1209 10.2133 65.9209 10.96C66.7209 11.7067 67.1209 12.84 67.1209 14.36C67.1209 15.1333 67.0276 16 66.8409 16.96C66.6543 17.8933 66.3876 19.04 66.0409 20.4C65.8276 21.2267 65.6276 22.04 65.4409 22.84C65.2809 23.6133 65.2009 24.2267 65.2009 24.68C65.2009 25.2133 65.3209 25.6267 65.5609 25.92C65.8009 26.2133 66.2143 26.36 66.8009 26.36C67.6009 26.36 68.2409 26.08 68.7209 25.52C69.2009 24.9333 69.6809 24.04 70.1609 22.84H71.8409C70.8543 25.7733 69.7076 27.7467 68.4009 28.76C67.1209 29.7467 65.7876 30.24 64.4009 30.24ZM84.5963 30.24C82.9696 30.24 81.7696 29.8133 80.9963 28.96C80.2496 28.08 79.8763 27 79.8763 25.72C79.8763 25.16 79.9429 24.5333 80.0763 23.84C80.2096 23.12 80.3429 22.4267 80.4763 21.76C80.6363 21.0933 80.7429 20.6667 80.7963 20.48C81.0096 19.5467 81.2096 18.6267 81.3963 17.72C81.5829 16.8133 81.6763 16.08 81.6763 15.52C81.6763 14.16 81.1963 13.48 80.2363 13.48C79.5429 13.48 78.9296 13.8267 78.3963 14.52C77.8629 15.1867 77.4363 16.0667 77.1163 17.16L74.3963 30H68.6362L72.8763 10H78.6363L78.1963 12.08C79.5296 10.5867 81.0896 9.84 82.8763 9.84C84.2363 9.84 85.3163 10.2133 86.1163 10.96C86.9163 11.7067 87.3163 12.84 87.3163 14.36C87.3163 15.1333 87.2229 16 87.0363 16.96C86.8496 17.8933 86.5829 19.04 86.2363 20.4C86.0229 21.2267 85.8229 22.04 85.6363 22.84C85.4763 23.6133 85.3963 24.2267 85.3963 24.68C85.3963 25.2133 85.5163 25.6267 85.7563 25.92C85.9963 26.2133 86.4096 26.36 86.9963 26.36C87.7963 26.36 88.4363 26.08 88.9163 25.52C89.3963 24.9333 89.8763 24.04 90.3562 22.84H92.0363C91.0496 25.7733 89.9029 27.7467 88.5963 28.76C87.3163 29.7467 85.9829 30.24 84.5963 30.24ZM96.1916 30.16C94.2182 30.16 92.6582 29.6533 91.5116 28.64C90.3649 27.6267 89.7916 26.0267 89.7916 23.84C89.7916 22.0267 90.1649 20.0133 90.9116 17.8C91.6582 15.5867 92.8582 13.68 94.5116 12.08C96.1649 10.4533 98.2449 9.64 100.752 9.64C104.165 9.64 105.872 11.7733 105.872 16.04V16.08C105.952 16.1067 106.098 16.12 106.312 16.12C107.192 16.12 108.205 15.8933 109.352 15.44C110.498 14.96 111.538 14.3867 112.472 13.72L112.832 14.8C112.058 15.6267 111.045 16.3333 109.792 16.92C108.565 17.48 107.218 17.88 105.752 18.12C105.538 20.5467 104.992 22.6667 104.112 24.48C103.232 26.2933 102.098 27.6933 100.712 28.68C99.3249 29.6667 97.8182 30.16 96.1916 30.16ZM97.7916 26.56C98.4316 26.56 99.0716 26.2 99.7116 25.48C100.352 24.7333 100.912 23.7333 101.392 22.48C101.872 21.2 102.218 19.7867 102.432 18.24C101.712 18.08 101.352 17.52 101.352 16.56C101.352 15.4667 101.765 14.7467 102.592 14.4C102.538 13.52 102.405 12.92 102.192 12.6C101.978 12.2533 101.605 12.08 101.072 12.08C100.192 12.08 99.3382 12.72 98.5116 14C97.6849 15.28 97.0182 16.8133 96.5116 18.6C96.0049 20.3867 95.7516 21.96 95.7516 23.32C95.7516 24.6 95.8982 25.4667 96.1916 25.92C96.4849 26.3467 97.0182 26.56 97.7916 26.56ZM111.89 30.24C110.61 30.24 109.57 29.84 108.77 29.04C107.996 28.24 107.61 27.04 107.61 25.44C107.61 24.7733 107.716 23.9067 107.93 22.84L112.21 2.8L118.13 2L113.53 23.6C113.423 24 113.37 24.4267 113.37 24.88C113.37 25.4133 113.49 25.8 113.73 26.04C113.996 26.2533 114.423 26.36 115.01 26.36C115.783 26.36 116.503 26.04 117.17 25.4C117.836 24.7333 118.316 23.88 118.61 22.84H120.29C119.303 25.72 118.036 27.68 116.49 28.72C114.943 29.7333 113.41 30.24 111.89 30.24ZM124.434 30.16C122.46 30.16 120.9 29.6533 119.754 28.64C118.607 27.6267 118.034 26.0267 118.034 23.84C118.034 22.0267 118.407 20.0133 119.154 17.8C119.9 15.5867 121.1 13.68 122.754 12.08C124.407 10.4533 126.487 9.64 128.994 9.64C132.407 9.64 134.114 11.7733 134.114 16.04V16.08C134.194 16.1067 134.34 16.12 134.554 16.12C135.434 16.12 136.447 15.8933 137.594 15.44C138.74 14.96 139.78 14.3867 140.714 13.72L141.074 14.8C140.3 15.6267 139.287 16.3333 138.034 16.92C136.807 17.48 135.46 17.88 133.994 18.12C133.78 20.5467 133.234 22.6667 132.354 24.48C131.474 26.2933 130.34 27.6933 128.954 28.68C127.567 29.6667 126.06 30.16 124.434 30.16ZM126.034 26.56C126.674 26.56 127.314 26.2 127.954 25.48C128.594 24.7333 129.154 23.7333 129.634 22.48C130.114 21.2 130.46 19.7867 130.674 18.24C129.954 18.08 129.594 17.52 129.594 16.56C129.594 15.4667 130.007 14.7467 130.834 14.4C130.78 13.52 130.647 12.92 130.434 12.6C130.22 12.2533 129.847 12.08 129.314 12.08C128.434 12.08 127.58 12.72 126.754 14C125.927 15.28 125.26 16.8133 124.754 18.6C124.247 20.3867 123.994 21.96 123.994 23.32C123.994 24.6 124.14 25.4667 124.434 25.92C124.727 26.3467 125.26 26.56 126.034 26.56ZM143.252 40C141.972 40 140.905 39.6667 140.052 39C139.199 38.3333 138.772 37.3733 138.772 36.12C138.772 34.6 139.385 33.3733 140.612 32.44C141.839 31.5333 143.399 30.7733 145.292 30.16L145.772 28.04C144.412 29.5067 142.812 30.24 140.972 30.24C139.452 30.24 138.185 29.72 137.172 28.68C136.159 27.64 135.652 26.0133 135.652 23.8C135.652 21.8267 136.039 19.76 136.812 17.6C137.612 15.4133 138.785 13.5733 140.332 12.08C141.905 10.56 143.772 9.8 145.932 9.8C147.025 9.8 147.839 9.98667 148.372 10.36C148.905 10.7333 149.172 11.2267 149.172 11.84V12.08L149.612 10H155.372L151.412 28.56C152.692 28.1333 153.719 27.4933 154.492 26.64C155.265 25.7867 155.919 24.52 156.452 22.84H158.132C157.412 25.2133 156.439 26.96 155.212 28.08C153.985 29.1733 152.599 29.92 151.052 30.32L150.452 33.2C149.919 35.7867 148.999 37.56 147.692 38.52C146.385 39.5067 144.905 40 143.252 40ZM143.572 26.36C144.185 26.36 144.812 26.08 145.452 25.52C146.092 24.96 146.532 24.2 146.772 23.24L148.812 13.76C148.812 13.44 148.679 13.12 148.412 12.8C148.145 12.4533 147.732 12.28 147.172 12.28C146.105 12.28 145.145 12.9067 144.292 14.16C143.439 15.3867 142.772 16.88 142.292 18.64C141.812 20.3733 141.572 21.9067 141.572 23.24C141.572 24.5733 141.759 25.4267 142.132 25.8C142.532 26.1733 143.012 26.36 143.572 26.36ZM142.332 36.88C142.785 36.88 143.225 36.5733 143.652 35.96C144.079 35.3467 144.412 34.4667 144.652 33.32L144.892 32.16C142.279 33.12 140.972 34.2533 140.972 35.56C140.972 35.9067 141.092 36.2133 141.332 36.48C141.572 36.7467 141.905 36.88 142.332 36.88ZM163.125 7.84C162.245 7.84 161.499 7.53333 160.885 6.92C160.272 6.30667 159.965 5.56 159.965 4.68C159.965 3.8 160.272 3.05333 160.885 2.44C161.499 1.8 162.245 1.48 163.125 1.48C164.005 1.48 164.752 1.8 165.365 2.44C166.005 3.05333 166.325 3.8 166.325 4.68C166.325 5.56 166.005 6.30667 165.365 6.92C164.752 7.53333 164.005 7.84 163.125 7.84ZM160.405 30.24C159.125 30.24 158.085 29.84 157.285 29.04C156.512 28.24 156.125 27.04 156.125 25.44C156.125 24.7733 156.232 23.9067 156.445 22.84L159.165 10H164.925L162.045 23.6C161.939 24 161.885 24.4267 161.885 24.88C161.885 25.4133 162.005 25.8 162.245 26.04C162.512 26.2533 162.939 26.36 163.525 26.36C164.299 26.36 165.019 26.04 165.685 25.4C166.352 24.7333 166.832 23.88 167.125 22.84H168.805C167.819 25.72 166.552 27.68 165.005 28.72C163.459 29.7333 161.925 30.24 160.405 30.24ZM172.829 30.24C170.856 30.24 169.323 29.7333 168.229 28.72C167.136 27.68 166.589 26.0667 166.589 23.88C166.589 22.04 166.949 20.0133 167.669 17.8C168.389 15.5867 169.563 13.68 171.189 12.08C172.816 10.4533 174.883 9.64 177.389 9.64C180.323 9.64 181.789 10.92 181.789 13.48C181.789 14.9733 181.363 16.3467 180.509 17.6C179.656 18.8533 178.523 19.8667 177.109 20.64C175.696 21.3867 174.189 21.8133 172.589 21.92C172.536 22.72 172.509 23.2533 172.509 23.52C172.509 24.8267 172.736 25.72 173.189 26.2C173.643 26.6533 174.376 26.88 175.389 26.88C176.829 26.88 178.056 26.5467 179.069 25.88C180.109 25.2133 181.243 24.2 182.469 22.84H183.829C180.869 27.7733 177.203 30.24 172.829 30.24ZM172.909 20C173.896 19.9467 174.829 19.6 175.709 18.96C176.616 18.32 177.336 17.5067 177.869 16.52C178.429 15.5333 178.709 14.4933 178.709 13.4C178.709 12.3067 178.376 11.76 177.709 11.76C176.749 11.76 175.803 12.6 174.869 14.28C173.963 15.96 173.309 17.8667 172.909 20ZM187.021 30.24C185.741 30.24 184.661 30 183.781 29.52C182.901 29.0133 182.248 28.3733 181.821 27.6C181.394 26.8 181.181 25.9733 181.181 25.12C181.181 24.24 181.394 23.48 181.821 22.84C182.221 22.1733 182.714 21.6933 183.301 21.4C184.341 19.5333 185.248 17.6533 186.021 15.76C186.794 13.84 187.528 11.7733 188.221 9.56L194.141 8.76C194.274 12.1733 194.501 15.8667 194.821 19.84C194.954 21.44 195.021 22.6 195.021 23.32C195.021 24.9467 194.608 26.28 193.781 27.32C192.954 28.36 191.928 29.1067 190.701 29.56C189.501 30.0133 188.274 30.24 187.021 30.24ZM185.741 27.08C186.728 27.08 187.554 26.7867 188.221 26.2C188.888 25.6133 189.221 24.6667 189.221 23.36C189.221 22.56 189.141 21.44 188.981 20C188.714 16.96 188.541 14.92 188.461 13.88C187.821 15.9867 186.741 18.5067 185.221 21.44C185.834 21.76 186.141 22.2267 186.141 22.84C186.141 23.3467 185.968 23.8 185.621 24.2C185.301 24.6 184.888 24.8 184.381 24.8C183.821 24.8 183.461 24.6267 183.301 24.28C183.301 25.24 183.488 25.9467 183.861 26.4C184.261 26.8533 184.888 27.08 185.741 27.08Z" fill="#05A4E8"/>
</svg>
