<svg width="203" height="32" viewBox="0 0 203 32" fill="none" xmlns="http://www.w3.org/2000/svg">
<path d="M33.08 31.24C31.4533 31.24 30.2533 30.8133 29.48 29.96C28.7333 29.08 28.36 28 28.36 26.72C28.36 26.16 28.4267 25.5333 28.56 24.84C28.6933 24.12 28.8267 23.4267 28.96 22.76C29.12 22.0933 29.2267 21.6667 29.28 21.48C29.4933 20.5467 29.6933 19.6267 29.88 18.72C30.0667 17.8133 30.16 17.08 30.16 16.52C30.16 15.16 29.68 14.48 28.72 14.48C28.0533 14.48 27.4533 14.8 26.92 15.44C26.4133 16.08 26 16.9067 25.68 17.92C24.88 22.1067 24.0667 26.4667 23.24 31H17.48L22.96 5.48C22.0267 5.4 20.2667 5.17333 17.68 4.8L12.04 31H6.28L12 4.44C9.46667 4.54667 7.49333 5.2 6.08 6.4C4.66667 7.6 3.96 9.66667 3.96 12.6C3.96 13.5867 4.05333 14.28 4.24 14.68C4.42667 15.0533 4.52 15.2667 4.52 15.32C3.08 15.32 2 15.0267 1.28 14.44C0.586667 13.8267 0.24 12.8267 0.24 11.44C0.24 9.57333 0.746667 7.85333 1.76 6.28C2.77333 4.70667 4.33333 3.44 6.44 2.48C8.54667 1.52 11.1733 1.04 14.32 1.04C14.8533 1.04 15.9867 1.16 17.72 1.4C20.8933 1.85333 23.36 2.08 25.12 2.08C27.4133 2.08 29.0267 1.76 29.96 1.12C29.56 1.86667 29.2267 2.57333 28.96 3.24C28.72 3.90667 28.4133 5 28.04 6.52C27.6667 8.01333 27.1867 10.2267 26.6 13.16C27.96 11.6133 29.5467 10.84 31.36 10.84C32.72 10.84 33.8 11.2133 34.6 11.96C35.4 12.7067 35.8 13.84 35.8 15.36C35.8 16.1333 35.7067 17 35.52 17.96C35.3333 18.8933 35.0667 20.04 34.72 21.4C34.5067 22.2267 34.3067 23.04 34.12 23.84C33.96 24.6133 33.88 25.2267 33.88 25.68C33.88 26.2133 34 26.6267 34.24 26.92C34.48 27.2133 34.8933 27.36 35.48 27.36C36.28 27.36 36.92 27.08 37.4 26.52C37.88 25.9333 38.36 25.04 38.84 23.84H40.52C39.5333 26.7733 38.3867 28.7467 37.08 29.76C35.8 30.7467 34.4667 31.24 33.08 31.24ZM43.6281 31.24C42.1081 31.24 40.8415 30.72 39.8281 29.68C38.8148 28.64 38.3081 27.0133 38.3081 24.8C38.3081 22.8267 38.6948 20.76 39.4681 18.6C40.2681 16.4133 41.4415 14.5733 42.9881 13.08C44.5615 11.56 46.4281 10.8 48.5881 10.8C49.6815 10.8 50.4948 10.9867 51.0281 11.36C51.5615 11.7333 51.8281 12.2267 51.8281 12.84V13.12L52.2681 11H58.0281L55.1481 24.6C55.0415 25 54.9881 25.4267 54.9881 25.88C54.9881 27.0267 55.5348 27.6 56.6281 27.6C57.3748 27.6 58.0148 27.2533 58.5481 26.56C59.1081 25.8667 59.5481 24.96 59.8681 23.84H61.5481C60.5615 26.72 59.3348 28.68 57.8681 29.72C56.4281 30.7333 54.9748 31.24 53.5081 31.24C52.3881 31.24 51.4815 30.9333 50.7881 30.32C50.1215 29.68 49.7215 28.76 49.5881 27.56C48.8148 28.6533 47.9481 29.5467 46.9881 30.24C46.0548 30.9067 44.9348 31.24 43.6281 31.24ZM46.2281 27.36C46.8948 27.36 47.5481 27.0533 48.1881 26.44C48.8548 25.8 49.3081 24.9333 49.5481 23.84L51.4681 14.8C51.4681 14.4533 51.3348 14.12 51.0681 13.8C50.8015 13.4533 50.3881 13.28 49.8281 13.28C48.7615 13.28 47.8015 13.9067 46.9481 15.16C46.0948 16.3867 45.4281 17.88 44.9481 19.64C44.4681 21.3733 44.2281 22.9067 44.2281 24.24C44.2281 25.5733 44.4148 26.4267 44.7881 26.8C45.1881 27.1733 45.6681 27.36 46.2281 27.36ZM74.3228 31.24C72.6961 31.24 71.4961 30.8133 70.7228 29.96C69.9761 29.08 69.6028 28 69.6028 26.72C69.6028 26.16 69.6695 25.5333 69.8028 24.84C69.9361 24.12 70.0695 23.4267 70.2028 22.76C70.3628 22.0933 70.4695 21.6667 70.5228 21.48C70.7361 20.5467 70.9361 19.6267 71.1228 18.72C71.3095 17.8133 71.4028 17.08 71.4028 16.52C71.4028 15.16 70.9228 14.48 69.9628 14.48C69.2695 14.48 68.6561 14.8267 68.1228 15.52C67.5895 16.1867 67.1628 17.0667 66.8428 18.16L64.1228 31H58.3628L62.6028 11H68.3628L67.9228 13.08C69.2561 11.5867 70.8161 10.84 72.6028 10.84C73.9628 10.84 75.0428 11.2133 75.8428 11.96C76.6428 12.7067 77.0428 13.84 77.0428 15.36C77.0428 16.1333 76.9495 17 76.7628 17.96C76.5761 18.8933 76.3095 20.04 75.9628 21.4C75.7495 22.2267 75.5495 23.04 75.3628 23.84C75.2028 24.6133 75.1228 25.2267 75.1228 25.68C75.1228 26.2133 75.2428 26.6267 75.4828 26.92C75.7228 27.2133 76.1361 27.36 76.7228 27.36C77.5228 27.36 78.1628 27.08 78.6428 26.52C79.1228 25.9333 79.6028 25.04 80.0828 23.84H81.7628C80.7761 26.7733 79.6295 28.7467 78.3228 29.76C77.0428 30.7467 75.7095 31.24 74.3228 31.24ZM95.1181 31.24C93.4648 31.24 92.2115 30.8533 91.3581 30.08C90.5048 29.28 90.0781 28.1467 90.0781 26.68C90.0781 26.04 90.1581 25.3467 90.3181 24.6L90.6381 23.04C90.7448 22.5867 90.7981 22.0933 90.7981 21.56C90.7981 20.28 90.3181 19.64 89.3581 19.64C88.9315 19.64 88.4781 19.76 87.9981 20C87.5448 20.24 87.0115 20.6133 86.3981 21.12L84.3181 31H78.5581L84.3581 3.8L90.2781 3L87.2781 17.08L94.9981 11H98.9581L90.9581 16.56C91.3581 16.4533 91.7981 16.4 92.2781 16.4C93.7181 16.4 94.8115 16.84 95.5581 17.72C96.3048 18.6 96.6781 19.72 96.6781 21.08C96.6781 21.64 96.6248 22.1467 96.5181 22.6L96.0781 24.6C95.9448 25.08 95.8781 25.5067 95.8781 25.88C95.8781 26.8667 96.3981 27.36 97.4381 27.36C98.0248 27.36 98.3981 27.32 98.5581 27.24C98.7181 27.16 98.8115 27.12 98.8381 27.12C98.7848 28 98.5315 28.7467 98.0781 29.36C97.6515 29.9733 97.1448 30.44 96.5581 30.76C95.9981 31.08 95.5181 31.24 95.1181 31.24ZM121.377 18.68L117.537 3.68C115.644 4.4 114.177 5.52 113.137 7.04C112.097 8.53333 111.577 10.3733 111.577 12.56C111.577 13.5467 111.671 14.24 111.857 14.64C112.044 15.0133 112.137 15.2267 112.137 15.28C110.697 15.28 109.617 14.9867 108.897 14.4C108.204 13.7867 107.857 12.7867 107.857 11.4C107.857 9.69333 108.551 8.04 109.937 6.44C111.351 4.81333 113.151 3.50667 115.337 2.52C117.524 1.50666 119.711 0.999998 121.897 0.999998C122.271 0.999998 122.804 1.02666 123.497 1.08L126.977 15.4L132.897 1.2H135.537L127.777 18.68L125.137 31H118.737L121.377 18.68ZM138.262 31.16C136.289 31.16 134.729 30.6533 133.582 29.64C132.435 28.6267 131.862 27.0267 131.862 24.84C131.862 23.0267 132.235 21.0133 132.982 18.8C133.729 16.5867 134.929 14.68 136.582 13.08C138.235 11.4533 140.315 10.64 142.822 10.64C146.235 10.64 147.942 12.7733 147.942 17.04V17.08C148.022 17.1067 148.169 17.12 148.382 17.12C149.262 17.12 150.275 16.8933 151.422 16.44C152.569 15.96 153.609 15.3867 154.542 14.72L154.902 15.8C154.129 16.6267 153.115 17.3333 151.862 17.92C150.635 18.48 149.289 18.88 147.822 19.12C147.609 21.5467 147.062 23.6667 146.182 25.48C145.302 27.2933 144.169 28.6933 142.782 29.68C141.395 30.6667 139.889 31.16 138.262 31.16ZM139.862 27.56C140.502 27.56 141.142 27.2 141.782 26.48C142.422 25.7333 142.982 24.7333 143.462 23.48C143.942 22.2 144.289 20.7867 144.502 19.24C143.782 19.08 143.422 18.52 143.422 17.56C143.422 16.4667 143.835 15.7467 144.662 15.4C144.609 14.52 144.475 13.92 144.262 13.6C144.049 13.2533 143.675 13.08 143.142 13.08C142.262 13.08 141.409 13.72 140.582 15C139.755 16.28 139.089 17.8133 138.582 19.6C138.075 21.3867 137.822 22.96 137.822 24.32C137.822 25.6 137.969 26.4667 138.262 26.92C138.555 27.3467 139.089 27.56 139.862 27.56ZM153.96 31.24C152.68 31.24 151.64 30.84 150.84 30.04C150.067 29.24 149.68 28.04 149.68 26.44C149.68 25.7733 149.787 24.9067 150 23.84L152.72 11H158.48L155.6 24.6C155.52 24.92 155.48 25.2533 155.48 25.6C155.48 26.7733 155.88 27.36 156.68 27.36C157.427 27.36 158.067 27.0533 158.6 26.44C159.133 25.8 159.56 24.9333 159.88 23.84L162.6 11H168.36L165.48 24.6C165.373 25 165.32 25.4267 165.32 25.88C165.32 26.4133 165.44 26.8 165.68 27.04C165.947 27.2533 166.373 27.36 166.96 27.36C167.387 27.36 167.693 27.3333 167.88 27.28C168.093 27.2 168.227 27.1467 168.28 27.12C168.173 28.48 167.707 29.5067 166.88 30.2C166.053 30.8933 165.04 31.24 163.84 31.24C162.72 31.24 161.813 30.9067 161.12 30.24C160.453 29.5733 160.053 28.64 159.92 27.44C159.013 28.9067 158.053 29.9067 157.04 30.44C156.053 30.9733 155.027 31.24 153.96 31.24ZM175.319 1.76L181.479 0.919999L175.679 21.76H172.279L175.319 1.76ZM172.839 31.24C171.959 31.24 171.199 30.9333 170.559 30.32C169.946 29.68 169.639 28.92 169.639 28.04C169.639 27.16 169.946 26.4133 170.559 25.8C171.199 25.1867 171.959 24.88 172.839 24.88C173.719 24.88 174.466 25.1867 175.079 25.8C175.693 26.4133 175.999 27.16 175.999 28.04C175.999 28.92 175.693 29.68 175.079 30.32C174.466 30.9333 173.719 31.24 172.839 31.24ZM185.593 1.76L191.753 0.919999L185.953 21.76H182.553L185.593 1.76ZM183.113 31.24C182.233 31.24 181.473 30.9333 180.833 30.32C180.219 29.68 179.913 28.92 179.913 28.04C179.913 27.16 180.219 26.4133 180.833 25.8C181.473 25.1867 182.233 24.88 183.113 24.88C183.993 24.88 184.739 25.1867 185.353 25.8C185.966 26.4133 186.273 27.16 186.273 28.04C186.273 28.92 185.966 29.68 185.353 30.32C184.739 30.9333 183.993 31.24 183.113 31.24ZM195.866 1.76L202.026 0.919999L196.226 21.76H192.826L195.866 1.76ZM193.386 31.24C192.506 31.24 191.746 30.9333 191.106 30.32C190.493 29.68 190.186 28.92 190.186 28.04C190.186 27.16 190.493 26.4133 191.106 25.8C191.746 25.1867 192.506 24.88 193.386 24.88C194.266 24.88 195.013 25.1867 195.626 25.8C196.24 26.4133 196.546 27.16 196.546 28.04C196.546 28.92 196.24 29.68 195.626 30.32C195.013 30.9333 194.266 31.24 193.386 31.24Z" fill="#05A4E8"/>
</svg>
