<svg width="50" height="38" viewBox="0 0 50 38" fill="none" xmlns="http://www.w3.org/2000/svg">
<path d="M11.3889 37.4415V17.7192L0 8.96924V33.2748C0 36.0526 1.38889 37.4415 4.16667 37.4415" fill="#4285F4"/>
<path d="M10.8333 17.5803L24.9999 28.2748L39.1666 17.5803V3.96924L24.9999 14.6637L10.8333 3.96924" fill="#EA4335"/>
<path d="M38.6111 37.4415V17.7192L50 8.96924V33.2748C50 36.0526 48.6111 37.4415 45.8333 37.4415" fill="#34A853"/>
<path d="M0 9.24684L11.3889 17.9968V4.38573L7.22222 1.19129C3.47222 -1.72538 0 1.19129 0 4.8024" fill="#C5221F"/>
<path d="M50 9.24684L38.6111 17.9968V4.38573L42.7778 1.19129C46.5278 -1.72538 50 1.19129 50 4.8024" fill="#FBBC04"/>
</svg>
