<svg width="50" height="50" viewBox="0 0 50 50" fill="none" xmlns="http://www.w3.org/2000/svg">
<path d="M0 3.57422C0 1.62109 1.66016 0 3.71094 0H46.2891C48.3398 0 50 1.60156 50 3.57422V46.4258C50 48.3789 48.3398 50 46.2891 50H3.71094C1.66016 50 0 48.3984 0 46.4258V3.57422Z" fill="#006699"/>
<path d="M15.1953 41.8359V19.3359H7.71484V41.8359H15.1953ZM11.4648 16.25C14.0625 16.25 15.6836 14.5312 15.6836 12.3633C15.6445 10.1562 14.0625 8.47656 11.5234 8.47656C8.96484 8.47656 7.28516 10.1563 7.28516 12.3828C7.28516 14.5312 8.90625 16.2695 11.4258 16.2695H11.4648V16.25ZM19.3359 41.8359H26.8164V29.2969C26.8164 28.6133 26.875 27.9297 27.0703 27.4609C27.5977 26.1328 28.8281 24.7266 30.8984 24.7266C33.6133 24.7266 34.6875 26.7969 34.6875 29.8047V41.8555H42.1875V28.9648C42.1875 22.0508 38.4961 18.8086 33.5937 18.8086C32.2199 18.7555 30.8581 19.0831 29.6587 19.7552C28.4593 20.4273 27.4689 21.4177 26.7969 22.6172H26.8359V19.3359H19.3359C19.4336 21.4453 19.3359 41.8359 19.3359 41.8359Z" fill="white"/>
</svg>
