<svg width="50" height="50" viewBox="0 0 50 50" fill="none" xmlns="http://www.w3.org/2000/svg">
<path d="M25 50C38.8071 50 50 38.8071 50 25C50 11.1929 38.8071 0 25 0C11.1929 0 0 11.1929 0 25C0 38.8071 11.1929 50 25 50Z" fill="url(#paint0_linear_22_69)"/>
<path d="M20.4166 36.4582C19.6066 36.4582 19.7443 36.1523 19.4649 35.3811L17.0833 27.543L35.4166 16.6665" fill="#C8DAEA"/>
<path d="M20.4167 36.4585C21.0417 36.4585 21.3178 36.1727 21.6667 35.8335L25.0001 32.5923L20.8422 30.085" fill="#A9C9DD"/>
<path d="M20.8417 30.0855L30.9167 37.5291C32.0665 38.1634 32.8961 37.8349 33.1825 36.4618L37.2836 17.1361C37.7033 15.4528 36.6419 14.6891 35.5419 15.1884L11.4606 24.4741C9.81689 25.1334 9.82668 26.0505 11.1611 26.4591L17.3408 28.388L31.6477 19.362C32.3231 18.9524 32.9431 19.1724 32.4344 19.6241" fill="url(#paint1_linear_22_69)"/>
<defs>
<linearGradient id="paint0_linear_22_69" x1="33.35" y1="8.35" x2="20.85" y2="37.5" gradientUnits="userSpaceOnUse">
<stop stop-color="#37AEE2"/>
<stop offset="1" stop-color="#1E96C8"/>
</linearGradient>
<linearGradient id="paint1_linear_22_69" x1="28.1342" y1="25.0021" x2="32.0357" y2="33.8915" gradientUnits="userSpaceOnUse">
<stop stop-color="#EFF7FC"/>
<stop offset="1" stop-color="white"/>
</linearGradient>
</defs>
</svg>
